<ttFont>
    <TTGlyph name="A" xMin="50" yMin="0" xMax="464" yMax="712">
      <contour>
        <pt x="220" y="712" on="0"/>
        <pt x="294" y="712" on="0"/>
        <pt x="436" y="582" on="0"/>
        <pt x="453" y="540" on="1"/>
        <pt x="464" y="511" on="0"/>
        <pt x="464" y="409" on="1"/>
        <pt x="464" y="0" on="1"/>
        <pt x="326" y="0" on="1"/>
        <pt x="326" y="150" on="1"/>
        <pt x="188" y="150" on="1"/>
        <pt x="188" y="0" on="1"/>
        <pt x="50" y="0" on="1"/>
        <pt x="50" y="409" on="1"/>
        <pt x="50" y="511" on="0"/>
        <pt x="61" y="540" on="1"/>
        <pt x="78" y="582" on="0"/>
      </contour>
      <contour>
        <pt x="188" y="409" on="1"/>
        <pt x="188" y="270" on="1"/>
        <pt x="326" y="270" on="1"/>
        <pt x="326" y="409" on="1"/>
        <pt x="326" y="491" on="0"/>
        <pt x="310" y="528" on="0"/>
        <pt x="271" y="569" on="0"/>
        <pt x="243" y="569" on="0"/>
        <pt x="204" y="528" on="0"/>
        <pt x="188" y="491" on="0"/>
      </contour>
    </TTGlyph>
    <TTGlyph name="AE" xMin="50" yMin="0" xMax="703" yMax="712">
      <contour>
        <pt x="464" y="426" on="1"/>
        <pt x="643" y="426" on="1"/>
        <pt x="643" y="305" on="1"/>
        <pt x="464" y="305" on="1"/>
        <pt x="464" y="121" on="1"/>
        <pt x="703" y="121" on="1"/>
        <pt x="703" y="0" on="1"/>
        <pt x="326" y="0" on="1"/>
        <pt x="326" y="150" on="1"/>
        <pt x="188" y="150" on="1"/>
        <pt x="188" y="0" on="1"/>
        <pt x="50" y="0" on="1"/>
        <pt x="50" y="409" on="1"/>
        <pt x="50" y="511" on="0"/>
        <pt x="61" y="540" on="1"/>
        <pt x="78" y="582" on="0"/>
        <pt x="220" y="712" on="0"/>
        <pt x="297" y="712" on="0"/>
        <pt x="379" y="634" on="1"/>
        <pt x="489" y="712" on="1"/>
        <pt x="687" y="712" on="1"/>
        <pt x="687" y="590" on="1"/>
        <pt x="526" y="590" on="1"/>
        <pt x="464" y="544" on="1"/>
      </contour>
      <contour>
        <pt x="188" y="409" on="1"/>
        <pt x="188" y="270" on="1"/>
        <pt x="326" y="270" on="1"/>
        <pt x="326" y="409" on="1"/>
        <pt x="326" y="491" on="0"/>
        <pt x="310" y="528" on="0"/>
        <pt x="271" y="569" on="0"/>
        <pt x="243" y="569" on="0"/>
        <pt x="204" y="528" on="0"/>
        <pt x="188" y="491" on="0"/>
      </contour>
    </TTGlyph>
    <TTGlyph name="AEacute" xMin="50" yMin="0" xMax="703" yMax="911">
      <contour>
        <pt x="464" y="426" on="1"/>
        <pt x="643" y="426" on="1"/>
        <pt x="643" y="305" on="1"/>
        <pt x="464" y="305" on="1"/>
        <pt x="464" y="121" on="1"/>
        <pt x="703" y="121" on="1"/>
        <pt x="703" y="0" on="1"/>
        <pt x="326" y="0" on="1"/>
        <pt x="326" y="150" on="1"/>
        <pt x="188" y="150" on="1"/>
        <pt x="188" y="0" on="1"/>
        <pt x="50" y="0" on="1"/>
        <pt x="50" y="409" on="1"/>
        <pt x="50" y="511" on="0"/>
        <pt x="61" y="540" on="1"/>
        <pt x="78" y="582" on="0"/>
        <pt x="220" y="712" on="0"/>
        <pt x="297" y="712" on="0"/>
        <pt x="379" y="634" on="1"/>
        <pt x="489" y="712" on="1"/>
        <pt x="687" y="712" on="1"/>
        <pt x="687" y="590" on="1"/>
        <pt x="526" y="590" on="1"/>
        <pt x="464" y="544" on="1"/>
      </contour>
      <contour>
        <pt x="188" y="409" on="1"/>
        <pt x="188" y="270" on="1"/>
        <pt x="326" y="270" on="1"/>
        <pt x="326" y="409" on="1"/>
        <pt x="326" y="491" on="0"/>
        <pt x="310" y="528" on="0"/>
        <pt x="271" y="569" on="0"/>
        <pt x="243" y="569" on="0"/>
        <pt x="204" y="528" on="0"/>
        <pt x="188" y="491" on="0"/>
      </contour>
      <contour>
        <pt x="571" y="846" on="1"/>
        <pt x="571" y="832" on="0"/>
        <pt x="427" y="741" on="0"/>
        <pt x="413" y="741" on="0"/>
        <pt x="383" y="770" on="0"/>
        <pt x="383" y="783" on="0"/>
        <pt x="487" y="911" on="0"/>
        <pt x="506" y="911" on="0"/>
        <pt x="571" y="856" on="0"/>
      </contour>
    </TTGlyph>
    <TTGlyph name="Aacute" xMin="50" yMin="0" xMax="464" yMax="882">
      <contour>
        <pt x="220" y="712" on="0"/>
        <pt x="294" y="712" on="0"/>
        <pt x="436" y="582" on="0"/>
        <pt x="453" y="540" on="1"/>
        <pt x="464" y="511" on="0"/>
        <pt x="464" y="409" on="1"/>
        <pt x="464" y="0" on="1"/>
        <pt x="326" y="0" on="1"/>
        <pt x="326" y="150" on="1"/>
        <pt x="188" y="150" on="1"/>
        <pt x="188" y="0" on="1"/>
        <pt x="50" y="0" on="1"/>
        <pt x="50" y="409" on="1"/>
        <pt x="50" y="511" on="0"/>
        <pt x="61" y="540" on="1"/>
        <pt x="78" y="582" on="0"/>
      </contour>
      <contour>
        <pt x="188" y="409" on="1"/>
        <pt x="188" y="270" on="1"/>
        <pt x="326" y="270" on="1"/>
        <pt x="326" y="409" on="1"/>
        <pt x="326" y="491" on="0"/>
        <pt x="310" y="528" on="0"/>
        <pt x="271" y="569" on="0"/>
        <pt x="243" y="569" on="0"/>
        <pt x="204" y="528" on="0"/>
        <pt x="188" y="491" on="0"/>
      </contour>
      <contour>
        <pt x="323" y="882" on="0"/>
        <pt x="363" y="806" on="0"/>
        <pt x="363" y="782" on="0"/>
        <pt x="201" y="750" on="0"/>
        <pt x="183" y="750" on="1"/>
        <pt x="179" y="750" on="0"/>
        <pt x="163" y="788" on="0"/>
        <pt x="163" y="799" on="0"/>
        <pt x="306" y="882" on="0"/>
        <pt x="316" y="882" on="1"/>
      </contour>
    </TTGlyph>
    <TTGlyph name="Acircumflex" xMin="50" yMin="0" xMax="464" yMax="882">
      <contour>
        <pt x="220" y="712" on="0"/>
        <pt x="294" y="712" on="0"/>
        <pt x="436" y="582" on="0"/>
        <pt x="453" y="540" on="1"/>
        <pt x="464" y="511" on="0"/>
        <pt x="464" y="409" on="1"/>
        <pt x="464" y="0" on="1"/>
        <pt x="326" y="0" on="1"/>
        <pt x="326" y="150" on="1"/>
        <pt x="188" y="150" on="1"/>
        <pt x="188" y="0" on="1"/>
        <pt x="50" y="0" on="1"/>
        <pt x="50" y="409" on="1"/>
        <pt x="50" y="511" on="0"/>
        <pt x="61" y="540" on="1"/>
        <pt x="78" y="582" on="0"/>
      </contour>
      <contour>
        <pt x="188" y="409" on="1"/>
        <pt x="188" y="270" on="1"/>
        <pt x="326" y="270" on="1"/>
        <pt x="326" y="409" on="1"/>
        <pt x="326" y="491" on="0"/>
        <pt x="310" y="528" on="0"/>
        <pt x="271" y="569" on="0"/>
        <pt x="243" y="569" on="0"/>
        <pt x="204" y="528" on="0"/>
        <pt x="188" y="491" on="0"/>
      </contour>
      <contour>
        <pt x="409" y="796" on="0"/>
        <pt x="385" y="750" on="0"/>
        <pt x="372" y="750" on="0"/>
        <pt x="266" y="794" on="1"/>
        <pt x="154" y="750" on="0"/>
        <pt x="153" y="750" on="1"/>
        <pt x="148" y="750" on="0"/>
        <pt x="123" y="796" on="0"/>
        <pt x="123" y="804" on="1"/>
        <pt x="123" y="809" on="0"/>
        <pt x="257" y="882" on="0"/>
        <pt x="275" y="882" on="0"/>
        <pt x="409" y="809" on="0"/>
        <pt x="409" y="804" on="1"/>
      </contour>
    </TTGlyph>
    <TTGlyph name="Acute" xMin="55" yMin="750" xMax="255" yMax="882">
      <contour>
        <pt x="215" y="882" on="0"/>
        <pt x="255" y="806" on="0"/>
        <pt x="255" y="782" on="0"/>
        <pt x="93" y="750" on="0"/>
        <pt x="75" y="750" on="1"/>
        <pt x="71" y="750" on="0"/>
        <pt x="55" y="788" on="0"/>
        <pt x="55" y="799" on="0"/>
        <pt x="198" y="882" on="0"/>
        <pt x="208" y="882" on="1"/>
      </contour>
    </TTGlyph>
    <TTGlyph name="Adieresis" xMin="50" yMin="0" xMax="464" yMax="880">
      <contour>
        <pt x="220" y="712" on="0"/>
        <pt x="294" y="712" on="0"/>
        <pt x="436" y="582" on="0"/>
        <pt x="453" y="540" on="1"/>
        <pt x="464" y="511" on="0"/>
        <pt x="464" y="409" on="1"/>
        <pt x="464" y="0" on="1"/>
        <pt x="326" y="0" on="1"/>
        <pt x="326" y="150" on="1"/>
        <pt x="188" y="150" on="1"/>
        <pt x="188" y="0" on="1"/>
        <pt x="50" y="0" on="1"/>
        <pt x="50" y="409" on="1"/>
        <pt x="50" y="511" on="0"/>
        <pt x="61" y="540" on="1"/>
        <pt x="78" y="582" on="0"/>
      </contour>
      <contour>
        <pt x="188" y="409" on="1"/>
        <pt x="188" y="270" on="1"/>
        <pt x="326" y="270" on="1"/>
        <pt x="326" y="409" on="1"/>
        <pt x="326" y="491" on="0"/>
        <pt x="310" y="528" on="0"/>
        <pt x="271" y="569" on="0"/>
        <pt x="243" y="569" on="0"/>
        <pt x="204" y="528" on="0"/>
        <pt x="188" y="491" on="0"/>
      </contour>
      <contour>
        <pt x="233" y="825" on="0"/>
        <pt x="233" y="805" on="0"/>
        <pt x="168" y="750" on="0"/>
        <pt x="150" y="750" on="0"/>
        <pt x="85" y="805" on="0"/>
        <pt x="85" y="825" on="0"/>
        <pt x="151" y="880" on="0"/>
        <pt x="168" y="880" on="0"/>
      </contour>
      <contour>
        <pt x="431" y="825" on="0"/>
        <pt x="431" y="805" on="0"/>
        <pt x="366" y="750" on="0"/>
        <pt x="348" y="750" on="0"/>
        <pt x="283" y="805" on="0"/>
        <pt x="283" y="825" on="0"/>
        <pt x="349" y="880" on="0"/>
        <pt x="366" y="880" on="0"/>
      </contour>
    </TTGlyph>
    <TTGlyph name="Agrave" xMin="50" yMin="0" xMax="464" yMax="882">
      <contour>
        <pt x="220" y="712" on="0"/>
        <pt x="294" y="712" on="0"/>
        <pt x="436" y="582" on="0"/>
        <pt x="453" y="540" on="1"/>
        <pt x="464" y="511" on="0"/>
        <pt x="464" y="409" on="1"/>
        <pt x="464" y="0" on="1"/>
        <pt x="326" y="0" on="1"/>
        <pt x="326" y="150" on="1"/>
        <pt x="188" y="150" on="1"/>
        <pt x="188" y="0" on="1"/>
        <pt x="50" y="0" on="1"/>
        <pt x="50" y="409" on="1"/>
        <pt x="50" y="511" on="0"/>
        <pt x="61" y="540" on="1"/>
        <pt x="78" y="582" on="0"/>
      </contour>
      <contour>
        <pt x="188" y="409" on="1"/>
        <pt x="188" y="270" on="1"/>
        <pt x="326" y="270" on="1"/>
        <pt x="326" y="409" on="1"/>
        <pt x="326" y="491" on="0"/>
        <pt x="310" y="528" on="0"/>
        <pt x="271" y="569" on="0"/>
        <pt x="243" y="569" on="0"/>
        <pt x="204" y="528" on="0"/>
        <pt x="188" y="491" on="0"/>
      </contour>
      <contour>
        <pt x="295" y="750" on="0"/>
        <pt x="133" y="782" on="0"/>
        <pt x="133" y="806" on="0"/>
        <pt x="173" y="882" on="0"/>
        <pt x="180" y="882" on="1"/>
        <pt x="190" y="882" on="0"/>
        <pt x="333" y="799" on="0"/>
        <pt x="333" y="788" on="0"/>
        <pt x="317" y="750" on="0"/>
        <pt x="313" y="750" on="1"/>
      </contour>
    </TTGlyph>
    <TTGlyph name="Amacron" xMin="50" yMin="0" xMax="464" yMax="862">
      <contour>
        <pt x="220" y="712" on="0"/>
        <pt x="294" y="712" on="0"/>
        <pt x="436" y="582" on="0"/>
        <pt x="453" y="540" on="1"/>
        <pt x="464" y="511" on="0"/>
        <pt x="464" y="409" on="1"/>
        <pt x="464" y="0" on="1"/>
        <pt x="326" y="0" on="1"/>
        <pt x="326" y="150" on="1"/>
        <pt x="188" y="150" on="1"/>
        <pt x="188" y="0" on="1"/>
        <pt x="50" y="0" on="1"/>
        <pt x="50" y="409" on="1"/>
        <pt x="50" y="511" on="0"/>
        <pt x="61" y="540" on="1"/>
        <pt x="78" y="582" on="0"/>
      </contour>
      <contour>
        <pt x="188" y="409" on="1"/>
        <pt x="188" y="270" on="1"/>
        <pt x="326" y="270" on="1"/>
        <pt x="326" y="409" on="1"/>
        <pt x="326" y="491" on="0"/>
        <pt x="310" y="528" on="0"/>
        <pt x="271" y="569" on="0"/>
        <pt x="243" y="569" on="0"/>
        <pt x="204" y="528" on="0"/>
        <pt x="188" y="491" on="0"/>
      </contour>
      <contour>
        <pt x="94" y="769" on="1"/>
        <pt x="94" y="862" on="1"/>
        <pt x="419" y="862" on="1"/>
        <pt x="419" y="769" on="1"/>
      </contour>
    </TTGlyph>
    <TTGlyph name="Aring" xMin="50" yMin="0" xMax="464" yMax="911">
      <contour>
        <pt x="220" y="712" on="0"/>
        <pt x="294" y="712" on="0"/>
        <pt x="436" y="582" on="0"/>
        <pt x="453" y="540" on="1"/>
        <pt x="464" y="511" on="0"/>
        <pt x="464" y="409" on="1"/>
        <pt x="464" y="0" on="1"/>
        <pt x="326" y="0" on="1"/>
        <pt x="326" y="150" on="1"/>
        <pt x="188" y="150" on="1"/>
        <pt x="188" y="0" on="1"/>
        <pt x="50" y="0" on="1"/>
        <pt x="50" y="409" on="1"/>
        <pt x="50" y="511" on="0"/>
        <pt x="61" y="540" on="1"/>
        <pt x="78" y="582" on="0"/>
      </contour>
      <contour>
        <pt x="188" y="409" on="1"/>
        <pt x="188" y="270" on="1"/>
        <pt x="326" y="270" on="1"/>
        <pt x="326" y="409" on="1"/>
        <pt x="326" y="491" on="0"/>
        <pt x="310" y="528" on="0"/>
        <pt x="271" y="569" on="0"/>
        <pt x="243" y="569" on="0"/>
        <pt x="204" y="528" on="0"/>
        <pt x="188" y="491" on="0"/>
      </contour>
      <contour>
        <pt x="299" y="817" on="0"/>
        <pt x="299" y="837" on="0"/>
        <pt x="267" y="865" on="0"/>
        <pt x="248" y="865" on="0"/>
        <pt x="215" y="836" on="0"/>
        <pt x="215" y="817" on="0"/>
        <pt x="247" y="789" on="0"/>
        <pt x="267" y="789" on="0"/>
      </contour>
      <contour>
        <pt x="352" y="846" on="0"/>
        <pt x="352" y="808" on="0"/>
        <pt x="279" y="742" on="0"/>
        <pt x="235" y="742" on="0"/>
        <pt x="162" y="807" on="0"/>
        <pt x="162" y="846" on="0"/>
        <pt x="236" y="911" on="0"/>
        <pt x="279" y="911" on="0"/>
      </contour>
    </TTGlyph>
    <TTGlyph name="Atilde" xMin="50" yMin="0" xMax="464" yMax="911">
      <contour>
        <pt x="220" y="712" on="0"/>
        <pt x="294" y="712" on="0"/>
        <pt x="436" y="582" on="0"/>
        <pt x="453" y="540" on="1"/>
        <pt x="464" y="511" on="0"/>
        <pt x="464" y="409" on="1"/>
        <pt x="464" y="0" on="1"/>
        <pt x="326" y="0" on="1"/>
        <pt x="326" y="150" on="1"/>
        <pt x="188" y="150" on="1"/>
        <pt x="188" y="0" on="1"/>
        <pt x="50" y="0" on="1"/>
        <pt x="50" y="409" on="1"/>
        <pt x="50" y="511" on="0"/>
        <pt x="61" y="540" on="1"/>
        <pt x="78" y="582" on="0"/>
      </contour>
      <contour>
        <pt x="188" y="409" on="1"/>
        <pt x="188" y="270" on="1"/>
        <pt x="326" y="270" on="1"/>
        <pt x="326" y="409" on="1"/>
        <pt x="326" y="491" on="0"/>
        <pt x="310" y="528" on="0"/>
        <pt x="271" y="569" on="0"/>
        <pt x="243" y="569" on="0"/>
        <pt x="204" y="528" on="0"/>
        <pt x="188" y="491" on="0"/>
      </contour>
      <contour>
        <pt x="456" y="860" on="0"/>
        <pt x="333" y="741" on="0"/>
        <pt x="310" y="741" on="0"/>
        <pt x="232" y="801" on="1"/>
        <pt x="154" y="741" on="0"/>
        <pt x="136" y="741" on="0"/>
        <pt x="98" y="779" on="0"/>
        <pt x="98" y="792" on="0"/>
        <pt x="221" y="911" on="0"/>
        <pt x="244" y="911" on="0"/>
        <pt x="322" y="851" on="1"/>
        <pt x="400" y="911" on="0"/>
        <pt x="418" y="911" on="0"/>
        <pt x="456" y="873" on="0"/>
      </contour>
    </TTGlyph>
    <TTGlyph name="B" xMin="10" yMin="0" xMax="484" yMax="712">
      <contour>
        <pt x="180" y="657" on="1"/>
        <pt x="248" y="712" on="0"/>
        <pt x="303" y="712" on="0"/>
        <pt x="424" y="607" on="0"/>
        <pt x="454" y="564" on="0"/>
        <pt x="454" y="466" on="0"/>
        <pt x="424" y="417" on="0"/>
        <pt x="384" y="379" on="1"/>
        <pt x="447" y="327" on="0"/>
        <pt x="473" y="292" on="1"/>
        <pt x="484" y="274" on="0"/>
        <pt x="484" y="175" on="0"/>
        <pt x="473" y="160" on="1"/>
        <pt x="455" y="121" on="0"/>
        <pt x="317" y="0" on="0"/>
        <pt x="277" y="0" on="1"/>
        <pt x="70" y="0" on="1"/>
        <pt x="70" y="428" on="1"/>
        <pt x="70" y="509" on="0"/>
        <pt x="47" y="575" on="0"/>
        <pt x="10" y="620" on="1"/>
        <pt x="142" y="712" on="1"/>
        <pt x="166" y="692" on="0"/>
      </contour>
      <contour>
        <pt x="208" y="304" on="1"/>
        <pt x="208" y="121" on="1"/>
        <pt x="277" y="121" on="1"/>
        <pt x="290" y="121" on="0"/>
        <pt x="328" y="162" on="0"/>
        <pt x="345" y="193" on="0"/>
        <pt x="345" y="241" on="1"/>
        <pt x="345" y="274" on="0"/>
        <pt x="295" y="304" on="1"/>
      </contour>
      <contour>
        <pt x="208" y="486" on="1"/>
        <pt x="208" y="415" on="1"/>
        <pt x="259" y="415" on="1"/>
        <pt x="270" y="415" on="0"/>
        <pt x="303" y="454" on="0"/>
        <pt x="315" y="484" on="0"/>
        <pt x="315" y="526" on="0"/>
        <pt x="275" y="579" on="0"/>
        <pt x="241" y="579" on="0"/>
        <pt x="205" y="566" on="1"/>
        <pt x="208" y="527" on="0"/>
      </contour>
    </TTGlyph>
    <TTGlyph name="C" xMin="25" yMin="-12" xMax="444" yMax="712">
      <contour>
        <pt x="25" y="303" on="1"/>
        <pt x="25" y="397" on="1"/>
        <pt x="25" y="522" on="0"/>
        <pt x="65" y="592" on="0"/>
        <pt x="196" y="712" on="0"/>
        <pt x="228" y="712" on="1"/>
        <pt x="283" y="712" on="0"/>
        <pt x="425" y="585" on="0"/>
        <pt x="444" y="509" on="1"/>
        <pt x="333" y="432" on="1"/>
        <pt x="317" y="486" on="0"/>
        <pt x="247" y="577" on="0"/>
        <pt x="233" y="577" on="1"/>
        <pt x="208" y="577" on="0"/>
        <pt x="176" y="528" on="1"/>
        <pt x="163" y="509" on="0"/>
        <pt x="163" y="397" on="1"/>
        <pt x="163" y="303" on="1"/>
        <pt x="163" y="188" on="0"/>
        <pt x="176" y="172" on="1"/>
        <pt x="208" y="123" on="0"/>
        <pt x="233" y="123" on="1"/>
        <pt x="247" y="123" on="0"/>
        <pt x="317" y="202" on="0"/>
        <pt x="333" y="250" on="1"/>
        <pt x="444" y="172" on="1"/>
        <pt x="425" y="103" on="0"/>
        <pt x="283" y="-12" on="0"/>
        <pt x="228" y="-12" on="1"/>
        <pt x="196" y="-12" on="0"/>
        <pt x="65" y="108" on="0"/>
        <pt x="25" y="178" on="0"/>
      </contour>
    </TTGlyph>
    <TTGlyph name="Caron" xMin="55" yMin="750" xMax="341" yMax="882">
      <contour>
        <pt x="198" y="838" on="1"/>
        <pt x="304" y="882" on="0"/>
        <pt x="317" y="882" on="0"/>
        <pt x="341" y="836" on="0"/>
        <pt x="341" y="828" on="1"/>
        <pt x="341" y="823" on="0"/>
        <pt x="207" y="750" on="0"/>
        <pt x="189" y="750" on="0"/>
        <pt x="55" y="823" on="0"/>
        <pt x="55" y="828" on="1"/>
        <pt x="55" y="836" on="0"/>
        <pt x="80" y="882" on="0"/>
        <pt x="85" y="882" on="1"/>
        <pt x="86" y="882" on="0"/>
      </contour>
    </TTGlyph>
    <TTGlyph name="Ccedilla" xMin="25" yMin="-250" xMax="444" yMax="712">
      <contour>
        <pt x="159" y="-86" on="1"/>
        <pt x="159" y="-74" on="0"/>
        <pt x="208" y="-7" on="1"/>
        <pt x="172" y="8" on="0"/>
        <pt x="61" y="114" on="0"/>
        <pt x="47" y="140" on="1"/>
        <pt x="25" y="178" on="0"/>
        <pt x="25" y="303" on="1"/>
        <pt x="25" y="397" on="1"/>
        <pt x="25" y="522" on="0"/>
        <pt x="65" y="592" on="0"/>
        <pt x="196" y="712" on="0"/>
        <pt x="228" y="712" on="1"/>
        <pt x="283" y="712" on="0"/>
        <pt x="425" y="585" on="0"/>
        <pt x="444" y="509" on="1"/>
        <pt x="333" y="432" on="1"/>
        <pt x="317" y="486" on="0"/>
        <pt x="247" y="577" on="0"/>
        <pt x="233" y="577" on="1"/>
        <pt x="208" y="577" on="0"/>
        <pt x="176" y="528" on="1"/>
        <pt x="163" y="509" on="0"/>
        <pt x="163" y="397" on="1"/>
        <pt x="163" y="303" on="1"/>
        <pt x="163" y="188" on="0"/>
        <pt x="176" y="172" on="1"/>
        <pt x="208" y="123" on="0"/>
        <pt x="233" y="123" on="1"/>
        <pt x="247" y="123" on="0"/>
        <pt x="317" y="202" on="0"/>
        <pt x="333" y="250" on="1"/>
        <pt x="444" y="172" on="1"/>
        <pt x="430" y="120" on="0"/>
        <pt x="338" y="26" on="0"/>
        <pt x="286" y="3" on="1"/>
        <pt x="261" y="-30" on="0"/>
        <pt x="239" y="-56" on="1"/>
        <pt x="268" y="-83" on="0"/>
        <pt x="300" y="-111" on="0"/>
        <pt x="310" y="-120" on="1"/>
        <pt x="329" y="-139" on="0"/>
        <pt x="329" y="-155" on="0"/>
        <pt x="210" y="-250" on="0"/>
        <pt x="197" y="-250" on="0"/>
        <pt x="159" y="-212" on="0"/>
        <pt x="159" y="-200" on="0"/>
        <pt x="219" y="-146" on="1"/>
        <pt x="159" y="-92" on="0"/>
      </contour>
    </TTGlyph>
    <TTGlyph name="Circumflex" xMin="55" yMin="750" xMax="341" yMax="882">
      <contour>
        <pt x="341" y="796" on="0"/>
        <pt x="317" y="750" on="0"/>
        <pt x="304" y="750" on="0"/>
        <pt x="198" y="794" on="1"/>
        <pt x="86" y="750" on="0"/>
        <pt x="85" y="750" on="1"/>
        <pt x="80" y="750" on="0"/>
        <pt x="55" y="796" on="0"/>
        <pt x="55" y="804" on="1"/>
        <pt x="55" y="809" on="0"/>
        <pt x="189" y="882" on="0"/>
        <pt x="207" y="882" on="0"/>
        <pt x="341" y="809" on="0"/>
        <pt x="341" y="804" on="1"/>
      </contour>
    </TTGlyph>
    <TTGlyph name="D" xMin="10" yMin="0" xMax="484" yMax="712">
      <contour>
        <pt x="179" y="660" on="1"/>
        <pt x="245" y="712" on="0"/>
        <pt x="313" y="712" on="0"/>
        <pt x="456" y="581" on="0"/>
        <pt x="473" y="540" on="1"/>
        <pt x="484" y="514" on="0"/>
        <pt x="484" y="409" on="1"/>
        <pt x="484" y="291" on="1"/>
        <pt x="484" y="186" on="0"/>
        <pt x="473" y="160" on="1"/>
        <pt x="455" y="121" on="0"/>
        <pt x="317" y="0" on="0"/>
        <pt x="277" y="0" on="1"/>
        <pt x="70" y="0" on="1"/>
        <pt x="70" y="428" on="1"/>
        <pt x="70" y="509" on="0"/>
        <pt x="47" y="575" on="0"/>
        <pt x="10" y="620" on="1"/>
        <pt x="142" y="712" on="1"/>
        <pt x="163" y="696" on="0"/>
      </contour>
      <contour>
        <pt x="277" y="569" on="1"/>
        <pt x="248" y="569" on="0"/>
        <pt x="205" y="550" on="1"/>
        <pt x="208" y="529" on="0"/>
        <pt x="208" y="486" on="1"/>
        <pt x="208" y="121" on="1"/>
        <pt x="277" y="121" on="1"/>
        <pt x="291" y="121" on="0"/>
        <pt x="330" y="162" on="0"/>
        <pt x="346" y="199" on="0"/>
        <pt x="346" y="281" on="1"/>
        <pt x="346" y="409" on="1"/>
        <pt x="346" y="491" on="0"/>
        <pt x="330" y="528" on="0"/>
        <pt x="291" y="569" on="0"/>
      </contour>
    </TTGlyph>
    <TTGlyph name="E" xMin="50" yMin="0" xMax="427" yMax="712">
      <contour>
        <pt x="188" y="426" on="1"/>
        <pt x="367" y="426" on="1"/>
        <pt x="367" y="305" on="1"/>
        <pt x="188" y="305" on="1"/>
        <pt x="188" y="121" on="1"/>
        <pt x="427" y="121" on="1"/>
        <pt x="427" y="0" on="1"/>
        <pt x="50" y="0" on="1"/>
        <pt x="50" y="616" on="1"/>
        <pt x="188" y="712" on="1"/>
        <pt x="411" y="712" on="1"/>
        <pt x="411" y="590" on="1"/>
        <pt x="225" y="590" on="1"/>
        <pt x="188" y="564" on="1"/>
      </contour>
    </TTGlyph>
    <TTGlyph name="Eacute" xMin="70" yMin="0" xMax="447" yMax="882">
      <contour>
        <pt x="208" y="426" on="1"/>
        <pt x="387" y="426" on="1"/>
        <pt x="387" y="305" on="1"/>
        <pt x="208" y="305" on="1"/>
        <pt x="208" y="121" on="1"/>
        <pt x="447" y="121" on="1"/>
        <pt x="447" y="0" on="1"/>
        <pt x="70" y="0" on="1"/>
        <pt x="70" y="616" on="1"/>
        <pt x="208" y="712" on="1"/>
        <pt x="431" y="712" on="1"/>
        <pt x="431" y="590" on="1"/>
        <pt x="245" y="590" on="1"/>
        <pt x="208" y="564" on="1"/>
      </contour>
      <contour>
        <pt x="383" y="882" on="0"/>
        <pt x="423" y="806" on="0"/>
        <pt x="423" y="782" on="0"/>
        <pt x="261" y="750" on="0"/>
        <pt x="243" y="750" on="1"/>
        <pt x="239" y="750" on="0"/>
        <pt x="223" y="788" on="0"/>
        <pt x="223" y="799" on="0"/>
        <pt x="366" y="882" on="0"/>
        <pt x="376" y="882" on="1"/>
      </contour>
    </TTGlyph>
    <TTGlyph name="Ecaron" xMin="70" yMin="0" xMax="447" yMax="882">
      <contour>
        <pt x="208" y="426" on="1"/>
        <pt x="387" y="426" on="1"/>
        <pt x="387" y="305" on="1"/>
        <pt x="208" y="305" on="1"/>
        <pt x="208" y="121" on="1"/>
        <pt x="447" y="121" on="1"/>
        <pt x="447" y="0" on="1"/>
        <pt x="70" y="0" on="1"/>
        <pt x="70" y="616" on="1"/>
        <pt x="208" y="712" on="1"/>
        <pt x="431" y="712" on="1"/>
        <pt x="431" y="590" on="1"/>
        <pt x="245" y="590" on="1"/>
        <pt x="208" y="564" on="1"/>
      </contour>
      <contour>
        <pt x="283" y="838" on="1"/>
        <pt x="389" y="882" on="0"/>
        <pt x="402" y="882" on="0"/>
        <pt x="426" y="836" on="0"/>
        <pt x="426" y="828" on="1"/>
        <pt x="426" y="823" on="0"/>
        <pt x="292" y="750" on="0"/>
        <pt x="274" y="750" on="0"/>
        <pt x="140" y="823" on="0"/>
        <pt x="140" y="828" on="1"/>
        <pt x="140" y="836" on="0"/>
        <pt x="165" y="882" on="0"/>
        <pt x="170" y="882" on="1"/>
        <pt x="171" y="882" on="0"/>
      </contour>
    </TTGlyph>
    <TTGlyph name="Ecircumflex" xMin="70" yMin="0" xMax="447" yMax="882">
      <contour>
        <pt x="208" y="426" on="1"/>
        <pt x="387" y="426" on="1"/>
        <pt x="387" y="305" on="1"/>
        <pt x="208" y="305" on="1"/>
        <pt x="208" y="121" on="1"/>
        <pt x="447" y="121" on="1"/>
        <pt x="447" y="0" on="1"/>
        <pt x="70" y="0" on="1"/>
        <pt x="70" y="616" on="1"/>
        <pt x="208" y="712" on="1"/>
        <pt x="431" y="712" on="1"/>
        <pt x="431" y="590" on="1"/>
        <pt x="245" y="590" on="1"/>
        <pt x="208" y="564" on="1"/>
      </contour>
      <contour>
        <pt x="429" y="796" on="0"/>
        <pt x="405" y="750" on="0"/>
        <pt x="392" y="750" on="0"/>
        <pt x="286" y="794" on="1"/>
        <pt x="174" y="750" on="0"/>
        <pt x="173" y="750" on="1"/>
        <pt x="168" y="750" on="0"/>
        <pt x="143" y="796" on="0"/>
        <pt x="143" y="804" on="1"/>
        <pt x="143" y="809" on="0"/>
        <pt x="277" y="882" on="0"/>
        <pt x="295" y="882" on="0"/>
        <pt x="429" y="809" on="0"/>
        <pt x="429" y="804" on="1"/>
      </contour>
    </TTGlyph>
    <TTGlyph name="Edieresis" xMin="70" yMin="0" xMax="447" yMax="880">
      <contour>
        <pt x="208" y="426" on="1"/>
        <pt x="387" y="426" on="1"/>
        <pt x="387" y="305" on="1"/>
        <pt x="208" y="305" on="1"/>
        <pt x="208" y="121" on="1"/>
        <pt x="447" y="121" on="1"/>
        <pt x="447" y="0" on="1"/>
        <pt x="70" y="0" on="1"/>
        <pt x="70" y="616" on="1"/>
        <pt x="208" y="712" on="1"/>
        <pt x="431" y="712" on="1"/>
        <pt x="431" y="590" on="1"/>
        <pt x="245" y="590" on="1"/>
        <pt x="208" y="564" on="1"/>
      </contour>
      <contour>
        <pt x="247" y="825" on="0"/>
        <pt x="247" y="805" on="0"/>
        <pt x="182" y="750" on="0"/>
        <pt x="164" y="750" on="0"/>
        <pt x="99" y="805" on="0"/>
        <pt x="99" y="825" on="0"/>
        <pt x="165" y="880" on="0"/>
        <pt x="182" y="880" on="0"/>
      </contour>
      <contour>
        <pt x="445" y="825" on="0"/>
        <pt x="445" y="805" on="0"/>
        <pt x="380" y="750" on="0"/>
        <pt x="362" y="750" on="0"/>
        <pt x="297" y="805" on="0"/>
        <pt x="297" y="825" on="0"/>
        <pt x="363" y="880" on="0"/>
        <pt x="380" y="880" on="0"/>
      </contour>
    </TTGlyph>
    <TTGlyph name="Edotaccent" xMin="70" yMin="0" xMax="447" yMax="911">
      <contour>
        <pt x="208" y="426" on="1"/>
        <pt x="387" y="426" on="1"/>
        <pt x="387" y="305" on="1"/>
        <pt x="208" y="305" on="1"/>
        <pt x="208" y="121" on="1"/>
        <pt x="447" y="121" on="1"/>
        <pt x="447" y="0" on="1"/>
        <pt x="70" y="0" on="1"/>
        <pt x="70" y="616" on="1"/>
        <pt x="208" y="712" on="1"/>
        <pt x="431" y="712" on="1"/>
        <pt x="431" y="590" on="1"/>
        <pt x="245" y="590" on="1"/>
        <pt x="208" y="564" on="1"/>
      </contour>
      <contour>
        <pt x="361" y="851" on="0"/>
        <pt x="361" y="829" on="0"/>
        <pt x="290" y="768" on="0"/>
        <pt x="270" y="768" on="0"/>
        <pt x="199" y="829" on="0"/>
        <pt x="199" y="851" on="0"/>
        <pt x="271" y="911" on="0"/>
        <pt x="290" y="911" on="0"/>
      </contour>
    </TTGlyph>
    <TTGlyph name="Egrave" xMin="70" yMin="0" xMax="447" yMax="882">
      <contour>
        <pt x="208" y="426" on="1"/>
        <pt x="387" y="426" on="1"/>
        <pt x="387" y="305" on="1"/>
        <pt x="208" y="305" on="1"/>
        <pt x="208" y="121" on="1"/>
        <pt x="447" y="121" on="1"/>
        <pt x="447" y="0" on="1"/>
        <pt x="70" y="0" on="1"/>
        <pt x="70" y="616" on="1"/>
        <pt x="208" y="712" on="1"/>
        <pt x="431" y="712" on="1"/>
        <pt x="431" y="590" on="1"/>
        <pt x="245" y="590" on="1"/>
        <pt x="208" y="564" on="1"/>
      </contour>
      <contour>
        <pt x="295" y="750" on="0"/>
        <pt x="133" y="782" on="0"/>
        <pt x="133" y="806" on="0"/>
        <pt x="173" y="882" on="0"/>
        <pt x="180" y="882" on="1"/>
        <pt x="190" y="882" on="0"/>
        <pt x="333" y="799" on="0"/>
        <pt x="333" y="788" on="0"/>
        <pt x="317" y="750" on="0"/>
        <pt x="313" y="750" on="1"/>
      </contour>
    </TTGlyph>
    <TTGlyph name="Emacron" xMin="70" yMin="0" xMax="447" yMax="862">
      <contour>
        <pt x="208" y="426" on="1"/>
        <pt x="387" y="426" on="1"/>
        <pt x="387" y="305" on="1"/>
        <pt x="208" y="305" on="1"/>
        <pt x="208" y="121" on="1"/>
        <pt x="447" y="121" on="1"/>
        <pt x="447" y="0" on="1"/>
        <pt x="70" y="0" on="1"/>
        <pt x="70" y="616" on="1"/>
        <pt x="208" y="712" on="1"/>
        <pt x="431" y="712" on="1"/>
        <pt x="431" y="590" on="1"/>
        <pt x="245" y="590" on="1"/>
        <pt x="208" y="564" on="1"/>
      </contour>
      <contour>
        <pt x="113" y="769" on="1"/>
        <pt x="113" y="862" on="1"/>
        <pt x="438" y="862" on="1"/>
        <pt x="438" y="769" on="1"/>
      </contour>
    </TTGlyph>
    <TTGlyph name="Eng" xMin="10" yMin="-249" xMax="470" yMax="712">
      <contour>
        <pt x="207" y="529" on="1"/>
        <pt x="208" y="486" on="1"/>
        <pt x="208" y="0" on="1"/>
        <pt x="70" y="0" on="1"/>
        <pt x="70" y="428" on="1"/>
        <pt x="70" y="512" on="0"/>
        <pt x="47" y="580" on="0"/>
        <pt x="10" y="628" on="1"/>
        <pt x="130" y="712" on="1"/>
        <pt x="159" y="693" on="0"/>
        <pt x="184" y="647" on="1"/>
        <pt x="263" y="712" on="0"/>
        <pt x="319" y="712" on="0"/>
        <pt x="440" y="607" on="0"/>
        <pt x="470" y="564" on="0"/>
        <pt x="470" y="529" on="1"/>
        <pt x="470" y="66" on="1"/>
        <pt x="470" y="-58" on="0"/>
        <pt x="430" y="-129" on="0"/>
        <pt x="299" y="-249" on="0"/>
        <pt x="227" y="-249" on="0"/>
        <pt x="110" y="-175" on="0"/>
        <pt x="81" y="-125" on="1"/>
        <pt x="192" y="-47" on="1"/>
        <pt x="239" y="-94" on="0"/>
        <pt x="262" y="-94" on="1"/>
        <pt x="275" y="-94" on="0"/>
        <pt x="309" y="-61" on="0"/>
        <pt x="332" y="-26" on="0"/>
        <pt x="332" y="66" on="1"/>
        <pt x="332" y="509" on="1"/>
        <pt x="332" y="531" on="0"/>
        <pt x="285" y="579" on="0"/>
        <pt x="258" y="579" on="0"/>
        <pt x="218" y="548" on="0"/>
      </contour>
    </TTGlyph>
    <TTGlyph name="Eth" xMin="10" yMin="0" xMax="484" yMax="712">
      <contour>
        <pt x="179" y="660" on="1"/>
        <pt x="245" y="712" on="0"/>
        <pt x="313" y="712" on="0"/>
        <pt x="456" y="581" on="0"/>
        <pt x="473" y="540" on="1"/>
        <pt x="484" y="514" on="0"/>
        <pt x="484" y="409" on="1"/>
        <pt x="484" y="291" on="1"/>
        <pt x="484" y="186" on="0"/>
        <pt x="473" y="160" on="1"/>
        <pt x="455" y="121" on="0"/>
        <pt x="317" y="0" on="0"/>
        <pt x="277" y="0" on="1"/>
        <pt x="70" y="0" on="1"/>
        <pt x="70" y="290" on="1"/>
        <pt x="10" y="290" on="1"/>
        <pt x="10" y="410" on="1"/>
        <pt x="70" y="410" on="1"/>
        <pt x="70" y="428" on="1"/>
        <pt x="70" y="509" on="0"/>
        <pt x="47" y="574" on="0"/>
        <pt x="10" y="619" on="1"/>
        <pt x="142" y="712" on="1"/>
        <pt x="163" y="696" on="0"/>
      </contour>
      <contour>
        <pt x="277" y="569" on="1"/>
        <pt x="248" y="569" on="0"/>
        <pt x="205" y="550" on="1"/>
        <pt x="208" y="529" on="0"/>
        <pt x="208" y="486" on="1"/>
        <pt x="208" y="410" on="1"/>
        <pt x="283" y="410" on="1"/>
        <pt x="283" y="290" on="1"/>
        <pt x="208" y="290" on="1"/>
        <pt x="208" y="121" on="1"/>
        <pt x="277" y="121" on="1"/>
        <pt x="291" y="121" on="0"/>
        <pt x="330" y="162" on="0"/>
        <pt x="346" y="199" on="0"/>
        <pt x="346" y="281" on="1"/>
        <pt x="346" y="409" on="1"/>
        <pt x="346" y="491" on="0"/>
        <pt x="330" y="528" on="0"/>
        <pt x="291" y="569" on="0"/>
      </contour>
    </TTGlyph>
    <TTGlyph name="Euro" xMin="7" yMin="-12" xMax="403" yMax="676">
      <contour>
        <pt x="232" y="-12" on="1"/>
        <pt x="192" y="-12" on="0"/>
        <pt x="37" y="126" on="0"/>
        <pt x="18" y="170" on="1"/>
        <pt x="7" y="189" on="0"/>
        <pt x="7" y="291" on="1"/>
        <pt x="7" y="373" on="1"/>
        <pt x="7" y="475" on="0"/>
        <pt x="18" y="494" on="1"/>
        <pt x="37" y="538" on="0"/>
        <pt x="192" y="676" on="0"/>
        <pt x="232" y="676" on="1"/>
        <pt x="259" y="676" on="0"/>
        <pt x="361" y="604" on="0"/>
        <pt x="402" y="560" on="1"/>
        <pt x="295" y="485" on="1"/>
        <pt x="286" y="500" on="0"/>
        <pt x="246" y="531" on="0"/>
        <pt x="216" y="531" on="0"/>
        <pt x="167" y="482" on="0"/>
        <pt x="153" y="451" on="0"/>
        <pt x="152" y="430" on="1"/>
        <pt x="402" y="430" on="1"/>
        <pt x="402" y="352" on="1"/>
        <pt x="151" y="352" on="1"/>
        <pt x="151" y="312" on="1"/>
        <pt x="402" y="312" on="1"/>
        <pt x="402" y="234" on="1"/>
        <pt x="152" y="234" on="1"/>
        <pt x="154" y="208" on="0"/>
        <pt x="159" y="200" on="1"/>
        <pt x="166" y="180" on="0"/>
        <pt x="215" y="133" on="0"/>
        <pt x="250" y="133" on="0"/>
        <pt x="286" y="164" on="0"/>
        <pt x="296" y="181" on="1"/>
        <pt x="403" y="106" on="1"/>
        <pt x="363" y="62" on="0"/>
        <pt x="260" y="-12" on="0"/>
      </contour>
    </TTGlyph>
    <TTGlyph name="F" xMin="70" yMin="0" xMax="479" yMax="712">
      <contour>
        <pt x="70" y="0" on="1"/>
        <pt x="70" y="399" on="1"/>
        <pt x="70" y="522" on="0"/>
        <pt x="110" y="592" on="0"/>
        <pt x="241" y="712" on="0"/>
        <pt x="273" y="712" on="1"/>
        <pt x="317" y="712" on="0"/>
        <pt x="447" y="642" on="0"/>
        <pt x="479" y="598" on="1"/>
        <pt x="368" y="521" on="1"/>
        <pt x="312" y="577" on="0"/>
        <pt x="278" y="577" on="1"/>
        <pt x="265" y="577" on="0"/>
        <pt x="231" y="544" on="0"/>
        <pt x="208" y="507" on="0"/>
        <pt x="208" y="432" on="1"/>
        <pt x="208" y="409" on="1"/>
        <pt x="387" y="409" on="1"/>
        <pt x="387" y="288" on="1"/>
        <pt x="208" y="288" on="1"/>
        <pt x="208" y="0" on="1"/>
      </contour>
    </TTGlyph>
    <TTGlyph name="G" xMin="25" yMin="-12" xMax="444" yMax="712">
      <contour>
        <pt x="163" y="397" on="1"/>
        <pt x="163" y="291" on="1"/>
        <pt x="163" y="209" on="0"/>
        <pt x="179" y="172" on="0"/>
        <pt x="218" y="131" on="0"/>
        <pt x="248" y="131" on="0"/>
        <pt x="294" y="173" on="0"/>
        <pt x="303" y="190" on="1"/>
        <pt x="309" y="207" on="0"/>
        <pt x="310" y="240" on="1"/>
        <pt x="241" y="240" on="1"/>
        <pt x="241" y="351" on="1"/>
        <pt x="440" y="351" on="1"/>
        <pt x="440" y="0" on="1"/>
        <pt x="343" y="0" on="1"/>
        <pt x="331" y="68" on="1"/>
        <pt x="262" y="-12" on="0"/>
        <pt x="196" y="-12" on="0"/>
        <pt x="53" y="119" on="0"/>
        <pt x="36" y="160" on="1"/>
        <pt x="25" y="186" on="0"/>
        <pt x="25" y="291" on="1"/>
        <pt x="25" y="397" on="1"/>
        <pt x="25" y="522" on="0"/>
        <pt x="65" y="592" on="0"/>
        <pt x="196" y="712" on="0"/>
        <pt x="228" y="712" on="1"/>
        <pt x="283" y="712" on="0"/>
        <pt x="425" y="584" on="0"/>
        <pt x="444" y="508" on="1"/>
        <pt x="333" y="431" on="1"/>
        <pt x="317" y="485" on="0"/>
        <pt x="247" y="577" on="0"/>
        <pt x="233" y="577" on="1"/>
        <pt x="208" y="577" on="0"/>
        <pt x="176" y="528" on="1"/>
        <pt x="163" y="509" on="0"/>
      </contour>
    </TTGlyph>
    <TTGlyph name="Grave" xMin="55" yMin="750" xMax="255" yMax="882">
      <contour>
        <pt x="217" y="750" on="0"/>
        <pt x="55" y="782" on="0"/>
        <pt x="55" y="806" on="0"/>
        <pt x="95" y="882" on="0"/>
        <pt x="102" y="882" on="1"/>
        <pt x="112" y="882" on="0"/>
        <pt x="255" y="799" on="0"/>
        <pt x="255" y="788" on="0"/>
        <pt x="239" y="750" on="0"/>
        <pt x="235" y="750" on="1"/>
      </contour>
    </TTGlyph>
    <TTGlyph name="H" xMin="10" yMin="0" xMax="484" yMax="712">
      <contour>
        <pt x="346" y="0" on="1"/>
        <pt x="346" y="320" on="1"/>
        <pt x="208" y="320" on="1"/>
        <pt x="208" y="0" on="1"/>
        <pt x="70" y="0" on="1"/>
        <pt x="70" y="428" on="1"/>
        <pt x="70" y="513" on="0"/>
        <pt x="47" y="580" on="0"/>
        <pt x="10" y="628" on="1"/>
        <pt x="130" y="712" on="1"/>
        <pt x="162" y="691" on="0"/>
        <pt x="208" y="578" on="0"/>
        <pt x="208" y="498" on="1"/>
        <pt x="208" y="440" on="1"/>
        <pt x="346" y="440" on="1"/>
        <pt x="346" y="700" on="1"/>
        <pt x="484" y="700" on="1"/>
        <pt x="484" y="0" on="1"/>
      </contour>
    </TTGlyph>
    <TTGlyph name="I" xMin="56" yMin="0" xMax="194" yMax="700">
      <contour>
        <pt x="56" y="0" on="1"/>
        <pt x="56" y="700" on="1"/>
        <pt x="194" y="700" on="1"/>
        <pt x="194" y="0" on="1"/>
      </contour>
    </TTGlyph>
    <TTGlyph name="IJ" xMin="56" yMin="-12" xMax="649" yMax="700">
      <contour>
        <pt x="56" y="0" on="1"/>
        <pt x="56" y="700" on="1"/>
        <pt x="194" y="700" on="1"/>
        <pt x="194" y="0" on="1"/>
      </contour>
      <contour>
        <pt x="511" y="700" on="1"/>
        <pt x="649" y="700" on="1"/>
        <pt x="649" y="303" on="1"/>
        <pt x="649" y="178" on="0"/>
        <pt x="609" y="108" on="0"/>
        <pt x="478" y="-12" on="0"/>
        <pt x="405" y="-12" on="0"/>
        <pt x="289" y="74" on="0"/>
        <pt x="260" y="132" on="1"/>
        <pt x="371" y="210" on="1"/>
        <pt x="372" y="209" on="0"/>
        <pt x="387" y="188" on="0"/>
        <pt x="399" y="173" on="0"/>
        <pt x="408" y="164" on="1"/>
        <pt x="427" y="143" on="0"/>
        <pt x="454" y="143" on="0"/>
        <pt x="488" y="176" on="0"/>
        <pt x="511" y="212" on="0"/>
        <pt x="511" y="303" on="1"/>
      </contour>
    </TTGlyph>
    <TTGlyph name="Iacute" xMin="43" yMin="0" xMax="243" yMax="882">
      <contour>
        <pt x="56" y="0" on="1"/>
        <pt x="56" y="700" on="1"/>
        <pt x="194" y="700" on="1"/>
        <pt x="194" y="0" on="1"/>
      </contour>
      <contour>
        <pt x="203" y="882" on="0"/>
        <pt x="243" y="806" on="0"/>
        <pt x="243" y="782" on="0"/>
        <pt x="81" y="750" on="0"/>
        <pt x="63" y="750" on="1"/>
        <pt x="59" y="750" on="0"/>
        <pt x="43" y="788" on="0"/>
        <pt x="43" y="799" on="0"/>
        <pt x="186" y="882" on="0"/>
        <pt x="196" y="882" on="1"/>
      </contour>
    </TTGlyph>
    <TTGlyph name="Icircumflex" xMin="-18" yMin="0" xMax="268" yMax="882">
      <contour>
        <pt x="56" y="0" on="1"/>
        <pt x="56" y="700" on="1"/>
        <pt x="194" y="700" on="1"/>
        <pt x="194" y="0" on="1"/>
      </contour>
      <contour>
        <pt x="268" y="796" on="0"/>
        <pt x="244" y="750" on="0"/>
        <pt x="231" y="750" on="0"/>
        <pt x="125" y="794" on="1"/>
        <pt x="13" y="750" on="0"/>
        <pt x="12" y="750" on="1"/>
        <pt x="7" y="750" on="0"/>
        <pt x="-18" y="796" on="0"/>
        <pt x="-18" y="804" on="1"/>
        <pt x="-18" y="809" on="0"/>
        <pt x="116" y="882" on="0"/>
        <pt x="134" y="882" on="0"/>
        <pt x="268" y="809" on="0"/>
        <pt x="268" y="804" on="1"/>
      </contour>
    </TTGlyph>
    <TTGlyph name="Idieresis" xMin="-47" yMin="0" xMax="299" yMax="880">
      <contour>
        <pt x="56" y="0" on="1"/>
        <pt x="56" y="700" on="1"/>
        <pt x="194" y="700" on="1"/>
        <pt x="194" y="0" on="1"/>
      </contour>
      <contour>
        <pt x="101" y="825" on="0"/>
        <pt x="101" y="805" on="0"/>
        <pt x="36" y="750" on="0"/>
        <pt x="18" y="750" on="0"/>
        <pt x="-47" y="805" on="0"/>
        <pt x="-47" y="825" on="0"/>
        <pt x="19" y="880" on="0"/>
        <pt x="36" y="880" on="0"/>
      </contour>
      <contour>
        <pt x="299" y="825" on="0"/>
        <pt x="299" y="805" on="0"/>
        <pt x="234" y="750" on="0"/>
        <pt x="216" y="750" on="0"/>
        <pt x="151" y="805" on="0"/>
        <pt x="151" y="825" on="0"/>
        <pt x="217" y="880" on="0"/>
        <pt x="234" y="880" on="0"/>
      </contour>
    </TTGlyph>
    <TTGlyph name="Idotaccent" xMin="44" yMin="0" xMax="206" yMax="911">
      <contour>
        <pt x="56" y="0" on="1"/>
        <pt x="56" y="700" on="1"/>
        <pt x="194" y="700" on="1"/>
        <pt x="194" y="0" on="1"/>
      </contour>
      <contour>
        <pt x="206" y="851" on="0"/>
        <pt x="206" y="829" on="0"/>
        <pt x="135" y="768" on="0"/>
        <pt x="115" y="768" on="0"/>
        <pt x="44" y="829" on="0"/>
        <pt x="44" y="851" on="0"/>
        <pt x="116" y="911" on="0"/>
        <pt x="135" y="911" on="0"/>
      </contour>
    </TTGlyph>
    <TTGlyph name="Igrave" xMin="13" yMin="0" xMax="213" yMax="882">
      <contour>
        <pt x="56" y="0" on="1"/>
        <pt x="56" y="700" on="1"/>
        <pt x="194" y="700" on="1"/>
        <pt x="194" y="0" on="1"/>
      </contour>
      <contour>
        <pt x="175" y="750" on="0"/>
        <pt x="13" y="782" on="0"/>
        <pt x="13" y="806" on="0"/>
        <pt x="53" y="882" on="0"/>
        <pt x="60" y="882" on="1"/>
        <pt x="70" y="882" on="0"/>
        <pt x="213" y="799" on="0"/>
        <pt x="213" y="788" on="0"/>
        <pt x="197" y="750" on="0"/>
        <pt x="193" y="750" on="1"/>
      </contour>
    </TTGlyph>
    <TTGlyph name="Imacron" xMin="-37" yMin="0" xMax="288" yMax="862">
      <contour>
        <pt x="56" y="0" on="1"/>
        <pt x="56" y="700" on="1"/>
        <pt x="194" y="700" on="1"/>
        <pt x="194" y="0" on="1"/>
      </contour>
      <contour>
        <pt x="-37" y="769" on="1"/>
        <pt x="-37" y="862" on="1"/>
        <pt x="288" y="862" on="1"/>
        <pt x="288" y="769" on="1"/>
      </contour>
    </TTGlyph>
    <TTGlyph name="Itilde" xMin="-54" yMin="0" xMax="304" yMax="911">
      <contour>
        <pt x="56" y="0" on="1"/>
        <pt x="56" y="700" on="1"/>
        <pt x="194" y="700" on="1"/>
        <pt x="194" y="0" on="1"/>
      </contour>
      <contour>
        <pt x="304" y="860" on="0"/>
        <pt x="181" y="741" on="0"/>
        <pt x="158" y="741" on="0"/>
        <pt x="80" y="801" on="1"/>
        <pt x="2" y="741" on="0"/>
        <pt x="-16" y="741" on="0"/>
        <pt x="-54" y="779" on="0"/>
        <pt x="-54" y="792" on="0"/>
        <pt x="69" y="911" on="0"/>
        <pt x="92" y="911" on="0"/>
        <pt x="170" y="851" on="1"/>
        <pt x="248" y="911" on="0"/>
        <pt x="266" y="911" on="0"/>
        <pt x="304" y="873" on="0"/>
      </contour>
    </TTGlyph>
    <TTGlyph name="J" xMin="10" yMin="-12" xMax="399" yMax="700">
      <contour>
        <pt x="261" y="700" on="1"/>
        <pt x="399" y="700" on="1"/>
        <pt x="399" y="303" on="1"/>
        <pt x="399" y="178" on="0"/>
        <pt x="359" y="108" on="0"/>
        <pt x="228" y="-12" on="0"/>
        <pt x="155" y="-12" on="0"/>
        <pt x="39" y="74" on="0"/>
        <pt x="10" y="132" on="1"/>
        <pt x="121" y="210" on="1"/>
        <pt x="122" y="209" on="0"/>
        <pt x="137" y="188" on="0"/>
        <pt x="149" y="173" on="0"/>
        <pt x="158" y="164" on="1"/>
        <pt x="177" y="143" on="0"/>
        <pt x="204" y="143" on="0"/>
        <pt x="238" y="176" on="0"/>
        <pt x="261" y="212" on="0"/>
        <pt x="261" y="303" on="1"/>
      </contour>
    </TTGlyph>
    <TTGlyph name="Jcircumflex" xMin="10" yMin="-12" xMax="438" yMax="911">
      <contour>
        <pt x="261" y="700" on="1"/>
        <pt x="399" y="700" on="1"/>
        <pt x="399" y="303" on="1"/>
        <pt x="399" y="178" on="0"/>
        <pt x="359" y="108" on="0"/>
        <pt x="228" y="-12" on="0"/>
        <pt x="155" y="-12" on="0"/>
        <pt x="39" y="74" on="0"/>
        <pt x="10" y="132" on="1"/>
        <pt x="121" y="210" on="1"/>
        <pt x="122" y="209" on="0"/>
        <pt x="137" y="188" on="0"/>
        <pt x="149" y="173" on="0"/>
        <pt x="158" y="164" on="1"/>
        <pt x="177" y="143" on="0"/>
        <pt x="204" y="143" on="0"/>
        <pt x="238" y="176" on="0"/>
        <pt x="261" y="212" on="0"/>
        <pt x="261" y="303" on="1"/>
      </contour>
      <contour>
        <pt x="304" y="801" on="1"/>
        <pt x="226" y="741" on="0"/>
        <pt x="208" y="741" on="0"/>
        <pt x="170" y="779" on="0"/>
        <pt x="170" y="792" on="0"/>
        <pt x="293" y="911" on="0"/>
        <pt x="315" y="911" on="0"/>
        <pt x="438" y="792" on="0"/>
        <pt x="438" y="779" on="0"/>
        <pt x="400" y="741" on="0"/>
        <pt x="382" y="741" on="0"/>
      </contour>
    </TTGlyph>
    <TTGlyph name="K" xMin="10" yMin="0" xMax="485" yMax="712">
      <contour>
        <pt x="208" y="498" on="1"/>
        <pt x="208" y="440" on="1"/>
        <pt x="238" y="440" on="1"/>
        <pt x="255" y="440" on="0"/>
        <pt x="292" y="477" on="0"/>
        <pt x="311" y="510" on="0"/>
        <pt x="331" y="667" on="0"/>
        <pt x="331" y="700" on="1"/>
        <pt x="469" y="700" on="1"/>
        <pt x="469" y="661" on="0"/>
        <pt x="447" y="495" on="0"/>
        <pt x="438" y="476" on="1"/>
        <pt x="423" y="443" on="0"/>
        <pt x="362" y="387" on="1"/>
        <pt x="433" y="326" on="0"/>
        <pt x="454" y="284" on="1"/>
        <pt x="464" y="263" on="0"/>
        <pt x="485" y="52" on="0"/>
        <pt x="485" y="0" on="1"/>
        <pt x="347" y="0" on="1"/>
        <pt x="347" y="47" on="0"/>
        <pt x="328" y="248" on="0"/>
        <pt x="319" y="264" on="1"/>
        <pt x="288" y="320" on="0"/>
        <pt x="246" y="320" on="1"/>
        <pt x="208" y="320" on="1"/>
        <pt x="208" y="0" on="1"/>
        <pt x="70" y="0" on="1"/>
        <pt x="70" y="438" on="1"/>
        <pt x="70" y="519" on="0"/>
        <pt x="47" y="582" on="0"/>
        <pt x="10" y="628" on="1"/>
        <pt x="130" y="712" on="1"/>
        <pt x="162" y="691" on="0"/>
        <pt x="208" y="578" on="0"/>
      </contour>
    </TTGlyph>
    <TTGlyph name="L" xMin="15" yMin="0" xMax="380" yMax="700">
      <contour>
        <pt x="380" y="120" on="1"/>
        <pt x="380" y="0" on="1"/>
        <pt x="15" y="0" on="1"/>
        <pt x="15" y="700" on="1"/>
        <pt x="153" y="700" on="1"/>
        <pt x="153" y="120" on="1"/>
      </contour>
    </TTGlyph>
    <TTGlyph name="Ldotaccent" xMin="70" yMin="0" xMax="439" yMax="700">
      <contour>
        <pt x="435" y="120" on="1"/>
        <pt x="435" y="0" on="1"/>
        <pt x="70" y="0" on="1"/>
        <pt x="70" y="700" on="1"/>
        <pt x="208" y="700" on="1"/>
        <pt x="208" y="120" on="1"/>
      </contour>
      <contour>
        <pt x="439" y="318" on="0"/>
        <pt x="439" y="296" on="0"/>
        <pt x="368" y="235" on="0"/>
        <pt x="348" y="235" on="0"/>
        <pt x="277" y="296" on="0"/>
        <pt x="277" y="318" on="0"/>
        <pt x="349" y="378" on="0"/>
        <pt x="368" y="378" on="0"/>
      </contour>
    </TTGlyph>
    <TTGlyph name="Lslash" xMin="-15" yMin="0" xMax="435" yMax="700">
      <contour>
        <pt x="435" y="120" on="1"/>
        <pt x="435" y="0" on="1"/>
        <pt x="70" y="0" on="1"/>
        <pt x="70" y="234" on="1"/>
        <pt x="48" y="220" on="0"/>
        <pt x="39" y="220" on="0"/>
        <pt x="-15" y="260" on="0"/>
        <pt x="-15" y="267" on="1"/>
        <pt x="6" y="287" on="0"/>
        <pt x="70" y="333" on="1"/>
        <pt x="70" y="700" on="1"/>
        <pt x="208" y="700" on="1"/>
        <pt x="208" y="429" on="1"/>
        <pt x="246" y="454" on="0"/>
        <pt x="256" y="454" on="0"/>
        <pt x="309" y="414" on="0"/>
        <pt x="309" y="407" on="1"/>
        <pt x="273" y="374" on="0"/>
        <pt x="208" y="328" on="1"/>
        <pt x="208" y="120" on="1"/>
      </contour>
    </TTGlyph>
    <TTGlyph name="M" xMin="10" yMin="0" xMax="684" yMax="712">
      <contour>
        <pt x="310" y="0" on="1"/>
        <pt x="310" y="509" on="1"/>
        <pt x="310" y="526" on="0"/>
        <pt x="297" y="549" on="0"/>
        <pt x="267" y="579" on="0"/>
        <pt x="258" y="579" on="1"/>
        <pt x="238" y="579" on="0"/>
        <pt x="205" y="539" on="1"/>
        <pt x="208" y="514" on="0"/>
        <pt x="208" y="486" on="1"/>
        <pt x="208" y="0" on="1"/>
        <pt x="70" y="0" on="1"/>
        <pt x="70" y="428" on="1"/>
        <pt x="70" y="513" on="0"/>
        <pt x="47" y="581" on="0"/>
        <pt x="10" y="628" on="1"/>
        <pt x="130" y="712" on="1"/>
        <pt x="162" y="689" on="0"/>
        <pt x="176" y="657" on="1"/>
        <pt x="248" y="712" on="0"/>
        <pt x="308" y="712" on="0"/>
        <pt x="391" y="635" on="1"/>
        <pt x="474" y="712" on="0"/>
        <pt x="508" y="712" on="1"/>
        <pt x="533" y="712" on="0"/>
        <pt x="654" y="607" on="0"/>
        <pt x="684" y="564" on="0"/>
        <pt x="684" y="529" on="1"/>
        <pt x="684" y="0" on="1"/>
        <pt x="546" y="0" on="1"/>
        <pt x="546" y="509" on="1"/>
        <pt x="546" y="528" on="0"/>
        <pt x="532" y="549" on="0"/>
        <pt x="499" y="579" on="0"/>
        <pt x="474" y="579" on="0"/>
        <pt x="447" y="546" on="1"/>
        <pt x="448" y="541" on="0"/>
        <pt x="448" y="529" on="1"/>
        <pt x="448" y="0" on="1"/>
      </contour>
    </TTGlyph>
    <TTGlyph name="N" xMin="10" yMin="0" xMax="470" yMax="712">
      <contour>
        <pt x="207" y="529" on="1"/>
        <pt x="208" y="486" on="1"/>
        <pt x="208" y="0" on="1"/>
        <pt x="70" y="0" on="1"/>
        <pt x="70" y="428" on="1"/>
        <pt x="70" y="512" on="0"/>
        <pt x="47" y="580" on="0"/>
        <pt x="10" y="628" on="1"/>
        <pt x="130" y="712" on="1"/>
        <pt x="159" y="693" on="0"/>
        <pt x="184" y="647" on="1"/>
        <pt x="263" y="712" on="0"/>
        <pt x="319" y="712" on="0"/>
        <pt x="440" y="607" on="0"/>
        <pt x="470" y="564" on="0"/>
        <pt x="470" y="529" on="1"/>
        <pt x="470" y="0" on="1"/>
        <pt x="331" y="0" on="1"/>
        <pt x="331" y="509" on="1"/>
        <pt x="331" y="518" on="0"/>
        <pt x="316" y="545" on="0"/>
        <pt x="285" y="579" on="0"/>
        <pt x="258" y="579" on="0"/>
        <pt x="218" y="548" on="0"/>
      </contour>
    </TTGlyph>
    <TTGlyph name="Nacute" xMin="10" yMin="0" xMax="470" yMax="882">
      <contour>
        <pt x="207" y="529" on="1"/>
        <pt x="208" y="486" on="1"/>
        <pt x="208" y="0" on="1"/>
        <pt x="70" y="0" on="1"/>
        <pt x="70" y="428" on="1"/>
        <pt x="70" y="512" on="0"/>
        <pt x="47" y="580" on="0"/>
        <pt x="10" y="628" on="1"/>
        <pt x="130" y="712" on="1"/>
        <pt x="159" y="693" on="0"/>
        <pt x="184" y="647" on="1"/>
        <pt x="263" y="712" on="0"/>
        <pt x="319" y="712" on="0"/>
        <pt x="440" y="607" on="0"/>
        <pt x="470" y="564" on="0"/>
        <pt x="470" y="529" on="1"/>
        <pt x="470" y="0" on="1"/>
        <pt x="331" y="0" on="1"/>
        <pt x="331" y="509" on="1"/>
        <pt x="331" y="518" on="0"/>
        <pt x="316" y="545" on="0"/>
        <pt x="285" y="579" on="0"/>
        <pt x="258" y="579" on="0"/>
        <pt x="218" y="548" on="0"/>
      </contour>
      <contour>
        <pt x="323" y="882" on="0"/>
        <pt x="363" y="806" on="0"/>
        <pt x="363" y="782" on="0"/>
        <pt x="201" y="750" on="0"/>
        <pt x="183" y="750" on="1"/>
        <pt x="179" y="750" on="0"/>
        <pt x="163" y="788" on="0"/>
        <pt x="163" y="799" on="0"/>
        <pt x="306" y="882" on="0"/>
        <pt x="316" y="882" on="1"/>
      </contour>
    </TTGlyph>
    <TTGlyph name="Ntilde" xMin="10" yMin="0" xMax="470" yMax="911">
      <contour>
        <pt x="207" y="529" on="1"/>
        <pt x="208" y="486" on="1"/>
        <pt x="208" y="0" on="1"/>
        <pt x="70" y="0" on="1"/>
        <pt x="70" y="428" on="1"/>
        <pt x="70" y="512" on="0"/>
        <pt x="47" y="580" on="0"/>
        <pt x="10" y="628" on="1"/>
        <pt x="130" y="712" on="1"/>
        <pt x="159" y="693" on="0"/>
        <pt x="184" y="647" on="1"/>
        <pt x="263" y="712" on="0"/>
        <pt x="319" y="712" on="0"/>
        <pt x="440" y="607" on="0"/>
        <pt x="470" y="564" on="0"/>
        <pt x="470" y="529" on="1"/>
        <pt x="470" y="0" on="1"/>
        <pt x="331" y="0" on="1"/>
        <pt x="331" y="509" on="1"/>
        <pt x="331" y="518" on="0"/>
        <pt x="316" y="545" on="0"/>
        <pt x="285" y="579" on="0"/>
        <pt x="258" y="579" on="0"/>
        <pt x="218" y="548" on="0"/>
      </contour>
      <contour>
        <pt x="439" y="860" on="0"/>
        <pt x="316" y="741" on="0"/>
        <pt x="293" y="741" on="0"/>
        <pt x="215" y="801" on="1"/>
        <pt x="137" y="741" on="0"/>
        <pt x="119" y="741" on="0"/>
        <pt x="81" y="779" on="0"/>
        <pt x="81" y="792" on="0"/>
        <pt x="204" y="911" on="0"/>
        <pt x="227" y="911" on="0"/>
        <pt x="305" y="851" on="1"/>
        <pt x="383" y="911" on="0"/>
        <pt x="401" y="911" on="0"/>
        <pt x="439" y="873" on="0"/>
      </contour>
    </TTGlyph>
    <TTGlyph name="O" xMin="25" yMin="-12" xMax="439" yMax="712">
      <contour>
        <pt x="268" y="-12" on="0"/>
        <pt x="196" y="-12" on="0"/>
        <pt x="53" y="119" on="0"/>
        <pt x="36" y="160" on="1"/>
        <pt x="25" y="186" on="0"/>
        <pt x="25" y="291" on="1"/>
        <pt x="25" y="409" on="1"/>
        <pt x="25" y="514" on="0"/>
        <pt x="36" y="540" on="1"/>
        <pt x="53" y="581" on="0"/>
        <pt x="196" y="712" on="0"/>
        <pt x="268" y="712" on="0"/>
        <pt x="411" y="581" on="0"/>
        <pt x="428" y="540" on="1"/>
        <pt x="439" y="514" on="0"/>
        <pt x="439" y="409" on="1"/>
        <pt x="439" y="291" on="1"/>
        <pt x="439" y="186" on="0"/>
        <pt x="428" y="160" on="1"/>
        <pt x="411" y="119" on="0"/>
      </contour>
      <contour>
        <pt x="218" y="131" on="0"/>
        <pt x="246" y="131" on="0"/>
        <pt x="285" y="172" on="0"/>
        <pt x="301" y="209" on="0"/>
        <pt x="301" y="291" on="1"/>
        <pt x="301" y="409" on="1"/>
        <pt x="301" y="491" on="0"/>
        <pt x="285" y="528" on="0"/>
        <pt x="246" y="569" on="0"/>
        <pt x="218" y="569" on="0"/>
        <pt x="179" y="528" on="0"/>
        <pt x="163" y="491" on="0"/>
        <pt x="163" y="409" on="1"/>
        <pt x="163" y="291" on="1"/>
        <pt x="163" y="209" on="0"/>
        <pt x="179" y="172" on="0"/>
      </contour>
    </TTGlyph>
    <TTGlyph name="OE" xMin="25" yMin="-12" xMax="678" yMax="712">
      <contour>
        <pt x="439" y="426" on="1"/>
        <pt x="618" y="426" on="1"/>
        <pt x="618" y="305" on="1"/>
        <pt x="439" y="305" on="1"/>
        <pt x="439" y="121" on="1"/>
        <pt x="678" y="121" on="1"/>
        <pt x="678" y="0" on="1"/>
        <pt x="321" y="0" on="1"/>
        <pt x="321" y="51" on="1"/>
        <pt x="262" y="-12" on="0"/>
        <pt x="196" y="-12" on="0"/>
        <pt x="53" y="119" on="0"/>
        <pt x="36" y="160" on="1"/>
        <pt x="25" y="186" on="0"/>
        <pt x="25" y="291" on="1"/>
        <pt x="25" y="409" on="1"/>
        <pt x="25" y="514" on="0"/>
        <pt x="36" y="540" on="1"/>
        <pt x="53" y="581" on="0"/>
        <pt x="196" y="712" on="0"/>
        <pt x="270" y="712" on="0"/>
        <pt x="348" y="638" on="1"/>
        <pt x="454" y="712" on="1"/>
        <pt x="662" y="712" on="1"/>
        <pt x="662" y="590" on="1"/>
        <pt x="491" y="590" on="1"/>
        <pt x="439" y="554" on="1"/>
      </contour>
      <contour>
        <pt x="179" y="172" on="0"/>
        <pt x="218" y="131" on="0"/>
        <pt x="247" y="131" on="0"/>
        <pt x="294" y="170" on="0"/>
        <pt x="301" y="191" on="1"/>
        <pt x="301" y="409" on="1"/>
        <pt x="301" y="491" on="0"/>
        <pt x="285" y="528" on="0"/>
        <pt x="246" y="569" on="0"/>
        <pt x="218" y="569" on="0"/>
        <pt x="179" y="528" on="0"/>
        <pt x="163" y="491" on="0"/>
        <pt x="163" y="409" on="1"/>
        <pt x="163" y="291" on="1"/>
        <pt x="163" y="209" on="0"/>
      </contour>
    </TTGlyph>
    <TTGlyph name="Oacute" xMin="25" yMin="-12" xMax="439" yMax="882">
      <contour>
        <pt x="268" y="-12" on="0"/>
        <pt x="196" y="-12" on="0"/>
        <pt x="53" y="119" on="0"/>
        <pt x="36" y="160" on="1"/>
        <pt x="25" y="186" on="0"/>
        <pt x="25" y="291" on="1"/>
        <pt x="25" y="409" on="1"/>
        <pt x="25" y="514" on="0"/>
        <pt x="36" y="540" on="1"/>
        <pt x="53" y="581" on="0"/>
        <pt x="196" y="712" on="0"/>
        <pt x="268" y="712" on="0"/>
        <pt x="411" y="581" on="0"/>
        <pt x="428" y="540" on="1"/>
        <pt x="439" y="514" on="0"/>
        <pt x="439" y="409" on="1"/>
        <pt x="439" y="291" on="1"/>
        <pt x="439" y="186" on="0"/>
        <pt x="428" y="160" on="1"/>
        <pt x="411" y="119" on="0"/>
      </contour>
      <contour>
        <pt x="218" y="131" on="0"/>
        <pt x="246" y="131" on="0"/>
        <pt x="285" y="172" on="0"/>
        <pt x="301" y="209" on="0"/>
        <pt x="301" y="291" on="1"/>
        <pt x="301" y="409" on="1"/>
        <pt x="301" y="491" on="0"/>
        <pt x="285" y="528" on="0"/>
        <pt x="246" y="569" on="0"/>
        <pt x="218" y="569" on="0"/>
        <pt x="179" y="528" on="0"/>
        <pt x="163" y="491" on="0"/>
        <pt x="163" y="409" on="1"/>
        <pt x="163" y="291" on="1"/>
        <pt x="163" y="209" on="0"/>
        <pt x="179" y="172" on="0"/>
      </contour>
      <contour>
        <pt x="323" y="882" on="0"/>
        <pt x="363" y="806" on="0"/>
        <pt x="363" y="782" on="0"/>
        <pt x="201" y="750" on="0"/>
        <pt x="183" y="750" on="1"/>
        <pt x="179" y="750" on="0"/>
        <pt x="163" y="788" on="0"/>
        <pt x="163" y="799" on="0"/>
        <pt x="306" y="882" on="0"/>
        <pt x="316" y="882" on="1"/>
      </contour>
    </TTGlyph>
    <TTGlyph name="Ocircumflex" xMin="25" yMin="-12" xMax="439" yMax="882">
      <contour>
        <pt x="268" y="-12" on="0"/>
        <pt x="196" y="-12" on="0"/>
        <pt x="53" y="119" on="0"/>
        <pt x="36" y="160" on="1"/>
        <pt x="25" y="186" on="0"/>
        <pt x="25" y="291" on="1"/>
        <pt x="25" y="409" on="1"/>
        <pt x="25" y="514" on="0"/>
        <pt x="36" y="540" on="1"/>
        <pt x="53" y="581" on="0"/>
        <pt x="196" y="712" on="0"/>
        <pt x="268" y="712" on="0"/>
        <pt x="411" y="581" on="0"/>
        <pt x="428" y="540" on="1"/>
        <pt x="439" y="514" on="0"/>
        <pt x="439" y="409" on="1"/>
        <pt x="439" y="291" on="1"/>
        <pt x="439" y="186" on="0"/>
        <pt x="428" y="160" on="1"/>
        <pt x="411" y="119" on="0"/>
      </contour>
      <contour>
        <pt x="218" y="131" on="0"/>
        <pt x="246" y="131" on="0"/>
        <pt x="285" y="172" on="0"/>
        <pt x="301" y="209" on="0"/>
        <pt x="301" y="291" on="1"/>
        <pt x="301" y="409" on="1"/>
        <pt x="301" y="491" on="0"/>
        <pt x="285" y="528" on="0"/>
        <pt x="246" y="569" on="0"/>
        <pt x="218" y="569" on="0"/>
        <pt x="179" y="528" on="0"/>
        <pt x="163" y="491" on="0"/>
        <pt x="163" y="409" on="1"/>
        <pt x="163" y="291" on="1"/>
        <pt x="163" y="209" on="0"/>
        <pt x="179" y="172" on="0"/>
      </contour>
      <contour>
        <pt x="376" y="796" on="0"/>
        <pt x="352" y="750" on="0"/>
        <pt x="339" y="750" on="0"/>
        <pt x="233" y="794" on="1"/>
        <pt x="121" y="750" on="0"/>
        <pt x="120" y="750" on="1"/>
        <pt x="115" y="750" on="0"/>
        <pt x="90" y="796" on="0"/>
        <pt x="90" y="804" on="1"/>
        <pt x="90" y="809" on="0"/>
        <pt x="224" y="882" on="0"/>
        <pt x="242" y="882" on="0"/>
        <pt x="376" y="809" on="0"/>
        <pt x="376" y="804" on="1"/>
      </contour>
    </TTGlyph>
    <TTGlyph name="Odieresis" xMin="25" yMin="-12" xMax="439" yMax="880">
      <contour>
        <pt x="268" y="-12" on="0"/>
        <pt x="196" y="-12" on="0"/>
        <pt x="53" y="119" on="0"/>
        <pt x="36" y="160" on="1"/>
        <pt x="25" y="186" on="0"/>
        <pt x="25" y="291" on="1"/>
        <pt x="25" y="409" on="1"/>
        <pt x="25" y="514" on="0"/>
        <pt x="36" y="540" on="1"/>
        <pt x="53" y="581" on="0"/>
        <pt x="196" y="712" on="0"/>
        <pt x="268" y="712" on="0"/>
        <pt x="411" y="581" on="0"/>
        <pt x="428" y="540" on="1"/>
        <pt x="439" y="514" on="0"/>
        <pt x="439" y="409" on="1"/>
        <pt x="439" y="291" on="1"/>
        <pt x="439" y="186" on="0"/>
        <pt x="428" y="160" on="1"/>
        <pt x="411" y="119" on="0"/>
      </contour>
      <contour>
        <pt x="218" y="131" on="0"/>
        <pt x="246" y="131" on="0"/>
        <pt x="285" y="172" on="0"/>
        <pt x="301" y="209" on="0"/>
        <pt x="301" y="291" on="1"/>
        <pt x="301" y="409" on="1"/>
        <pt x="301" y="491" on="0"/>
        <pt x="285" y="528" on="0"/>
        <pt x="246" y="569" on="0"/>
        <pt x="218" y="569" on="0"/>
        <pt x="179" y="528" on="0"/>
        <pt x="163" y="491" on="0"/>
        <pt x="163" y="409" on="1"/>
        <pt x="163" y="291" on="1"/>
        <pt x="163" y="209" on="0"/>
        <pt x="179" y="172" on="0"/>
      </contour>
      <contour>
        <pt x="207" y="825" on="0"/>
        <pt x="207" y="805" on="0"/>
        <pt x="142" y="750" on="0"/>
        <pt x="124" y="750" on="0"/>
        <pt x="59" y="805" on="0"/>
        <pt x="59" y="825" on="0"/>
        <pt x="125" y="880" on="0"/>
        <pt x="142" y="880" on="0"/>
      </contour>
      <contour>
        <pt x="405" y="825" on="0"/>
        <pt x="405" y="805" on="0"/>
        <pt x="340" y="750" on="0"/>
        <pt x="322" y="750" on="0"/>
        <pt x="257" y="805" on="0"/>
        <pt x="257" y="825" on="0"/>
        <pt x="323" y="880" on="0"/>
        <pt x="340" y="880" on="0"/>
      </contour>
    </TTGlyph>
    <TTGlyph name="Ograve" xMin="25" yMin="-12" xMax="439" yMax="882">
      <contour>
        <pt x="268" y="-12" on="0"/>
        <pt x="196" y="-12" on="0"/>
        <pt x="53" y="119" on="0"/>
        <pt x="36" y="160" on="1"/>
        <pt x="25" y="186" on="0"/>
        <pt x="25" y="291" on="1"/>
        <pt x="25" y="409" on="1"/>
        <pt x="25" y="514" on="0"/>
        <pt x="36" y="540" on="1"/>
        <pt x="53" y="581" on="0"/>
        <pt x="196" y="712" on="0"/>
        <pt x="268" y="712" on="0"/>
        <pt x="411" y="581" on="0"/>
        <pt x="428" y="540" on="1"/>
        <pt x="439" y="514" on="0"/>
        <pt x="439" y="409" on="1"/>
        <pt x="439" y="291" on="1"/>
        <pt x="439" y="186" on="0"/>
        <pt x="428" y="160" on="1"/>
        <pt x="411" y="119" on="0"/>
      </contour>
      <contour>
        <pt x="218" y="131" on="0"/>
        <pt x="246" y="131" on="0"/>
        <pt x="285" y="172" on="0"/>
        <pt x="301" y="209" on="0"/>
        <pt x="301" y="291" on="1"/>
        <pt x="301" y="409" on="1"/>
        <pt x="301" y="491" on="0"/>
        <pt x="285" y="528" on="0"/>
        <pt x="246" y="569" on="0"/>
        <pt x="218" y="569" on="0"/>
        <pt x="179" y="528" on="0"/>
        <pt x="163" y="491" on="0"/>
        <pt x="163" y="409" on="1"/>
        <pt x="163" y="291" on="1"/>
        <pt x="163" y="209" on="0"/>
        <pt x="179" y="172" on="0"/>
      </contour>
      <contour>
        <pt x="265" y="750" on="0"/>
        <pt x="103" y="782" on="0"/>
        <pt x="103" y="806" on="0"/>
        <pt x="143" y="882" on="0"/>
        <pt x="150" y="882" on="1"/>
        <pt x="160" y="882" on="0"/>
        <pt x="303" y="799" on="0"/>
        <pt x="303" y="788" on="0"/>
        <pt x="287" y="750" on="0"/>
        <pt x="283" y="750" on="1"/>
      </contour>
    </TTGlyph>
    <TTGlyph name="Omacron" xMin="25" yMin="-12" xMax="439" yMax="862">
      <contour>
        <pt x="268" y="-12" on="0"/>
        <pt x="196" y="-12" on="0"/>
        <pt x="53" y="119" on="0"/>
        <pt x="36" y="160" on="1"/>
        <pt x="25" y="186" on="0"/>
        <pt x="25" y="291" on="1"/>
        <pt x="25" y="409" on="1"/>
        <pt x="25" y="514" on="0"/>
        <pt x="36" y="540" on="1"/>
        <pt x="53" y="581" on="0"/>
        <pt x="196" y="712" on="0"/>
        <pt x="268" y="712" on="0"/>
        <pt x="411" y="581" on="0"/>
        <pt x="428" y="540" on="1"/>
        <pt x="439" y="514" on="0"/>
        <pt x="439" y="409" on="1"/>
        <pt x="439" y="291" on="1"/>
        <pt x="439" y="186" on="0"/>
        <pt x="428" y="160" on="1"/>
        <pt x="411" y="119" on="0"/>
      </contour>
      <contour>
        <pt x="218" y="131" on="0"/>
        <pt x="246" y="131" on="0"/>
        <pt x="285" y="172" on="0"/>
        <pt x="301" y="209" on="0"/>
        <pt x="301" y="291" on="1"/>
        <pt x="301" y="409" on="1"/>
        <pt x="301" y="491" on="0"/>
        <pt x="285" y="528" on="0"/>
        <pt x="246" y="569" on="0"/>
        <pt x="218" y="569" on="0"/>
        <pt x="179" y="528" on="0"/>
        <pt x="163" y="491" on="0"/>
        <pt x="163" y="409" on="1"/>
        <pt x="163" y="291" on="1"/>
        <pt x="163" y="209" on="0"/>
        <pt x="179" y="172" on="0"/>
      </contour>
      <contour>
        <pt x="69" y="769" on="1"/>
        <pt x="69" y="862" on="1"/>
        <pt x="394" y="862" on="1"/>
        <pt x="394" y="769" on="1"/>
      </contour>
    </TTGlyph>
    <TTGlyph name="Oslash" xMin="25" yMin="-12" xMax="439" yMax="712">
      <contour>
        <pt x="411" y="119" on="0"/>
        <pt x="268" y="-12" on="0"/>
        <pt x="191" y="-12" on="0"/>
        <pt x="109" y="68" on="1"/>
        <pt x="67" y="-12" on="1"/>
        <pt x="62" y="-12" on="0"/>
        <pt x="38" y="6" on="0"/>
        <pt x="38" y="10" on="1"/>
        <pt x="56" y="47" on="0"/>
        <pt x="81" y="97" on="1"/>
        <pt x="44" y="140" on="0"/>
        <pt x="25" y="186" on="0"/>
        <pt x="25" y="291" on="1"/>
        <pt x="25" y="409" on="1"/>
        <pt x="25" y="514" on="0"/>
        <pt x="36" y="540" on="1"/>
        <pt x="53" y="581" on="0"/>
        <pt x="196" y="712" on="0"/>
        <pt x="271" y="712" on="0"/>
        <pt x="355" y="632" on="1"/>
        <pt x="395" y="712" on="0"/>
        <pt x="397" y="712" on="1"/>
        <pt x="402" y="712" on="0"/>
        <pt x="426" y="695" on="0"/>
        <pt x="426" y="688" on="0"/>
        <pt x="382" y="603" on="1"/>
        <pt x="417" y="565" on="0"/>
        <pt x="439" y="514" on="0"/>
        <pt x="439" y="409" on="1"/>
        <pt x="439" y="291" on="1"/>
        <pt x="439" y="186" on="0"/>
        <pt x="428" y="160" on="1"/>
      </contour>
      <contour>
        <pt x="218" y="127" on="0"/>
        <pt x="246" y="127" on="0"/>
        <pt x="288" y="168" on="0"/>
        <pt x="305" y="206" on="0"/>
        <pt x="305" y="291" on="1"/>
        <pt x="305" y="409" on="1"/>
        <pt x="305" y="437" on="0"/>
        <pt x="304" y="450" on="1"/>
        <pt x="168" y="184" on="1"/>
        <pt x="178" y="166" on="0"/>
      </contour>
      <contour>
        <pt x="159" y="251" on="1"/>
        <pt x="296" y="516" on="1"/>
        <pt x="287" y="534" on="0"/>
        <pt x="246" y="573" on="0"/>
        <pt x="217" y="573" on="0"/>
        <pt x="176" y="532" on="0"/>
        <pt x="159" y="494" on="0"/>
        <pt x="159" y="409" on="1"/>
      </contour>
    </TTGlyph>
    <TTGlyph name="Otilde" xMin="25" yMin="-12" xMax="439" yMax="911">
      <contour>
        <pt x="268" y="-12" on="0"/>
        <pt x="196" y="-12" on="0"/>
        <pt x="53" y="119" on="0"/>
        <pt x="36" y="160" on="1"/>
        <pt x="25" y="186" on="0"/>
        <pt x="25" y="291" on="1"/>
        <pt x="25" y="409" on="1"/>
        <pt x="25" y="514" on="0"/>
        <pt x="36" y="540" on="1"/>
        <pt x="53" y="581" on="0"/>
        <pt x="196" y="712" on="0"/>
        <pt x="268" y="712" on="0"/>
        <pt x="411" y="581" on="0"/>
        <pt x="428" y="540" on="1"/>
        <pt x="439" y="514" on="0"/>
        <pt x="439" y="409" on="1"/>
        <pt x="439" y="291" on="1"/>
        <pt x="439" y="186" on="0"/>
        <pt x="428" y="160" on="1"/>
        <pt x="411" y="119" on="0"/>
      </contour>
      <contour>
        <pt x="218" y="131" on="0"/>
        <pt x="246" y="131" on="0"/>
        <pt x="285" y="172" on="0"/>
        <pt x="301" y="209" on="0"/>
        <pt x="301" y="291" on="1"/>
        <pt x="301" y="409" on="1"/>
        <pt x="301" y="491" on="0"/>
        <pt x="285" y="528" on="0"/>
        <pt x="246" y="569" on="0"/>
        <pt x="218" y="569" on="0"/>
        <pt x="179" y="528" on="0"/>
        <pt x="163" y="491" on="0"/>
        <pt x="163" y="409" on="1"/>
        <pt x="163" y="291" on="1"/>
        <pt x="163" y="209" on="0"/>
        <pt x="179" y="172" on="0"/>
      </contour>
      <contour>
        <pt x="411" y="860" on="0"/>
        <pt x="288" y="741" on="0"/>
        <pt x="265" y="741" on="0"/>
        <pt x="187" y="801" on="1"/>
        <pt x="109" y="741" on="0"/>
        <pt x="91" y="741" on="0"/>
        <pt x="53" y="779" on="0"/>
        <pt x="53" y="792" on="0"/>
        <pt x="176" y="911" on="0"/>
        <pt x="199" y="911" on="0"/>
        <pt x="277" y="851" on="1"/>
        <pt x="355" y="911" on="0"/>
        <pt x="373" y="911" on="0"/>
        <pt x="411" y="873" on="0"/>
      </contour>
    </TTGlyph>
    <TTGlyph name="P" xMin="10" yMin="0" xMax="485" yMax="712">
      <contour>
        <pt x="253" y="339" on="1"/>
        <pt x="273" y="339" on="1"/>
        <pt x="292" y="339" on="0"/>
        <pt x="343" y="376" on="0"/>
        <pt x="357" y="420" on="0"/>
        <pt x="357" y="494" on="0"/>
        <pt x="343" y="543" on="0"/>
        <pt x="292" y="579" on="0"/>
        <pt x="245" y="579" on="0"/>
        <pt x="205" y="553" on="1"/>
        <pt x="208" y="520" on="0"/>
        <pt x="208" y="486" on="1"/>
        <pt x="208" y="0" on="1"/>
        <pt x="70" y="0" on="1"/>
        <pt x="70" y="428" on="1"/>
        <pt x="70" y="512" on="0"/>
        <pt x="47" y="581" on="0"/>
        <pt x="10" y="627" on="1"/>
        <pt x="130" y="712" on="1"/>
        <pt x="156" y="694" on="0"/>
        <pt x="176" y="653" on="1"/>
        <pt x="258" y="712" on="0"/>
        <pt x="328" y="712" on="0"/>
        <pt x="452" y="600" on="0"/>
        <pt x="474" y="562" on="1"/>
        <pt x="485" y="548" on="0"/>
        <pt x="485" y="382" on="0"/>
        <pt x="474" y="360" on="1"/>
        <pt x="452" y="322" on="0"/>
        <pt x="328" y="210" on="0"/>
        <pt x="293" y="210" on="1"/>
        <pt x="253" y="210" on="1"/>
      </contour>
    </TTGlyph>
    <TTGlyph name="Q" xMin="25" yMin="-129" xMax="500" yMax="712">
      <contour>
        <pt x="25" y="261" on="1"/>
        <pt x="25" y="409" on="1"/>
        <pt x="25" y="514" on="0"/>
        <pt x="36" y="540" on="1"/>
        <pt x="53" y="581" on="0"/>
        <pt x="196" y="712" on="0"/>
        <pt x="268" y="712" on="0"/>
        <pt x="411" y="581" on="0"/>
        <pt x="428" y="540" on="1"/>
        <pt x="439" y="514" on="0"/>
        <pt x="439" y="409" on="1"/>
        <pt x="439" y="291" on="1"/>
        <pt x="439" y="186" on="0"/>
        <pt x="420" y="140" on="0"/>
        <pt x="343" y="61" on="0"/>
        <pt x="301" y="41" on="1"/>
        <pt x="346" y="8" on="0"/>
        <pt x="358" y="8" on="1"/>
        <pt x="382" y="8" on="0"/>
        <pt x="407" y="36" on="1"/>
        <pt x="500" y="-29" on="1"/>
        <pt x="462" y="-69" on="0"/>
        <pt x="381" y="-129" on="0"/>
        <pt x="358" y="-129" on="1"/>
        <pt x="322" y="-129" on="0"/>
        <pt x="178" y="-34" on="0"/>
        <pt x="108" y="37" on="1"/>
        <pt x="132" y="54" on="0"/>
        <pt x="200" y="101" on="0"/>
        <pt x="229" y="122" on="0"/>
        <pt x="247" y="137" on="1"/>
        <pt x="277" y="162" on="0"/>
        <pt x="293" y="190" on="1"/>
        <pt x="301" y="206" on="0"/>
        <pt x="301" y="291" on="1"/>
        <pt x="301" y="409" on="1"/>
        <pt x="301" y="491" on="0"/>
        <pt x="285" y="528" on="0"/>
        <pt x="246" y="569" on="0"/>
        <pt x="218" y="569" on="0"/>
        <pt x="179" y="528" on="0"/>
        <pt x="163" y="491" on="0"/>
        <pt x="163" y="409" on="1"/>
        <pt x="163" y="261" on="1"/>
        <pt x="163" y="186" on="0"/>
        <pt x="169" y="158" on="1"/>
        <pt x="65" y="86" on="1"/>
        <pt x="45" y="112" on="0"/>
        <pt x="25" y="156" on="0"/>
      </contour>
    </TTGlyph>
    <TTGlyph name="R" xMin="10" yMin="0" xMax="495" yMax="712">
      <contour>
        <pt x="180" y="657" on="1"/>
        <pt x="260" y="712" on="0"/>
        <pt x="318" y="712" on="0"/>
        <pt x="439" y="607" on="0"/>
        <pt x="469" y="564" on="0"/>
        <pt x="469" y="529" on="1"/>
        <pt x="469" y="461" on="0"/>
        <pt x="458" y="448" on="1"/>
        <pt x="437" y="416" on="0"/>
        <pt x="393" y="373" on="1"/>
        <pt x="454" y="315" on="0"/>
        <pt x="469" y="284" on="1"/>
        <pt x="477" y="263" on="0"/>
        <pt x="495" y="50" on="0"/>
        <pt x="495" y="0" on="1"/>
        <pt x="345" y="0" on="1"/>
        <pt x="345" y="45" on="0"/>
        <pt x="329" y="237" on="0"/>
        <pt x="310" y="277" on="0"/>
        <pt x="297" y="292" on="1"/>
        <pt x="208" y="292" on="1"/>
        <pt x="208" y="0" on="1"/>
        <pt x="70" y="0" on="1"/>
        <pt x="70" y="438" on="1"/>
        <pt x="70" y="519" on="0"/>
        <pt x="47" y="582" on="0"/>
        <pt x="10" y="628" on="1"/>
        <pt x="130" y="712" on="1"/>
        <pt x="162" y="691" on="0"/>
      </contour>
      <contour>
        <pt x="208" y="486" on="1"/>
        <pt x="208" y="409" on="1"/>
        <pt x="247" y="409" on="1"/>
        <pt x="261" y="409" on="0"/>
        <pt x="305" y="453" on="0"/>
        <pt x="318" y="484" on="0"/>
        <pt x="318" y="518" on="0"/>
        <pt x="305" y="545" on="0"/>
        <pt x="281" y="579" on="0"/>
        <pt x="273" y="579" on="1"/>
        <pt x="246" y="579" on="0"/>
        <pt x="205" y="566" on="1"/>
        <pt x="208" y="527" on="0"/>
      </contour>
    </TTGlyph>
    <TTGlyph name="Racute" xMin="10" yMin="0" xMax="495" yMax="911">
      <contour>
        <pt x="180" y="657" on="1"/>
        <pt x="260" y="712" on="0"/>
        <pt x="318" y="712" on="0"/>
        <pt x="439" y="607" on="0"/>
        <pt x="469" y="564" on="0"/>
        <pt x="469" y="529" on="1"/>
        <pt x="469" y="461" on="0"/>
        <pt x="458" y="448" on="1"/>
        <pt x="437" y="416" on="0"/>
        <pt x="393" y="373" on="1"/>
        <pt x="454" y="315" on="0"/>
        <pt x="469" y="284" on="1"/>
        <pt x="477" y="263" on="0"/>
        <pt x="495" y="50" on="0"/>
        <pt x="495" y="0" on="1"/>
        <pt x="345" y="0" on="1"/>
        <pt x="345" y="45" on="0"/>
        <pt x="329" y="237" on="0"/>
        <pt x="310" y="277" on="0"/>
        <pt x="297" y="292" on="1"/>
        <pt x="208" y="292" on="1"/>
        <pt x="208" y="0" on="1"/>
        <pt x="70" y="0" on="1"/>
        <pt x="70" y="438" on="1"/>
        <pt x="70" y="519" on="0"/>
        <pt x="47" y="584" on="0"/>
        <pt x="10" y="629" on="1"/>
        <pt x="130" y="712" on="1"/>
        <pt x="162" y="691" on="0"/>
      </contour>
      <contour>
        <pt x="208" y="486" on="1"/>
        <pt x="208" y="409" on="1"/>
        <pt x="247" y="409" on="1"/>
        <pt x="261" y="409" on="0"/>
        <pt x="305" y="453" on="0"/>
        <pt x="318" y="484" on="0"/>
        <pt x="318" y="518" on="0"/>
        <pt x="305" y="545" on="0"/>
        <pt x="281" y="579" on="0"/>
        <pt x="273" y="579" on="1"/>
        <pt x="246" y="579" on="0"/>
        <pt x="205" y="566" on="1"/>
        <pt x="208" y="527" on="0"/>
      </contour>
      <contour>
        <pt x="361" y="846" on="1"/>
        <pt x="361" y="832" on="0"/>
        <pt x="217" y="741" on="0"/>
        <pt x="203" y="741" on="0"/>
        <pt x="173" y="770" on="0"/>
        <pt x="173" y="783" on="0"/>
        <pt x="277" y="911" on="0"/>
        <pt x="296" y="911" on="0"/>
        <pt x="361" y="856" on="0"/>
      </contour>
    </TTGlyph>
    <TTGlyph name="Rcaron" xMin="10" yMin="0" xMax="495" yMax="911">
      <contour>
        <pt x="180" y="657" on="1"/>
        <pt x="260" y="712" on="0"/>
        <pt x="318" y="712" on="0"/>
        <pt x="439" y="607" on="0"/>
        <pt x="469" y="564" on="0"/>
        <pt x="469" y="529" on="1"/>
        <pt x="469" y="461" on="0"/>
        <pt x="458" y="448" on="1"/>
        <pt x="437" y="416" on="0"/>
        <pt x="393" y="373" on="1"/>
        <pt x="454" y="315" on="0"/>
        <pt x="469" y="284" on="1"/>
        <pt x="477" y="263" on="0"/>
        <pt x="495" y="50" on="0"/>
        <pt x="495" y="0" on="1"/>
        <pt x="345" y="0" on="1"/>
        <pt x="345" y="45" on="0"/>
        <pt x="329" y="237" on="0"/>
        <pt x="310" y="277" on="0"/>
        <pt x="297" y="292" on="1"/>
        <pt x="208" y="292" on="1"/>
        <pt x="208" y="0" on="1"/>
        <pt x="70" y="0" on="1"/>
        <pt x="70" y="438" on="1"/>
        <pt x="70" y="519" on="0"/>
        <pt x="47" y="582" on="0"/>
        <pt x="10" y="628" on="1"/>
        <pt x="130" y="712" on="1"/>
        <pt x="162" y="691" on="0"/>
      </contour>
      <contour>
        <pt x="208" y="486" on="1"/>
        <pt x="208" y="409" on="1"/>
        <pt x="247" y="409" on="1"/>
        <pt x="261" y="409" on="0"/>
        <pt x="305" y="453" on="0"/>
        <pt x="318" y="484" on="0"/>
        <pt x="318" y="518" on="0"/>
        <pt x="305" y="545" on="0"/>
        <pt x="281" y="579" on="0"/>
        <pt x="273" y="579" on="1"/>
        <pt x="246" y="579" on="0"/>
        <pt x="205" y="566" on="1"/>
        <pt x="208" y="527" on="0"/>
      </contour>
      <contour>
        <pt x="256" y="851" on="1"/>
        <pt x="334" y="911" on="0"/>
        <pt x="352" y="911" on="0"/>
        <pt x="390" y="873" on="0"/>
        <pt x="390" y="860" on="0"/>
        <pt x="267" y="741" on="0"/>
        <pt x="245" y="741" on="0"/>
        <pt x="122" y="860" on="0"/>
        <pt x="122" y="873" on="0"/>
        <pt x="160" y="911" on="0"/>
        <pt x="178" y="911" on="0"/>
      </contour>
    </TTGlyph>
    <TTGlyph name="Rcommaaccent" xMin="10" yMin="-250" xMax="495" yMax="712">
      <contour>
        <pt x="180" y="657" on="1"/>
        <pt x="260" y="712" on="0"/>
        <pt x="318" y="712" on="0"/>
        <pt x="439" y="607" on="0"/>
        <pt x="469" y="564" on="0"/>
        <pt x="469" y="529" on="1"/>
        <pt x="469" y="461" on="0"/>
        <pt x="458" y="448" on="1"/>
        <pt x="437" y="416" on="0"/>
        <pt x="393" y="373" on="1"/>
        <pt x="454" y="315" on="0"/>
        <pt x="469" y="284" on="1"/>
        <pt x="477" y="263" on="0"/>
        <pt x="495" y="50" on="0"/>
        <pt x="495" y="0" on="1"/>
        <pt x="345" y="0" on="1"/>
        <pt x="345" y="45" on="0"/>
        <pt x="329" y="237" on="0"/>
        <pt x="310" y="277" on="0"/>
        <pt x="297" y="292" on="1"/>
        <pt x="208" y="292" on="1"/>
        <pt x="208" y="0" on="1"/>
        <pt x="70" y="0" on="1"/>
        <pt x="70" y="438" on="1"/>
        <pt x="70" y="519" on="0"/>
        <pt x="47" y="582" on="0"/>
        <pt x="10" y="628" on="1"/>
        <pt x="130" y="712" on="1"/>
        <pt x="162" y="691" on="0"/>
      </contour>
      <contour>
        <pt x="208" y="486" on="1"/>
        <pt x="208" y="409" on="1"/>
        <pt x="247" y="409" on="1"/>
        <pt x="261" y="409" on="0"/>
        <pt x="305" y="453" on="0"/>
        <pt x="318" y="484" on="0"/>
        <pt x="318" y="518" on="0"/>
        <pt x="305" y="545" on="0"/>
        <pt x="281" y="579" on="0"/>
        <pt x="273" y="579" on="1"/>
        <pt x="246" y="579" on="0"/>
        <pt x="205" y="566" on="1"/>
        <pt x="208" y="527" on="0"/>
      </contour>
      <contour>
        <pt x="285" y="-34" on="0"/>
        <pt x="355" y="-94" on="0"/>
        <pt x="355" y="-122" on="0"/>
        <pt x="227" y="-250" on="0"/>
        <pt x="219" y="-250" on="1"/>
        <pt x="216" y="-250" on="0"/>
        <pt x="195" y="-230" on="0"/>
        <pt x="195" y="-222" on="0"/>
        <pt x="235" y="-151" on="1"/>
        <pt x="195" y="-115" on="0"/>
        <pt x="195" y="-94" on="0"/>
        <pt x="266" y="-34" on="0"/>
      </contour>
    </TTGlyph>
    <TTGlyph name="S" xMin="20" yMin="-12" xMax="444" yMax="712">
      <contour>
        <pt x="428" y="282" on="1"/>
        <pt x="439" y="264" on="0"/>
        <pt x="439" y="157" on="0"/>
        <pt x="417" y="120" on="1"/>
        <pt x="397" y="91" on="0"/>
        <pt x="267" y="-12" on="0"/>
        <pt x="236" y="-12" on="1"/>
        <pt x="181" y="-12" on="0"/>
        <pt x="39" y="103" on="0"/>
        <pt x="20" y="172" on="1"/>
        <pt x="131" y="248" on="1"/>
        <pt x="147" y="201" on="0"/>
        <pt x="217" y="123" on="0"/>
        <pt x="246" y="123" on="0"/>
        <pt x="279" y="142" on="0"/>
        <pt x="288" y="152" on="1"/>
        <pt x="301" y="168" on="0"/>
        <pt x="301" y="236" on="0"/>
        <pt x="285" y="244" on="1"/>
        <pt x="265" y="261" on="0"/>
        <pt x="150" y="317" on="0"/>
        <pt x="52" y="382" on="0"/>
        <pt x="25" y="444" on="0"/>
        <pt x="25" y="543" on="0"/>
        <pt x="47" y="580" on="1"/>
        <pt x="67" y="609" on="0"/>
        <pt x="197" y="712" on="0"/>
        <pt x="228" y="712" on="1"/>
        <pt x="283" y="712" on="0"/>
        <pt x="425" y="597" on="0"/>
        <pt x="444" y="528" on="1"/>
        <pt x="333" y="451" on="1"/>
        <pt x="317" y="498" on="0"/>
        <pt x="247" y="577" on="0"/>
        <pt x="218" y="577" on="0"/>
        <pt x="184" y="559" on="0"/>
        <pt x="163" y="532" on="0"/>
        <pt x="163" y="467" on="0"/>
        <pt x="183" y="456" on="1"/>
        <pt x="199" y="442" on="0"/>
        <pt x="256" y="412" on="1"/>
        <pt x="402" y="332" on="0"/>
      </contour>
    </TTGlyph>
    <TTGlyph name="T" xMin="12" yMin="0" xMax="410" yMax="700">
      <contour>
        <pt x="410" y="700" on="1"/>
        <pt x="410" y="580" on="1"/>
        <pt x="280" y="580" on="1"/>
        <pt x="280" y="0" on="1"/>
        <pt x="142" y="0" on="1"/>
        <pt x="142" y="580" on="1"/>
        <pt x="12" y="580" on="1"/>
        <pt x="12" y="700" on="1"/>
      </contour>
    </TTGlyph>
    <TTGlyph name="Thorn" xMin="10" yMin="0" xMax="484" yMax="712">
      <contour>
        <pt x="207" y="547" on="1"/>
        <pt x="265" y="582" on="0"/>
        <pt x="328" y="582" on="0"/>
        <pt x="452" y="474" on="0"/>
        <pt x="473" y="438" on="1"/>
        <pt x="484" y="419" on="0"/>
        <pt x="484" y="294" on="0"/>
        <pt x="473" y="276" on="1"/>
        <pt x="451" y="240" on="0"/>
        <pt x="327" y="132" on="0"/>
        <pt x="293" y="132" on="1"/>
        <pt x="208" y="132" on="1"/>
        <pt x="208" y="0" on="1"/>
        <pt x="70" y="0" on="1"/>
        <pt x="70" y="468" on="1"/>
        <pt x="70" y="536" on="0"/>
        <pt x="47" y="590" on="0"/>
        <pt x="10" y="628" on="1"/>
        <pt x="130" y="712" on="1"/>
        <pt x="160" y="695" on="0"/>
        <pt x="203" y="609" on="0"/>
      </contour>
      <contour>
        <pt x="283" y="450" on="1"/>
        <pt x="250" y="450" on="0"/>
        <pt x="208" y="423" on="1"/>
        <pt x="208" y="261" on="1"/>
        <pt x="283" y="261" on="1"/>
        <pt x="296" y="261" on="0"/>
        <pt x="338" y="295" on="0"/>
        <pt x="352" y="329" on="0"/>
        <pt x="352" y="383" on="0"/>
        <pt x="336" y="416" on="0"/>
        <pt x="296" y="450" on="0"/>
      </contour>
    </TTGlyph>
    <TTGlyph name="U" xMin="10" yMin="-12" xMax="484" yMax="712">
      <contour>
        <pt x="484" y="700" on="1"/>
        <pt x="484" y="291" on="1"/>
        <pt x="484" y="186" on="0"/>
        <pt x="473" y="160" on="1"/>
        <pt x="456" y="119" on="0"/>
        <pt x="313" y="-12" on="0"/>
        <pt x="241" y="-12" on="0"/>
        <pt x="98" y="119" on="0"/>
        <pt x="81" y="160" on="1"/>
        <pt x="70" y="186" on="0"/>
        <pt x="70" y="291" on="1"/>
        <pt x="70" y="436" on="1"/>
        <pt x="70" y="517" on="0"/>
        <pt x="47" y="583" on="0"/>
        <pt x="10" y="628" on="1"/>
        <pt x="130" y="712" on="1"/>
        <pt x="162" y="691" on="0"/>
        <pt x="208" y="570" on="0"/>
        <pt x="208" y="486" on="1"/>
        <pt x="208" y="291" on="1"/>
        <pt x="208" y="209" on="0"/>
        <pt x="224" y="172" on="0"/>
        <pt x="263" y="131" on="0"/>
        <pt x="291" y="131" on="0"/>
        <pt x="330" y="172" on="0"/>
        <pt x="346" y="209" on="0"/>
        <pt x="346" y="291" on="1"/>
        <pt x="346" y="700" on="1"/>
      </contour>
    </TTGlyph>
    <TTGlyph name="Uacute" xMin="10" yMin="-12" xMax="484" yMax="882">
      <contour>
        <pt x="484" y="700" on="1"/>
        <pt x="484" y="291" on="1"/>
        <pt x="484" y="186" on="0"/>
        <pt x="473" y="160" on="1"/>
        <pt x="456" y="119" on="0"/>
        <pt x="313" y="-12" on="0"/>
        <pt x="241" y="-12" on="0"/>
        <pt x="98" y="119" on="0"/>
        <pt x="81" y="160" on="1"/>
        <pt x="70" y="186" on="0"/>
        <pt x="70" y="291" on="1"/>
        <pt x="70" y="436" on="1"/>
        <pt x="70" y="517" on="0"/>
        <pt x="47" y="583" on="0"/>
        <pt x="10" y="628" on="1"/>
        <pt x="130" y="712" on="1"/>
        <pt x="162" y="691" on="0"/>
        <pt x="208" y="570" on="0"/>
        <pt x="208" y="486" on="1"/>
        <pt x="208" y="291" on="1"/>
        <pt x="208" y="209" on="0"/>
        <pt x="224" y="172" on="0"/>
        <pt x="263" y="131" on="0"/>
        <pt x="291" y="131" on="0"/>
        <pt x="330" y="172" on="0"/>
        <pt x="346" y="209" on="0"/>
        <pt x="346" y="291" on="1"/>
        <pt x="346" y="700" on="1"/>
      </contour>
      <contour>
        <pt x="343" y="882" on="0"/>
        <pt x="383" y="806" on="0"/>
        <pt x="383" y="782" on="0"/>
        <pt x="221" y="750" on="0"/>
        <pt x="203" y="750" on="1"/>
        <pt x="199" y="750" on="0"/>
        <pt x="183" y="788" on="0"/>
        <pt x="183" y="799" on="0"/>
        <pt x="326" y="882" on="0"/>
        <pt x="336" y="882" on="1"/>
      </contour>
    </TTGlyph>
    <TTGlyph name="Ucircumflex" xMin="10" yMin="-12" xMax="484" yMax="882">
      <contour>
        <pt x="484" y="700" on="1"/>
        <pt x="484" y="291" on="1"/>
        <pt x="484" y="186" on="0"/>
        <pt x="473" y="160" on="1"/>
        <pt x="456" y="119" on="0"/>
        <pt x="313" y="-12" on="0"/>
        <pt x="241" y="-12" on="0"/>
        <pt x="98" y="119" on="0"/>
        <pt x="81" y="160" on="1"/>
        <pt x="70" y="186" on="0"/>
        <pt x="70" y="291" on="1"/>
        <pt x="70" y="436" on="1"/>
        <pt x="70" y="517" on="0"/>
        <pt x="47" y="583" on="0"/>
        <pt x="10" y="628" on="1"/>
        <pt x="130" y="712" on="1"/>
        <pt x="162" y="691" on="0"/>
        <pt x="208" y="570" on="0"/>
        <pt x="208" y="486" on="1"/>
        <pt x="208" y="291" on="1"/>
        <pt x="208" y="209" on="0"/>
        <pt x="224" y="172" on="0"/>
        <pt x="263" y="131" on="0"/>
        <pt x="291" y="131" on="0"/>
        <pt x="330" y="172" on="0"/>
        <pt x="346" y="209" on="0"/>
        <pt x="346" y="291" on="1"/>
        <pt x="346" y="700" on="1"/>
      </contour>
      <contour>
        <pt x="409" y="796" on="0"/>
        <pt x="385" y="750" on="0"/>
        <pt x="372" y="750" on="0"/>
        <pt x="266" y="794" on="1"/>
        <pt x="154" y="750" on="0"/>
        <pt x="153" y="750" on="1"/>
        <pt x="148" y="750" on="0"/>
        <pt x="123" y="796" on="0"/>
        <pt x="123" y="804" on="1"/>
        <pt x="123" y="809" on="0"/>
        <pt x="257" y="882" on="0"/>
        <pt x="275" y="882" on="0"/>
        <pt x="409" y="809" on="0"/>
        <pt x="409" y="804" on="1"/>
      </contour>
    </TTGlyph>
    <TTGlyph name="Udieresis" xMin="10" yMin="-12" xMax="484" yMax="880">
      <contour>
        <pt x="484" y="700" on="1"/>
        <pt x="484" y="291" on="1"/>
        <pt x="484" y="186" on="0"/>
        <pt x="473" y="160" on="1"/>
        <pt x="456" y="119" on="0"/>
        <pt x="313" y="-12" on="0"/>
        <pt x="241" y="-12" on="0"/>
        <pt x="98" y="119" on="0"/>
        <pt x="81" y="160" on="1"/>
        <pt x="70" y="186" on="0"/>
        <pt x="70" y="291" on="1"/>
        <pt x="70" y="436" on="1"/>
        <pt x="70" y="517" on="0"/>
        <pt x="47" y="583" on="0"/>
        <pt x="10" y="628" on="1"/>
        <pt x="130" y="712" on="1"/>
        <pt x="162" y="691" on="0"/>
        <pt x="208" y="570" on="0"/>
        <pt x="208" y="486" on="1"/>
        <pt x="208" y="291" on="1"/>
        <pt x="208" y="209" on="0"/>
        <pt x="224" y="172" on="0"/>
        <pt x="263" y="131" on="0"/>
        <pt x="291" y="131" on="0"/>
        <pt x="330" y="172" on="0"/>
        <pt x="346" y="209" on="0"/>
        <pt x="346" y="291" on="1"/>
        <pt x="346" y="700" on="1"/>
      </contour>
      <contour>
        <pt x="242" y="825" on="0"/>
        <pt x="242" y="805" on="0"/>
        <pt x="177" y="750" on="0"/>
        <pt x="159" y="750" on="0"/>
        <pt x="94" y="805" on="0"/>
        <pt x="94" y="825" on="0"/>
        <pt x="160" y="880" on="0"/>
        <pt x="177" y="880" on="0"/>
      </contour>
      <contour>
        <pt x="440" y="825" on="0"/>
        <pt x="440" y="805" on="0"/>
        <pt x="375" y="750" on="0"/>
        <pt x="357" y="750" on="0"/>
        <pt x="292" y="805" on="0"/>
        <pt x="292" y="825" on="0"/>
        <pt x="358" y="880" on="0"/>
        <pt x="375" y="880" on="0"/>
      </contour>
    </TTGlyph>
    <TTGlyph name="Ugrave" xMin="10" yMin="-12" xMax="484" yMax="882">
      <contour>
        <pt x="484" y="700" on="1"/>
        <pt x="484" y="291" on="1"/>
        <pt x="484" y="186" on="0"/>
        <pt x="473" y="160" on="1"/>
        <pt x="456" y="119" on="0"/>
        <pt x="313" y="-12" on="0"/>
        <pt x="241" y="-12" on="0"/>
        <pt x="98" y="119" on="0"/>
        <pt x="81" y="160" on="1"/>
        <pt x="70" y="186" on="0"/>
        <pt x="70" y="291" on="1"/>
        <pt x="70" y="436" on="1"/>
        <pt x="70" y="517" on="0"/>
        <pt x="47" y="583" on="0"/>
        <pt x="10" y="628" on="1"/>
        <pt x="130" y="712" on="1"/>
        <pt x="162" y="691" on="0"/>
        <pt x="208" y="570" on="0"/>
        <pt x="208" y="486" on="1"/>
        <pt x="208" y="291" on="1"/>
        <pt x="208" y="209" on="0"/>
        <pt x="224" y="172" on="0"/>
        <pt x="263" y="131" on="0"/>
        <pt x="291" y="131" on="0"/>
        <pt x="330" y="172" on="0"/>
        <pt x="346" y="209" on="0"/>
        <pt x="346" y="291" on="1"/>
        <pt x="346" y="700" on="1"/>
      </contour>
      <contour>
        <pt x="282" y="750" on="0"/>
        <pt x="120" y="782" on="0"/>
        <pt x="120" y="806" on="0"/>
        <pt x="160" y="882" on="0"/>
        <pt x="167" y="882" on="1"/>
        <pt x="177" y="882" on="0"/>
        <pt x="320" y="799" on="0"/>
        <pt x="320" y="788" on="0"/>
        <pt x="304" y="750" on="0"/>
        <pt x="300" y="750" on="1"/>
      </contour>
    </TTGlyph>
    <TTGlyph name="Umacron" xMin="10" yMin="-12" xMax="484" yMax="862">
      <contour>
        <pt x="484" y="700" on="1"/>
        <pt x="484" y="291" on="1"/>
        <pt x="484" y="186" on="0"/>
        <pt x="473" y="160" on="1"/>
        <pt x="456" y="119" on="0"/>
        <pt x="313" y="-12" on="0"/>
        <pt x="241" y="-12" on="0"/>
        <pt x="98" y="119" on="0"/>
        <pt x="81" y="160" on="1"/>
        <pt x="70" y="186" on="0"/>
        <pt x="70" y="291" on="1"/>
        <pt x="70" y="436" on="1"/>
        <pt x="70" y="517" on="0"/>
        <pt x="47" y="583" on="0"/>
        <pt x="10" y="628" on="1"/>
        <pt x="130" y="712" on="1"/>
        <pt x="162" y="691" on="0"/>
        <pt x="208" y="570" on="0"/>
        <pt x="208" y="486" on="1"/>
        <pt x="208" y="291" on="1"/>
        <pt x="208" y="209" on="0"/>
        <pt x="224" y="172" on="0"/>
        <pt x="263" y="131" on="0"/>
        <pt x="291" y="131" on="0"/>
        <pt x="330" y="172" on="0"/>
        <pt x="346" y="209" on="0"/>
        <pt x="346" y="291" on="1"/>
        <pt x="346" y="700" on="1"/>
      </contour>
      <contour>
        <pt x="104" y="769" on="1"/>
        <pt x="104" y="862" on="1"/>
        <pt x="429" y="862" on="1"/>
        <pt x="429" y="769" on="1"/>
      </contour>
    </TTGlyph>
    <TTGlyph name="Utilde" xMin="10" yMin="-12" xMax="484" yMax="911">
      <contour>
        <pt x="484" y="700" on="1"/>
        <pt x="484" y="291" on="1"/>
        <pt x="484" y="186" on="0"/>
        <pt x="473" y="160" on="1"/>
        <pt x="456" y="119" on="0"/>
        <pt x="313" y="-12" on="0"/>
        <pt x="241" y="-12" on="0"/>
        <pt x="98" y="119" on="0"/>
        <pt x="81" y="160" on="1"/>
        <pt x="70" y="186" on="0"/>
        <pt x="70" y="291" on="1"/>
        <pt x="70" y="436" on="1"/>
        <pt x="70" y="517" on="0"/>
        <pt x="47" y="583" on="0"/>
        <pt x="10" y="628" on="1"/>
        <pt x="130" y="712" on="1"/>
        <pt x="162" y="691" on="0"/>
        <pt x="208" y="570" on="0"/>
        <pt x="208" y="486" on="1"/>
        <pt x="208" y="291" on="1"/>
        <pt x="208" y="209" on="0"/>
        <pt x="224" y="172" on="0"/>
        <pt x="263" y="131" on="0"/>
        <pt x="291" y="131" on="0"/>
        <pt x="330" y="172" on="0"/>
        <pt x="346" y="209" on="0"/>
        <pt x="346" y="291" on="1"/>
        <pt x="346" y="700" on="1"/>
      </contour>
      <contour>
        <pt x="446" y="860" on="0"/>
        <pt x="323" y="741" on="0"/>
        <pt x="300" y="741" on="0"/>
        <pt x="222" y="801" on="1"/>
        <pt x="144" y="741" on="0"/>
        <pt x="126" y="741" on="0"/>
        <pt x="88" y="779" on="0"/>
        <pt x="88" y="792" on="0"/>
        <pt x="211" y="911" on="0"/>
        <pt x="234" y="911" on="0"/>
        <pt x="312" y="851" on="1"/>
        <pt x="390" y="911" on="0"/>
        <pt x="408" y="911" on="0"/>
        <pt x="446" y="873" on="0"/>
      </contour>
    </TTGlyph>
    <TTGlyph name="V" xMin="45" yMin="-12" xMax="459" yMax="712">
      <contour>
        <pt x="45" y="700" on="1"/>
        <pt x="183" y="700" on="1"/>
        <pt x="183" y="311" on="1"/>
        <pt x="183" y="255" on="0"/>
        <pt x="196" y="198" on="0"/>
        <pt x="242" y="131" on="0"/>
        <pt x="262" y="131" on="0"/>
        <pt x="308" y="198" on="0"/>
        <pt x="321" y="255" on="0"/>
        <pt x="321" y="311" on="1"/>
        <pt x="321" y="428" on="1"/>
        <pt x="321" y="512" on="0"/>
        <pt x="298" y="578" on="0"/>
        <pt x="261" y="626" on="1"/>
        <pt x="381" y="712" on="1"/>
        <pt x="413" y="691" on="0"/>
        <pt x="459" y="570" on="0"/>
        <pt x="459" y="486" on="1"/>
        <pt x="459" y="321" on="1"/>
        <pt x="459" y="243" on="0"/>
        <pt x="429" y="143" on="0"/>
        <pt x="288" y="-12" on="0"/>
        <pt x="216" y="-12" on="0"/>
        <pt x="75" y="143" on="0"/>
        <pt x="45" y="243" on="0"/>
        <pt x="45" y="321" on="1"/>
      </contour>
    </TTGlyph>
    <TTGlyph name="W" xMin="45" yMin="-12" xMax="703" yMax="712">
      <contour>
        <pt x="443" y="700" on="1"/>
        <pt x="443" y="321" on="1"/>
        <pt x="443" y="265" on="0"/>
        <pt x="456" y="206" on="0"/>
        <pt x="496" y="131" on="0"/>
        <pt x="511" y="131" on="0"/>
        <pt x="551" y="206" on="0"/>
        <pt x="565" y="265" on="0"/>
        <pt x="565" y="321" on="1"/>
        <pt x="565" y="428" on="1"/>
        <pt x="565" y="512" on="0"/>
        <pt x="542" y="579" on="0"/>
        <pt x="505" y="628" on="1"/>
        <pt x="625" y="712" on="1"/>
        <pt x="657" y="690" on="0"/>
        <pt x="703" y="570" on="0"/>
        <pt x="703" y="486" on="1"/>
        <pt x="703" y="321" on="1"/>
        <pt x="703" y="243" on="0"/>
        <pt x="673" y="142" on="0"/>
        <pt x="538" y="-12" on="0"/>
        <pt x="504" y="-12" on="1"/>
        <pt x="483" y="-12" on="0"/>
        <pt x="408" y="64" on="0"/>
        <pt x="374" y="115" on="1"/>
        <pt x="338" y="63" on="0"/>
        <pt x="265" y="-12" on="0"/>
        <pt x="244" y="-12" on="1"/>
        <pt x="210" y="-12" on="0"/>
        <pt x="75" y="142" on="0"/>
        <pt x="45" y="243" on="0"/>
        <pt x="45" y="321" on="1"/>
        <pt x="45" y="700" on="1"/>
        <pt x="183" y="700" on="1"/>
        <pt x="183" y="321" on="1"/>
        <pt x="183" y="256" on="0"/>
        <pt x="197" y="206" on="0"/>
        <pt x="237" y="131" on="0"/>
        <pt x="252" y="131" on="0"/>
        <pt x="292" y="206" on="0"/>
        <pt x="305" y="265" on="0"/>
        <pt x="305" y="321" on="1"/>
        <pt x="305" y="700" on="1"/>
      </contour>
    </TTGlyph>
    <TTGlyph name="X" xMin="3" yMin="0" xMax="488" yMax="712">
      <contour>
        <pt x="334" y="700" on="1"/>
        <pt x="472" y="700" on="1"/>
        <pt x="472" y="665" on="0"/>
        <pt x="457" y="513" on="0"/>
        <pt x="451" y="496" on="1"/>
        <pt x="440" y="462" on="0"/>
        <pt x="365" y="387" on="1"/>
        <pt x="402" y="352" on="0"/>
        <pt x="460" y="276" on="0"/>
        <pt x="473" y="235" on="0"/>
        <pt x="488" y="44" on="0"/>
        <pt x="488" y="0" on="1"/>
        <pt x="350" y="0" on="1"/>
        <pt x="350" y="36" on="0"/>
        <pt x="336" y="219" on="0"/>
        <pt x="332" y="234" on="1"/>
        <pt x="323" y="258" on="0"/>
        <pt x="267" y="320" on="0"/>
        <pt x="241" y="320" on="0"/>
        <pt x="185" y="258" on="0"/>
        <pt x="171" y="219" on="0"/>
        <pt x="158" y="38" on="0"/>
        <pt x="158" y="0" on="1"/>
        <pt x="20" y="0" on="1"/>
        <pt x="20" y="44" on="0"/>
        <pt x="35" y="235" on="0"/>
        <pt x="48" y="276" on="0"/>
        <pt x="106" y="352" on="0"/>
        <pt x="143" y="387" on="1"/>
        <pt x="106" y="407" on="0"/>
        <pt x="63" y="480" on="0"/>
        <pt x="58" y="513" on="1"/>
        <pt x="43" y="602" on="0"/>
        <pt x="3" y="628" on="1"/>
        <pt x="123" y="712" on="1"/>
        <pt x="153" y="695" on="0"/>
        <pt x="187" y="618" on="0"/>
        <pt x="196" y="541" on="0"/>
        <pt x="227" y="460" on="0"/>
        <pt x="254" y="440" on="1"/>
        <pt x="271" y="443" on="0"/>
        <pt x="308" y="494" on="0"/>
        <pt x="320" y="530" on="0"/>
        <pt x="334" y="673" on="0"/>
      </contour>
    </TTGlyph>
    <TTGlyph name="Y" xMin="35" yMin="0" xMax="449" yMax="700">
      <contour>
        <pt x="173" y="0" on="1"/>
        <pt x="173" y="280" on="1"/>
        <pt x="134" y="312" on="0"/>
        <pt x="61" y="401" on="0"/>
        <pt x="35" y="452" on="0"/>
        <pt x="35" y="531" on="1"/>
        <pt x="35" y="700" on="1"/>
        <pt x="173" y="700" on="1"/>
        <pt x="173" y="531" on="1"/>
        <pt x="173" y="480" on="0"/>
        <pt x="190" y="439" on="0"/>
        <pt x="233" y="381" on="0"/>
        <pt x="251" y="381" on="0"/>
        <pt x="295" y="440" on="0"/>
        <pt x="311" y="478" on="0"/>
        <pt x="311" y="531" on="1"/>
        <pt x="311" y="700" on="1"/>
        <pt x="449" y="700" on="1"/>
        <pt x="449" y="531" on="1"/>
        <pt x="449" y="451" on="0"/>
        <pt x="423" y="401" on="0"/>
        <pt x="349" y="312" on="0"/>
        <pt x="311" y="280" on="1"/>
        <pt x="311" y="0" on="1"/>
      </contour>
    </TTGlyph>
    <TTGlyph name="Yacute" xMin="45" yMin="0" xMax="459" yMax="882">
      <contour>
        <pt x="183" y="0" on="1"/>
        <pt x="183" y="280" on="1"/>
        <pt x="144" y="312" on="0"/>
        <pt x="71" y="401" on="0"/>
        <pt x="45" y="452" on="0"/>
        <pt x="45" y="531" on="1"/>
        <pt x="45" y="700" on="1"/>
        <pt x="183" y="700" on="1"/>
        <pt x="183" y="531" on="1"/>
        <pt x="183" y="480" on="0"/>
        <pt x="200" y="439" on="0"/>
        <pt x="243" y="381" on="0"/>
        <pt x="261" y="381" on="0"/>
        <pt x="305" y="440" on="0"/>
        <pt x="321" y="478" on="0"/>
        <pt x="321" y="531" on="1"/>
        <pt x="321" y="700" on="1"/>
        <pt x="459" y="700" on="1"/>
        <pt x="459" y="531" on="1"/>
        <pt x="459" y="451" on="0"/>
        <pt x="433" y="401" on="0"/>
        <pt x="359" y="312" on="0"/>
        <pt x="321" y="280" on="1"/>
        <pt x="321" y="0" on="1"/>
      </contour>
      <contour>
        <pt x="343" y="882" on="0"/>
        <pt x="383" y="806" on="0"/>
        <pt x="383" y="782" on="0"/>
        <pt x="221" y="750" on="0"/>
        <pt x="203" y="750" on="1"/>
        <pt x="199" y="750" on="0"/>
        <pt x="183" y="788" on="0"/>
        <pt x="183" y="799" on="0"/>
        <pt x="326" y="882" on="0"/>
        <pt x="336" y="882" on="1"/>
      </contour>
    </TTGlyph>
    <TTGlyph name="Z" xMin="25" yMin="0" xMax="423" yMax="700">
      <contour>
        <pt x="423" y="0" on="1"/>
        <pt x="25" y="0" on="1"/>
        <pt x="25" y="100" on="1"/>
        <pt x="271" y="580" on="1"/>
        <pt x="37" y="580" on="1"/>
        <pt x="37" y="700" on="1"/>
        <pt x="423" y="700" on="1"/>
        <pt x="423" y="600" on="1"/>
        <pt x="176" y="120" on="1"/>
        <pt x="423" y="120" on="1"/>
      </contour>
    </TTGlyph>
    <TTGlyph name="a" xMin="30" yMin="-12" xMax="457" yMax="551">
      <contour>
        <pt x="410" y="539" on="1"/>
        <pt x="410" y="129" on="1"/>
        <pt x="416" y="94" on="0"/>
        <pt x="457" y="67" on="1"/>
        <pt x="367" y="-10" on="1"/>
        <pt x="354" y="-1" on="0"/>
        <pt x="316" y="45" on="0"/>
        <pt x="303" y="69" on="1"/>
        <pt x="220" y="-12" on="0"/>
        <pt x="187" y="-12" on="1"/>
        <pt x="163" y="-12" on="0"/>
        <pt x="56" y="94" on="0"/>
        <pt x="30" y="160" on="0"/>
        <pt x="30" y="379" on="0"/>
        <pt x="56" y="445" on="0"/>
        <pt x="163" y="551" on="0"/>
        <pt x="187" y="551" on="1"/>
        <pt x="222" y="551" on="0"/>
        <pt x="300" y="479" on="1"/>
        <pt x="312" y="539" on="1"/>
      </contour>
      <contour>
        <pt x="264" y="399" on="0"/>
        <pt x="221" y="426" on="0"/>
        <pt x="199" y="426" on="0"/>
        <pt x="174" y="400" on="0"/>
        <pt x="170" y="389" on="1"/>
        <pt x="157" y="371" on="0"/>
        <pt x="157" y="168" on="0"/>
        <pt x="170" y="150" on="1"/>
        <pt x="174" y="140" on="0"/>
        <pt x="199" y="113" on="0"/>
        <pt x="221" y="113" on="0"/>
        <pt x="264" y="140" on="0"/>
        <pt x="277" y="162" on="0"/>
        <pt x="278" y="268" on="1"/>
        <pt x="278" y="374" on="0"/>
      </contour>
    </TTGlyph>
    <TTGlyph name="a.salt" xMin="10" yMin="-12" xMax="430" yMax="551">
      <contour>
        <pt x="158" y="-12" on="1"/>
        <pt x="137" y="-12" on="0"/>
        <pt x="10" y="113" on="0"/>
        <pt x="10" y="186" on="0"/>
        <pt x="165" y="312" on="0"/>
        <pt x="248" y="349" on="1"/>
        <pt x="248" y="377" on="0"/>
        <pt x="210" y="436" on="0"/>
        <pt x="196" y="436" on="1"/>
        <pt x="171" y="436" on="0"/>
        <pt x="123" y="354" on="1"/>
        <pt x="20" y="425" on="1"/>
        <pt x="48" y="474" on="0"/>
        <pt x="158" y="551" on="0"/>
        <pt x="225" y="551" on="0"/>
        <pt x="343" y="451" on="0"/>
        <pt x="357" y="426" on="1"/>
        <pt x="378" y="386" on="0"/>
        <pt x="378" y="161" on="0"/>
        <pt x="389" y="94" on="0"/>
        <pt x="430" y="67" on="1"/>
        <pt x="340" y="-10" on="1"/>
        <pt x="327" y="-1" on="0"/>
        <pt x="289" y="45" on="0"/>
        <pt x="276" y="69" on="1"/>
        <pt x="193" y="-12" on="0"/>
      </contour>
      <contour>
        <pt x="144" y="173" on="0"/>
        <pt x="144" y="151" on="0"/>
        <pt x="171" y="113" on="0"/>
        <pt x="190" y="113" on="0"/>
        <pt x="212" y="127" on="1"/>
        <pt x="249" y="151" on="0"/>
        <pt x="249" y="171" on="1"/>
        <pt x="249" y="176" on="0"/>
        <pt x="251" y="228" on="0"/>
        <pt x="251" y="233" on="1"/>
        <pt x="217" y="221" on="0"/>
      </contour>
    </TTGlyph>
    <TTGlyph name="aacute" xMin="30" yMin="-12" xMax="457" yMax="750">
      <contour>
        <pt x="410" y="539" on="1"/>
        <pt x="410" y="129" on="1"/>
        <pt x="416" y="94" on="0"/>
        <pt x="457" y="67" on="1"/>
        <pt x="367" y="-10" on="1"/>
        <pt x="354" y="-1" on="0"/>
        <pt x="316" y="45" on="0"/>
        <pt x="303" y="69" on="1"/>
        <pt x="220" y="-12" on="0"/>
        <pt x="187" y="-12" on="1"/>
        <pt x="163" y="-12" on="0"/>
        <pt x="56" y="94" on="0"/>
        <pt x="30" y="160" on="0"/>
        <pt x="30" y="379" on="0"/>
        <pt x="56" y="445" on="0"/>
        <pt x="163" y="551" on="0"/>
        <pt x="187" y="551" on="1"/>
        <pt x="222" y="551" on="0"/>
        <pt x="300" y="479" on="1"/>
        <pt x="312" y="539" on="1"/>
      </contour>
      <contour>
        <pt x="264" y="399" on="0"/>
        <pt x="221" y="426" on="0"/>
        <pt x="199" y="426" on="0"/>
        <pt x="174" y="400" on="0"/>
        <pt x="170" y="389" on="1"/>
        <pt x="157" y="371" on="0"/>
        <pt x="157" y="168" on="0"/>
        <pt x="170" y="150" on="1"/>
        <pt x="174" y="140" on="0"/>
        <pt x="199" y="113" on="0"/>
        <pt x="221" y="113" on="0"/>
        <pt x="264" y="140" on="0"/>
        <pt x="277" y="162" on="0"/>
        <pt x="278" y="268" on="1"/>
        <pt x="278" y="374" on="0"/>
      </contour>
      <contour>
        <pt x="340" y="685" on="1"/>
        <pt x="340" y="671" on="0"/>
        <pt x="196" y="580" on="0"/>
        <pt x="182" y="580" on="0"/>
        <pt x="152" y="609" on="0"/>
        <pt x="152" y="622" on="0"/>
        <pt x="256" y="750" on="0"/>
        <pt x="275" y="750" on="0"/>
        <pt x="340" y="695" on="0"/>
      </contour>
    </TTGlyph>
    <TTGlyph name="aacute.salt" xMin="10" yMin="-12" xMax="430" yMax="750">
      <contour>
        <pt x="335" y="685" on="1"/>
        <pt x="335" y="671" on="0"/>
        <pt x="191" y="580" on="0"/>
        <pt x="177" y="580" on="0"/>
        <pt x="147" y="609" on="0"/>
        <pt x="147" y="622" on="0"/>
        <pt x="251" y="750" on="0"/>
        <pt x="270" y="750" on="0"/>
        <pt x="335" y="695" on="0"/>
      </contour>
      <contour>
        <pt x="158" y="-12" on="1"/>
        <pt x="137" y="-12" on="0"/>
        <pt x="10" y="113" on="0"/>
        <pt x="10" y="186" on="0"/>
        <pt x="165" y="312" on="0"/>
        <pt x="248" y="349" on="1"/>
        <pt x="248" y="377" on="0"/>
        <pt x="210" y="436" on="0"/>
        <pt x="196" y="436" on="1"/>
        <pt x="171" y="436" on="0"/>
        <pt x="123" y="354" on="1"/>
        <pt x="20" y="425" on="1"/>
        <pt x="48" y="474" on="0"/>
        <pt x="158" y="551" on="0"/>
        <pt x="225" y="551" on="0"/>
        <pt x="343" y="451" on="0"/>
        <pt x="357" y="426" on="1"/>
        <pt x="378" y="386" on="0"/>
        <pt x="378" y="161" on="0"/>
        <pt x="389" y="94" on="0"/>
        <pt x="430" y="67" on="1"/>
        <pt x="340" y="-10" on="1"/>
        <pt x="327" y="-1" on="0"/>
        <pt x="289" y="45" on="0"/>
        <pt x="276" y="69" on="1"/>
        <pt x="193" y="-12" on="0"/>
      </contour>
      <contour>
        <pt x="144" y="173" on="0"/>
        <pt x="144" y="151" on="0"/>
        <pt x="171" y="113" on="0"/>
        <pt x="190" y="113" on="0"/>
        <pt x="212" y="127" on="1"/>
        <pt x="249" y="151" on="0"/>
        <pt x="249" y="171" on="1"/>
        <pt x="249" y="176" on="0"/>
        <pt x="251" y="228" on="0"/>
        <pt x="251" y="233" on="1"/>
        <pt x="217" y="221" on="0"/>
      </contour>
    </TTGlyph>
    <TTGlyph name="acircumflex" xMin="30" yMin="-12" xMax="457" yMax="750">
      <contour>
        <pt x="410" y="539" on="1"/>
        <pt x="410" y="129" on="1"/>
        <pt x="416" y="94" on="0"/>
        <pt x="457" y="67" on="1"/>
        <pt x="367" y="-10" on="1"/>
        <pt x="354" y="-1" on="0"/>
        <pt x="316" y="45" on="0"/>
        <pt x="303" y="69" on="1"/>
        <pt x="220" y="-12" on="0"/>
        <pt x="187" y="-12" on="1"/>
        <pt x="163" y="-12" on="0"/>
        <pt x="56" y="94" on="0"/>
        <pt x="30" y="160" on="0"/>
        <pt x="30" y="379" on="0"/>
        <pt x="56" y="445" on="0"/>
        <pt x="163" y="551" on="0"/>
        <pt x="187" y="551" on="1"/>
        <pt x="222" y="551" on="0"/>
        <pt x="300" y="479" on="1"/>
        <pt x="312" y="539" on="1"/>
      </contour>
      <contour>
        <pt x="264" y="399" on="0"/>
        <pt x="221" y="426" on="0"/>
        <pt x="199" y="426" on="0"/>
        <pt x="174" y="400" on="0"/>
        <pt x="170" y="389" on="1"/>
        <pt x="157" y="371" on="0"/>
        <pt x="157" y="168" on="0"/>
        <pt x="170" y="150" on="1"/>
        <pt x="174" y="140" on="0"/>
        <pt x="199" y="113" on="0"/>
        <pt x="221" y="113" on="0"/>
        <pt x="264" y="140" on="0"/>
        <pt x="277" y="162" on="0"/>
        <pt x="278" y="268" on="1"/>
        <pt x="278" y="374" on="0"/>
      </contour>
      <contour>
        <pt x="226" y="640" on="1"/>
        <pt x="148" y="580" on="0"/>
        <pt x="130" y="580" on="0"/>
        <pt x="92" y="618" on="0"/>
        <pt x="92" y="631" on="0"/>
        <pt x="215" y="750" on="0"/>
        <pt x="237" y="750" on="0"/>
        <pt x="360" y="631" on="0"/>
        <pt x="360" y="618" on="0"/>
        <pt x="322" y="580" on="0"/>
        <pt x="304" y="580" on="0"/>
      </contour>
    </TTGlyph>
    <TTGlyph name="acircumflex.salt" xMin="10" yMin="-12" xMax="430" yMax="750">
      <contour>
        <pt x="201" y="640" on="1"/>
        <pt x="123" y="580" on="0"/>
        <pt x="105" y="580" on="0"/>
        <pt x="67" y="618" on="0"/>
        <pt x="67" y="631" on="0"/>
        <pt x="190" y="750" on="0"/>
        <pt x="212" y="750" on="0"/>
        <pt x="335" y="631" on="0"/>
        <pt x="335" y="618" on="0"/>
        <pt x="297" y="580" on="0"/>
        <pt x="279" y="580" on="0"/>
      </contour>
      <contour>
        <pt x="158" y="-12" on="1"/>
        <pt x="137" y="-12" on="0"/>
        <pt x="10" y="113" on="0"/>
        <pt x="10" y="186" on="0"/>
        <pt x="165" y="312" on="0"/>
        <pt x="248" y="349" on="1"/>
        <pt x="248" y="377" on="0"/>
        <pt x="210" y="436" on="0"/>
        <pt x="196" y="436" on="1"/>
        <pt x="171" y="436" on="0"/>
        <pt x="123" y="354" on="1"/>
        <pt x="20" y="425" on="1"/>
        <pt x="48" y="474" on="0"/>
        <pt x="158" y="551" on="0"/>
        <pt x="225" y="551" on="0"/>
        <pt x="343" y="451" on="0"/>
        <pt x="357" y="426" on="1"/>
        <pt x="378" y="386" on="0"/>
        <pt x="378" y="161" on="0"/>
        <pt x="389" y="94" on="0"/>
        <pt x="430" y="67" on="1"/>
        <pt x="340" y="-10" on="1"/>
        <pt x="327" y="-1" on="0"/>
        <pt x="289" y="45" on="0"/>
        <pt x="276" y="69" on="1"/>
        <pt x="193" y="-12" on="0"/>
      </contour>
      <contour>
        <pt x="144" y="173" on="0"/>
        <pt x="144" y="151" on="0"/>
        <pt x="171" y="113" on="0"/>
        <pt x="190" y="113" on="0"/>
        <pt x="212" y="127" on="1"/>
        <pt x="249" y="151" on="0"/>
        <pt x="249" y="171" on="1"/>
        <pt x="249" y="176" on="0"/>
        <pt x="251" y="228" on="0"/>
        <pt x="251" y="233" on="1"/>
        <pt x="217" y="221" on="0"/>
      </contour>
    </TTGlyph>
    <TTGlyph name="acute" xMin="55" yMin="580" xMax="243" yMax="750">
      <contour>
        <pt x="243" y="685" on="1"/>
        <pt x="243" y="671" on="0"/>
        <pt x="99" y="580" on="0"/>
        <pt x="85" y="580" on="0"/>
        <pt x="55" y="609" on="0"/>
        <pt x="55" y="622" on="0"/>
        <pt x="159" y="750" on="0"/>
        <pt x="178" y="750" on="0"/>
        <pt x="243" y="695" on="0"/>
      </contour>
    </TTGlyph>
    <TTGlyph name="adieresis" xMin="30" yMin="-12" xMax="457" yMax="750">
      <contour>
        <pt x="410" y="539" on="1"/>
        <pt x="410" y="129" on="1"/>
        <pt x="416" y="94" on="0"/>
        <pt x="457" y="67" on="1"/>
        <pt x="367" y="-10" on="1"/>
        <pt x="354" y="-1" on="0"/>
        <pt x="316" y="45" on="0"/>
        <pt x="303" y="69" on="1"/>
        <pt x="220" y="-12" on="0"/>
        <pt x="187" y="-12" on="1"/>
        <pt x="163" y="-12" on="0"/>
        <pt x="56" y="94" on="0"/>
        <pt x="30" y="160" on="0"/>
        <pt x="30" y="379" on="0"/>
        <pt x="56" y="445" on="0"/>
        <pt x="163" y="551" on="0"/>
        <pt x="187" y="551" on="1"/>
        <pt x="222" y="551" on="0"/>
        <pt x="300" y="479" on="1"/>
        <pt x="312" y="539" on="1"/>
      </contour>
      <contour>
        <pt x="264" y="399" on="0"/>
        <pt x="221" y="426" on="0"/>
        <pt x="199" y="426" on="0"/>
        <pt x="174" y="400" on="0"/>
        <pt x="170" y="389" on="1"/>
        <pt x="157" y="371" on="0"/>
        <pt x="157" y="168" on="0"/>
        <pt x="170" y="150" on="1"/>
        <pt x="174" y="140" on="0"/>
        <pt x="199" y="113" on="0"/>
        <pt x="221" y="113" on="0"/>
        <pt x="264" y="140" on="0"/>
        <pt x="277" y="162" on="0"/>
        <pt x="278" y="268" on="1"/>
        <pt x="278" y="374" on="0"/>
      </contour>
      <contour>
        <pt x="202" y="695" on="0"/>
        <pt x="202" y="675" on="0"/>
        <pt x="137" y="620" on="0"/>
        <pt x="119" y="620" on="0"/>
        <pt x="54" y="675" on="0"/>
        <pt x="54" y="695" on="0"/>
        <pt x="120" y="750" on="0"/>
        <pt x="137" y="750" on="0"/>
      </contour>
      <contour>
        <pt x="400" y="695" on="0"/>
        <pt x="400" y="675" on="0"/>
        <pt x="335" y="620" on="0"/>
        <pt x="317" y="620" on="0"/>
        <pt x="252" y="675" on="0"/>
        <pt x="252" y="695" on="0"/>
        <pt x="318" y="750" on="0"/>
        <pt x="335" y="750" on="0"/>
      </contour>
    </TTGlyph>
    <TTGlyph name="adieresis.salt" xMin="10" yMin="-12" xMax="430" yMax="750">
      <contour>
        <pt x="179" y="695" on="0"/>
        <pt x="179" y="675" on="0"/>
        <pt x="114" y="620" on="0"/>
        <pt x="96" y="620" on="0"/>
        <pt x="31" y="675" on="0"/>
        <pt x="31" y="695" on="0"/>
        <pt x="97" y="750" on="0"/>
        <pt x="114" y="750" on="0"/>
      </contour>
      <contour>
        <pt x="377" y="695" on="0"/>
        <pt x="377" y="675" on="0"/>
        <pt x="312" y="620" on="0"/>
        <pt x="294" y="620" on="0"/>
        <pt x="229" y="675" on="0"/>
        <pt x="229" y="695" on="0"/>
        <pt x="295" y="750" on="0"/>
        <pt x="312" y="750" on="0"/>
      </contour>
      <contour>
        <pt x="158" y="-12" on="1"/>
        <pt x="137" y="-12" on="0"/>
        <pt x="10" y="113" on="0"/>
        <pt x="10" y="186" on="0"/>
        <pt x="165" y="312" on="0"/>
        <pt x="248" y="349" on="1"/>
        <pt x="248" y="377" on="0"/>
        <pt x="210" y="436" on="0"/>
        <pt x="196" y="436" on="1"/>
        <pt x="171" y="436" on="0"/>
        <pt x="123" y="354" on="1"/>
        <pt x="20" y="425" on="1"/>
        <pt x="48" y="474" on="0"/>
        <pt x="158" y="551" on="0"/>
        <pt x="225" y="551" on="0"/>
        <pt x="343" y="451" on="0"/>
        <pt x="357" y="426" on="1"/>
        <pt x="378" y="386" on="0"/>
        <pt x="378" y="161" on="0"/>
        <pt x="389" y="94" on="0"/>
        <pt x="430" y="67" on="1"/>
        <pt x="340" y="-10" on="1"/>
        <pt x="327" y="-1" on="0"/>
        <pt x="289" y="45" on="0"/>
        <pt x="276" y="69" on="1"/>
        <pt x="193" y="-12" on="0"/>
      </contour>
      <contour>
        <pt x="144" y="173" on="0"/>
        <pt x="144" y="151" on="0"/>
        <pt x="171" y="113" on="0"/>
        <pt x="190" y="113" on="0"/>
        <pt x="212" y="127" on="1"/>
        <pt x="249" y="151" on="0"/>
        <pt x="249" y="171" on="1"/>
        <pt x="249" y="176" on="0"/>
        <pt x="251" y="228" on="0"/>
        <pt x="251" y="233" on="1"/>
        <pt x="217" y="221" on="0"/>
      </contour>
    </TTGlyph>
    <TTGlyph name="ae" xMin="10" yMin="-12" xMax="621" yMax="551">
      <contour>
        <pt x="158" y="-12" on="1"/>
        <pt x="137" y="-12" on="0"/>
        <pt x="10" y="113" on="0"/>
        <pt x="10" y="186" on="0"/>
        <pt x="165" y="312" on="0"/>
        <pt x="248" y="349" on="1"/>
        <pt x="248" y="377" on="0"/>
        <pt x="210" y="436" on="0"/>
        <pt x="196" y="436" on="1"/>
        <pt x="171" y="436" on="0"/>
        <pt x="123" y="354" on="1"/>
        <pt x="20" y="425" on="1"/>
        <pt x="48" y="474" on="0"/>
        <pt x="158" y="551" on="0"/>
        <pt x="233" y="551" on="0"/>
        <pt x="313" y="475" on="1"/>
        <pt x="395" y="551" on="0"/>
        <pt x="434" y="551" on="1"/>
        <pt x="464" y="551" on="0"/>
        <pt x="593" y="445" on="0"/>
        <pt x="621" y="386" on="0"/>
        <pt x="621" y="271" on="1"/>
        <pt x="621" y="235" on="1"/>
        <pt x="379" y="235" on="1"/>
        <pt x="379" y="175" on="0"/>
        <pt x="394" y="140" on="1"/>
        <pt x="399" y="128" on="0"/>
        <pt x="425" y="103" on="0"/>
        <pt x="453" y="103" on="0"/>
        <pt x="495" y="151" on="0"/>
        <pt x="507" y="185" on="1"/>
        <pt x="610" y="112" on="1"/>
        <pt x="583" y="62" on="0"/>
        <pt x="472" y="-12" on="0"/>
        <pt x="434" y="-12" on="1"/>
        <pt x="412" y="-12" on="0"/>
        <pt x="330" y="45" on="0"/>
        <pt x="295" y="80" on="1"/>
        <pt x="210" y="-12" on="0"/>
      </contour>
      <contour>
        <pt x="475" y="410" on="0"/>
        <pt x="444" y="436" on="0"/>
        <pt x="417" y="436" on="0"/>
        <pt x="383" y="383" on="0"/>
        <pt x="379" y="330" on="1"/>
        <pt x="493" y="330" on="1"/>
        <pt x="490" y="383" on="0"/>
      </contour>
      <contour>
        <pt x="144" y="173" on="0"/>
        <pt x="144" y="151" on="0"/>
        <pt x="171" y="113" on="0"/>
        <pt x="190" y="113" on="0"/>
        <pt x="212" y="127" on="1"/>
        <pt x="249" y="151" on="0"/>
        <pt x="249" y="171" on="1"/>
        <pt x="249" y="176" on="0"/>
        <pt x="251" y="228" on="0"/>
        <pt x="251" y="233" on="1"/>
        <pt x="217" y="221" on="0"/>
      </contour>
    </TTGlyph>
    <TTGlyph name="aeacute" xMin="10" yMin="-12" xMax="621" yMax="750">
      <contour>
        <pt x="537" y="685" on="1"/>
        <pt x="537" y="671" on="0"/>
        <pt x="393" y="580" on="0"/>
        <pt x="379" y="580" on="0"/>
        <pt x="349" y="609" on="0"/>
        <pt x="349" y="622" on="0"/>
        <pt x="453" y="750" on="0"/>
        <pt x="472" y="750" on="0"/>
        <pt x="537" y="695" on="0"/>
      </contour>
      <contour>
        <pt x="158" y="-12" on="1"/>
        <pt x="137" y="-12" on="0"/>
        <pt x="10" y="113" on="0"/>
        <pt x="10" y="186" on="0"/>
        <pt x="165" y="312" on="0"/>
        <pt x="248" y="349" on="1"/>
        <pt x="248" y="377" on="0"/>
        <pt x="210" y="436" on="0"/>
        <pt x="196" y="436" on="1"/>
        <pt x="171" y="436" on="0"/>
        <pt x="123" y="354" on="1"/>
        <pt x="20" y="425" on="1"/>
        <pt x="48" y="474" on="0"/>
        <pt x="158" y="551" on="0"/>
        <pt x="233" y="551" on="0"/>
        <pt x="313" y="475" on="1"/>
        <pt x="395" y="551" on="0"/>
        <pt x="434" y="551" on="1"/>
        <pt x="464" y="551" on="0"/>
        <pt x="593" y="445" on="0"/>
        <pt x="621" y="386" on="0"/>
        <pt x="621" y="271" on="1"/>
        <pt x="621" y="235" on="1"/>
        <pt x="379" y="235" on="1"/>
        <pt x="379" y="175" on="0"/>
        <pt x="394" y="140" on="1"/>
        <pt x="399" y="128" on="0"/>
        <pt x="425" y="103" on="0"/>
        <pt x="453" y="103" on="0"/>
        <pt x="495" y="151" on="0"/>
        <pt x="507" y="185" on="1"/>
        <pt x="610" y="112" on="1"/>
        <pt x="583" y="62" on="0"/>
        <pt x="472" y="-12" on="0"/>
        <pt x="434" y="-12" on="1"/>
        <pt x="412" y="-12" on="0"/>
        <pt x="330" y="45" on="0"/>
        <pt x="295" y="80" on="1"/>
        <pt x="210" y="-12" on="0"/>
      </contour>
      <contour>
        <pt x="475" y="410" on="0"/>
        <pt x="444" y="436" on="0"/>
        <pt x="417" y="436" on="0"/>
        <pt x="383" y="383" on="0"/>
        <pt x="379" y="330" on="1"/>
        <pt x="493" y="330" on="1"/>
        <pt x="490" y="383" on="0"/>
      </contour>
      <contour>
        <pt x="144" y="173" on="0"/>
        <pt x="144" y="151" on="0"/>
        <pt x="171" y="113" on="0"/>
        <pt x="190" y="113" on="0"/>
        <pt x="212" y="127" on="1"/>
        <pt x="249" y="151" on="0"/>
        <pt x="249" y="171" on="1"/>
        <pt x="249" y="176" on="0"/>
        <pt x="251" y="228" on="0"/>
        <pt x="251" y="233" on="1"/>
        <pt x="217" y="221" on="0"/>
      </contour>
    </TTGlyph>
    <TTGlyph name="agrave" xMin="30" yMin="-12" xMax="457" yMax="750">
      <contour>
        <pt x="410" y="539" on="1"/>
        <pt x="410" y="129" on="1"/>
        <pt x="416" y="94" on="0"/>
        <pt x="457" y="67" on="1"/>
        <pt x="367" y="-10" on="1"/>
        <pt x="354" y="-1" on="0"/>
        <pt x="316" y="45" on="0"/>
        <pt x="303" y="69" on="1"/>
        <pt x="220" y="-12" on="0"/>
        <pt x="187" y="-12" on="1"/>
        <pt x="163" y="-12" on="0"/>
        <pt x="56" y="94" on="0"/>
        <pt x="30" y="160" on="0"/>
        <pt x="30" y="379" on="0"/>
        <pt x="56" y="445" on="0"/>
        <pt x="163" y="551" on="0"/>
        <pt x="187" y="551" on="1"/>
        <pt x="222" y="551" on="0"/>
        <pt x="300" y="479" on="1"/>
        <pt x="312" y="539" on="1"/>
      </contour>
      <contour>
        <pt x="264" y="399" on="0"/>
        <pt x="221" y="426" on="0"/>
        <pt x="199" y="426" on="0"/>
        <pt x="174" y="400" on="0"/>
        <pt x="170" y="389" on="1"/>
        <pt x="157" y="371" on="0"/>
        <pt x="157" y="168" on="0"/>
        <pt x="170" y="150" on="1"/>
        <pt x="174" y="140" on="0"/>
        <pt x="199" y="113" on="0"/>
        <pt x="221" y="113" on="0"/>
        <pt x="264" y="140" on="0"/>
        <pt x="277" y="162" on="0"/>
        <pt x="278" y="268" on="1"/>
        <pt x="278" y="374" on="0"/>
      </contour>
      <contour>
        <pt x="92" y="685" on="1"/>
        <pt x="92" y="695" on="0"/>
        <pt x="157" y="750" on="0"/>
        <pt x="176" y="750" on="0"/>
        <pt x="280" y="622" on="0"/>
        <pt x="280" y="609" on="0"/>
        <pt x="250" y="580" on="0"/>
        <pt x="236" y="580" on="0"/>
        <pt x="92" y="671" on="0"/>
      </contour>
    </TTGlyph>
    <TTGlyph name="agrave.salt" xMin="10" yMin="-12" xMax="430" yMax="750">
      <contour>
        <pt x="158" y="-12" on="1"/>
        <pt x="137" y="-12" on="0"/>
        <pt x="10" y="113" on="0"/>
        <pt x="10" y="186" on="0"/>
        <pt x="165" y="312" on="0"/>
        <pt x="248" y="349" on="1"/>
        <pt x="248" y="377" on="0"/>
        <pt x="210" y="436" on="0"/>
        <pt x="196" y="436" on="1"/>
        <pt x="171" y="436" on="0"/>
        <pt x="123" y="354" on="1"/>
        <pt x="20" y="425" on="1"/>
        <pt x="48" y="474" on="0"/>
        <pt x="158" y="551" on="0"/>
        <pt x="225" y="551" on="0"/>
        <pt x="343" y="451" on="0"/>
        <pt x="357" y="426" on="1"/>
        <pt x="378" y="386" on="0"/>
        <pt x="378" y="161" on="0"/>
        <pt x="389" y="94" on="0"/>
        <pt x="430" y="67" on="1"/>
        <pt x="340" y="-10" on="1"/>
        <pt x="327" y="-1" on="0"/>
        <pt x="289" y="45" on="0"/>
        <pt x="276" y="69" on="1"/>
        <pt x="193" y="-12" on="0"/>
      </contour>
      <contour>
        <pt x="144" y="173" on="0"/>
        <pt x="144" y="151" on="0"/>
        <pt x="171" y="113" on="0"/>
        <pt x="190" y="113" on="0"/>
        <pt x="212" y="127" on="1"/>
        <pt x="249" y="151" on="0"/>
        <pt x="249" y="171" on="1"/>
        <pt x="249" y="176" on="0"/>
        <pt x="251" y="228" on="0"/>
        <pt x="251" y="233" on="1"/>
        <pt x="217" y="221" on="0"/>
      </contour>
      <contour>
        <pt x="67" y="685" on="1"/>
        <pt x="67" y="695" on="0"/>
        <pt x="132" y="750" on="0"/>
        <pt x="151" y="750" on="0"/>
        <pt x="255" y="622" on="0"/>
        <pt x="255" y="609" on="0"/>
        <pt x="225" y="580" on="0"/>
        <pt x="211" y="580" on="0"/>
        <pt x="67" y="671" on="0"/>
      </contour>
    </TTGlyph>
    <TTGlyph name="amacron" xMin="25" yMin="-12" xMax="452" yMax="701">
      <contour>
        <pt x="405" y="539" on="1"/>
        <pt x="405" y="129" on="1"/>
        <pt x="411" y="94" on="0"/>
        <pt x="452" y="67" on="1"/>
        <pt x="362" y="-10" on="1"/>
        <pt x="349" y="-1" on="0"/>
        <pt x="311" y="45" on="0"/>
        <pt x="298" y="69" on="1"/>
        <pt x="215" y="-12" on="0"/>
        <pt x="182" y="-12" on="1"/>
        <pt x="158" y="-12" on="0"/>
        <pt x="51" y="94" on="0"/>
        <pt x="25" y="160" on="0"/>
        <pt x="25" y="379" on="0"/>
        <pt x="51" y="445" on="0"/>
        <pt x="158" y="551" on="0"/>
        <pt x="182" y="551" on="1"/>
        <pt x="217" y="551" on="0"/>
        <pt x="295" y="479" on="1"/>
        <pt x="307" y="539" on="1"/>
      </contour>
      <contour>
        <pt x="259" y="399" on="0"/>
        <pt x="216" y="426" on="0"/>
        <pt x="194" y="426" on="0"/>
        <pt x="169" y="400" on="0"/>
        <pt x="165" y="389" on="1"/>
        <pt x="152" y="371" on="0"/>
        <pt x="152" y="168" on="0"/>
        <pt x="165" y="150" on="1"/>
        <pt x="169" y="140" on="0"/>
        <pt x="194" y="113" on="0"/>
        <pt x="216" y="113" on="0"/>
        <pt x="259" y="140" on="0"/>
        <pt x="272" y="162" on="0"/>
        <pt x="273" y="268" on="1"/>
        <pt x="273" y="374" on="0"/>
      </contour>
      <contour>
        <pt x="59" y="608" on="1"/>
        <pt x="59" y="701" on="1"/>
        <pt x="384" y="701" on="1"/>
        <pt x="384" y="608" on="1"/>
      </contour>
    </TTGlyph>
    <TTGlyph name="amacron.salt" xMin="10" yMin="-12" xMax="430" yMax="701">
      <contour>
        <pt x="158" y="-12" on="1"/>
        <pt x="137" y="-12" on="0"/>
        <pt x="10" y="113" on="0"/>
        <pt x="10" y="186" on="0"/>
        <pt x="165" y="312" on="0"/>
        <pt x="248" y="349" on="1"/>
        <pt x="248" y="377" on="0"/>
        <pt x="210" y="436" on="0"/>
        <pt x="196" y="436" on="1"/>
        <pt x="171" y="436" on="0"/>
        <pt x="123" y="354" on="1"/>
        <pt x="20" y="425" on="1"/>
        <pt x="48" y="474" on="0"/>
        <pt x="158" y="551" on="0"/>
        <pt x="225" y="551" on="0"/>
        <pt x="343" y="451" on="0"/>
        <pt x="357" y="426" on="1"/>
        <pt x="378" y="386" on="0"/>
        <pt x="378" y="161" on="0"/>
        <pt x="389" y="94" on="0"/>
        <pt x="430" y="67" on="1"/>
        <pt x="340" y="-10" on="1"/>
        <pt x="327" y="-1" on="0"/>
        <pt x="289" y="45" on="0"/>
        <pt x="276" y="69" on="1"/>
        <pt x="193" y="-12" on="0"/>
      </contour>
      <contour>
        <pt x="144" y="173" on="0"/>
        <pt x="144" y="151" on="0"/>
        <pt x="171" y="113" on="0"/>
        <pt x="190" y="113" on="0"/>
        <pt x="212" y="127" on="1"/>
        <pt x="249" y="151" on="0"/>
        <pt x="249" y="171" on="1"/>
        <pt x="249" y="176" on="0"/>
        <pt x="251" y="228" on="0"/>
        <pt x="251" y="233" on="1"/>
        <pt x="217" y="221" on="0"/>
      </contour>
      <contour>
        <pt x="41" y="608" on="1"/>
        <pt x="41" y="701" on="1"/>
        <pt x="366" y="701" on="1"/>
        <pt x="366" y="608" on="1"/>
      </contour>
    </TTGlyph>
    <TTGlyph name="ampersand" xMin="55" yMin="-12" xMax="690" yMax="712">
      <contour>
        <pt x="304" y="415" on="1"/>
        <pt x="304" y="304" on="1"/>
        <pt x="255" y="304" on="1"/>
        <pt x="242" y="300" on="0"/>
        <pt x="206" y="272" on="0"/>
        <pt x="193" y="250" on="0"/>
        <pt x="193" y="189" on="0"/>
        <pt x="212" y="165" on="0"/>
        <pt x="264" y="131" on="0"/>
        <pt x="301" y="131" on="0"/>
        <pt x="356" y="165" on="0"/>
        <pt x="363" y="180" on="1"/>
        <pt x="373" y="204" on="0"/>
        <pt x="373" y="341" on="0"/>
        <pt x="361" y="392" on="0"/>
        <pt x="343" y="428" on="1"/>
        <pt x="455" y="506" on="1"/>
        <pt x="485" y="478" on="0"/>
        <pt x="500" y="415" on="1"/>
        <pt x="639" y="415" on="1"/>
        <pt x="639" y="304" on="1"/>
        <pt x="511" y="304" on="1"/>
        <pt x="511" y="209" on="1"/>
        <pt x="511" y="186" on="0"/>
        <pt x="519" y="168" on="1"/>
        <pt x="534" y="131" on="0"/>
        <pt x="562" y="131" on="0"/>
        <pt x="591" y="162" on="1"/>
        <pt x="690" y="93" on="1"/>
        <pt x="653" y="52" on="0"/>
        <pt x="571" y="-12" on="0"/>
        <pt x="548" y="-12" on="1"/>
        <pt x="511" y="-12" on="0"/>
        <pt x="430" y="75" on="1"/>
        <pt x="331" y="-12" on="0"/>
        <pt x="282" y="-12" on="1"/>
        <pt x="243" y="-12" on="0"/>
        <pt x="90" y="111" on="0"/>
        <pt x="66" y="150" on="1"/>
        <pt x="55" y="167" on="0"/>
        <pt x="55" y="276" on="0"/>
        <pt x="66" y="292" on="1"/>
        <pt x="88" y="325" on="0"/>
        <pt x="154" y="379" on="1"/>
        <pt x="110" y="423" on="0"/>
        <pt x="85" y="466" on="0"/>
        <pt x="85" y="575" on="0"/>
        <pt x="113" y="614" on="0"/>
        <pt x="253" y="712" on="0"/>
        <pt x="306" y="712" on="0"/>
        <pt x="407" y="637" on="0"/>
        <pt x="436" y="606" on="1"/>
        <pt x="340" y="537" on="1"/>
        <pt x="332" y="549" on="0"/>
        <pt x="293" y="579" on="0"/>
        <pt x="270" y="579" on="0"/>
        <pt x="236" y="552" on="0"/>
        <pt x="224" y="528" on="0"/>
        <pt x="224" y="484" on="0"/>
        <pt x="237" y="454" on="0"/>
        <pt x="278" y="415" on="0"/>
        <pt x="292" y="415" on="1"/>
      </contour>
    </TTGlyph>
    <TTGlyph name="aring" xMin="30" yMin="-12" xMax="457" yMax="750">
      <contour>
        <pt x="410" y="539" on="1"/>
        <pt x="410" y="129" on="1"/>
        <pt x="416" y="94" on="0"/>
        <pt x="457" y="67" on="1"/>
        <pt x="367" y="-10" on="1"/>
        <pt x="354" y="-1" on="0"/>
        <pt x="316" y="45" on="0"/>
        <pt x="303" y="69" on="1"/>
        <pt x="220" y="-12" on="0"/>
        <pt x="187" y="-12" on="1"/>
        <pt x="163" y="-12" on="0"/>
        <pt x="56" y="94" on="0"/>
        <pt x="30" y="160" on="0"/>
        <pt x="30" y="379" on="0"/>
        <pt x="56" y="445" on="0"/>
        <pt x="163" y="551" on="0"/>
        <pt x="187" y="551" on="1"/>
        <pt x="222" y="551" on="0"/>
        <pt x="300" y="479" on="1"/>
        <pt x="312" y="539" on="1"/>
      </contour>
      <contour>
        <pt x="264" y="399" on="0"/>
        <pt x="221" y="426" on="0"/>
        <pt x="199" y="426" on="0"/>
        <pt x="174" y="400" on="0"/>
        <pt x="170" y="389" on="1"/>
        <pt x="157" y="371" on="0"/>
        <pt x="157" y="168" on="0"/>
        <pt x="170" y="150" on="1"/>
        <pt x="174" y="140" on="0"/>
        <pt x="199" y="113" on="0"/>
        <pt x="221" y="113" on="0"/>
        <pt x="264" y="140" on="0"/>
        <pt x="277" y="162" on="0"/>
        <pt x="278" y="268" on="1"/>
        <pt x="278" y="374" on="0"/>
      </contour>
      <contour>
        <pt x="254" y="656" on="0"/>
        <pt x="254" y="676" on="0"/>
        <pt x="222" y="704" on="0"/>
        <pt x="203" y="704" on="0"/>
        <pt x="170" y="675" on="0"/>
        <pt x="170" y="656" on="0"/>
        <pt x="202" y="628" on="0"/>
        <pt x="222" y="628" on="0"/>
      </contour>
      <contour>
        <pt x="307" y="685" on="0"/>
        <pt x="307" y="647" on="0"/>
        <pt x="234" y="581" on="0"/>
        <pt x="190" y="581" on="0"/>
        <pt x="117" y="646" on="0"/>
        <pt x="117" y="685" on="0"/>
        <pt x="191" y="750" on="0"/>
        <pt x="234" y="750" on="0"/>
      </contour>
    </TTGlyph>
    <TTGlyph name="aring.salt" xMin="10" yMin="-12" xMax="430" yMax="750">
      <contour>
        <pt x="240" y="656" on="0"/>
        <pt x="240" y="676" on="0"/>
        <pt x="208" y="704" on="0"/>
        <pt x="189" y="704" on="0"/>
        <pt x="156" y="675" on="0"/>
        <pt x="156" y="656" on="0"/>
        <pt x="188" y="628" on="0"/>
        <pt x="208" y="628" on="0"/>
      </contour>
      <contour>
        <pt x="293" y="685" on="0"/>
        <pt x="293" y="647" on="0"/>
        <pt x="220" y="581" on="0"/>
        <pt x="176" y="581" on="0"/>
        <pt x="103" y="646" on="0"/>
        <pt x="103" y="685" on="0"/>
        <pt x="177" y="750" on="0"/>
        <pt x="220" y="750" on="0"/>
      </contour>
      <contour>
        <pt x="158" y="-12" on="1"/>
        <pt x="137" y="-12" on="0"/>
        <pt x="10" y="113" on="0"/>
        <pt x="10" y="186" on="0"/>
        <pt x="165" y="312" on="0"/>
        <pt x="248" y="349" on="1"/>
        <pt x="248" y="377" on="0"/>
        <pt x="210" y="436" on="0"/>
        <pt x="196" y="436" on="1"/>
        <pt x="171" y="436" on="0"/>
        <pt x="123" y="354" on="1"/>
        <pt x="20" y="425" on="1"/>
        <pt x="48" y="474" on="0"/>
        <pt x="158" y="551" on="0"/>
        <pt x="225" y="551" on="0"/>
        <pt x="343" y="451" on="0"/>
        <pt x="357" y="426" on="1"/>
        <pt x="378" y="386" on="0"/>
        <pt x="378" y="161" on="0"/>
        <pt x="389" y="94" on="0"/>
        <pt x="430" y="67" on="1"/>
        <pt x="340" y="-10" on="1"/>
        <pt x="327" y="-1" on="0"/>
        <pt x="289" y="45" on="0"/>
        <pt x="276" y="69" on="1"/>
        <pt x="193" y="-12" on="0"/>
      </contour>
      <contour>
        <pt x="144" y="173" on="0"/>
        <pt x="144" y="151" on="0"/>
        <pt x="171" y="113" on="0"/>
        <pt x="190" y="113" on="0"/>
        <pt x="212" y="127" on="1"/>
        <pt x="249" y="151" on="0"/>
        <pt x="249" y="171" on="1"/>
        <pt x="249" y="176" on="0"/>
        <pt x="251" y="228" on="0"/>
        <pt x="251" y="233" on="1"/>
        <pt x="217" y="221" on="0"/>
      </contour>
    </TTGlyph>
    <TTGlyph name="asciicircum" xMin="55" yMin="165" xMax="563" yMax="495">
      <contour>
        <pt x="139" y="165" on="1"/>
        <pt x="127" y="165" on="0"/>
        <pt x="55" y="220" on="0"/>
        <pt x="55" y="230" on="1"/>
        <pt x="55" y="246" on="0"/>
        <pt x="286" y="495" on="0"/>
        <pt x="332" y="495" on="0"/>
        <pt x="563" y="246" on="0"/>
        <pt x="563" y="230" on="1"/>
        <pt x="563" y="220" on="0"/>
        <pt x="492" y="165" on="0"/>
        <pt x="479" y="165" on="1"/>
        <pt x="474" y="165" on="0"/>
        <pt x="414" y="224" on="0"/>
        <pt x="330" y="307" on="0"/>
        <pt x="309" y="325" on="1"/>
        <pt x="288" y="307" on="0"/>
        <pt x="204" y="224" on="0"/>
        <pt x="144" y="165" on="0"/>
      </contour>
    </TTGlyph>
    <TTGlyph name="asciitilde" xMin="55" yMin="214" xMax="489" yMax="394">
      <contour>
        <pt x="489" y="312" on="0"/>
        <pt x="351" y="214" on="0"/>
        <pt x="326" y="214" on="0"/>
        <pt x="224" y="270" on="0"/>
        <pt x="209" y="274" on="1"/>
        <pt x="193" y="270" on="0"/>
        <pt x="135" y="224" on="0"/>
        <pt x="119" y="224" on="0"/>
        <pt x="55" y="271" on="0"/>
        <pt x="55" y="279" on="1"/>
        <pt x="55" y="296" on="0"/>
        <pt x="193" y="394" on="0"/>
        <pt x="209" y="394" on="1"/>
        <pt x="217" y="394" on="0"/>
        <pt x="320" y="338" on="0"/>
        <pt x="335" y="334" on="1"/>
        <pt x="351" y="338" on="0"/>
        <pt x="409" y="384" on="0"/>
        <pt x="425" y="384" on="0"/>
        <pt x="489" y="337" on="0"/>
        <pt x="489" y="329" on="1"/>
      </contour>
    </TTGlyph>
    <TTGlyph name="asterisk" xMin="50" yMin="372" xMax="438" yMax="750">
      <contour>
        <pt x="189" y="541" on="1"/>
        <pt x="150" y="536" on="1"/>
        <pt x="95" y="536" on="0"/>
        <pt x="50" y="550" on="1"/>
        <pt x="50" y="580" on="0"/>
        <pt x="73" y="653" on="0"/>
        <pt x="92" y="680" on="1"/>
        <pt x="144" y="662" on="0"/>
        <pt x="209" y="605" on="1"/>
        <pt x="175" y="693" on="0"/>
        <pt x="175" y="740" on="1"/>
        <pt x="205" y="750" on="0"/>
        <pt x="281" y="750" on="0"/>
        <pt x="311" y="740" on="1"/>
        <pt x="311" y="690" on="0"/>
        <pt x="277" y="605" on="1"/>
        <pt x="343" y="663" on="0"/>
        <pt x="395" y="679" on="1"/>
        <pt x="407" y="662" on="0"/>
        <pt x="435" y="587" on="0"/>
        <pt x="438" y="549" on="1"/>
        <pt x="392" y="536" on="0"/>
        <pt x="340" y="536" on="1"/>
        <pt x="335" y="536" on="0"/>
        <pt x="301" y="541" on="0"/>
        <pt x="297" y="541" on="1"/>
        <pt x="373" y="495" on="0"/>
        <pt x="404" y="453" on="1"/>
        <pt x="389" y="430" on="0"/>
        <pt x="328" y="383" on="0"/>
        <pt x="294" y="372" on="1"/>
        <pt x="266" y="412" on="0"/>
        <pt x="243" y="502" on="1"/>
        <pt x="220" y="412" on="0"/>
        <pt x="192" y="373" on="1"/>
        <pt x="167" y="380" on="0"/>
        <pt x="100" y="426" on="0"/>
        <pt x="81" y="453" on="1"/>
        <pt x="115" y="499" on="0"/>
      </contour>
    </TTGlyph>
    <TTGlyph name="at" xMin="55" yMin="-12" xMax="589" yMax="712">
      <contour>
        <pt x="201" y="503" on="0"/>
        <pt x="293" y="566" on="0"/>
        <pt x="347" y="566" on="0"/>
        <pt x="450" y="481" on="0"/>
        <pt x="468" y="443" on="0"/>
        <pt x="468" y="302" on="0"/>
        <pt x="472" y="284" on="1"/>
        <pt x="476" y="249" on="0"/>
        <pt x="505" y="222" on="1"/>
        <pt x="519" y="248" on="0"/>
        <pt x="519" y="331" on="1"/>
        <pt x="519" y="369" on="1"/>
        <pt x="519" y="476" on="0"/>
        <pt x="483" y="545" on="0"/>
        <pt x="363" y="637" on="0"/>
        <pt x="283" y="637" on="0"/>
        <pt x="156" y="543" on="0"/>
        <pt x="143" y="510" on="1"/>
        <pt x="125" y="460" on="0"/>
        <pt x="125" y="369" on="1"/>
        <pt x="125" y="331" on="1"/>
        <pt x="125" y="244" on="0"/>
        <pt x="143" y="190" on="1"/>
        <pt x="154" y="157" on="0"/>
        <pt x="282" y="63" on="0"/>
        <pt x="350" y="63" on="0"/>
        <pt x="387" y="84" on="1"/>
        <pt x="446" y="41" on="1"/>
        <pt x="365" y="-12" on="0"/>
        <pt x="274" y="-12" on="0"/>
        <pt x="92" y="119" on="0"/>
        <pt x="76" y="160" on="1"/>
        <pt x="55" y="215" on="0"/>
        <pt x="55" y="331" on="1"/>
        <pt x="55" y="369" on="1"/>
        <pt x="55" y="491" on="0"/>
        <pt x="93" y="581" on="0"/>
        <pt x="275" y="712" on="0"/>
        <pt x="370" y="712" on="0"/>
        <pt x="552" y="581" on="0"/>
        <pt x="568" y="540" on="1"/>
        <pt x="589" y="485" on="0"/>
        <pt x="589" y="369" on="1"/>
        <pt x="589" y="331" on="1"/>
        <pt x="589" y="233" on="0"/>
        <pt x="578" y="200" on="1"/>
        <pt x="573" y="186" on="0"/>
        <pt x="516" y="129" on="0"/>
        <pt x="493" y="129" on="0"/>
        <pt x="414" y="182" on="0"/>
        <pt x="403" y="196" on="1"/>
        <pt x="329" y="131" on="0"/>
        <pt x="300" y="131" on="1"/>
        <pt x="286" y="131" on="0"/>
        <pt x="183" y="238" on="0"/>
        <pt x="169" y="279" on="0"/>
        <pt x="169" y="443" on="0"/>
        <pt x="182" y="466" on="1"/>
      </contour>
      <contour>
        <pt x="365" y="278" on="1"/>
        <pt x="364" y="404" on="1"/>
        <pt x="364" y="425" on="0"/>
        <pt x="329" y="466" on="0"/>
        <pt x="313" y="466" on="0"/>
        <pt x="286" y="444" on="0"/>
        <pt x="273" y="424" on="0"/>
        <pt x="273" y="282" on="0"/>
        <pt x="285" y="262" on="1"/>
        <pt x="290" y="254" on="0"/>
        <pt x="312" y="235" on="0"/>
        <pt x="325" y="235" on="0"/>
        <pt x="355" y="254" on="0"/>
        <pt x="359" y="261" on="1"/>
      </contour>
    </TTGlyph>
    <TTGlyph name="atilde" xMin="30" yMin="-12" xMax="457" yMax="750">
      <contour>
        <pt x="410" y="539" on="1"/>
        <pt x="410" y="129" on="1"/>
        <pt x="416" y="94" on="0"/>
        <pt x="457" y="67" on="1"/>
        <pt x="367" y="-10" on="1"/>
        <pt x="354" y="-1" on="0"/>
        <pt x="316" y="45" on="0"/>
        <pt x="303" y="69" on="1"/>
        <pt x="220" y="-12" on="0"/>
        <pt x="187" y="-12" on="1"/>
        <pt x="163" y="-12" on="0"/>
        <pt x="56" y="94" on="0"/>
        <pt x="30" y="160" on="0"/>
        <pt x="30" y="379" on="0"/>
        <pt x="56" y="445" on="0"/>
        <pt x="163" y="551" on="0"/>
        <pt x="187" y="551" on="1"/>
        <pt x="222" y="551" on="0"/>
        <pt x="300" y="479" on="1"/>
        <pt x="312" y="539" on="1"/>
      </contour>
      <contour>
        <pt x="264" y="399" on="0"/>
        <pt x="221" y="426" on="0"/>
        <pt x="199" y="426" on="0"/>
        <pt x="174" y="400" on="0"/>
        <pt x="170" y="389" on="1"/>
        <pt x="157" y="371" on="0"/>
        <pt x="157" y="168" on="0"/>
        <pt x="170" y="150" on="1"/>
        <pt x="174" y="140" on="0"/>
        <pt x="199" y="113" on="0"/>
        <pt x="221" y="113" on="0"/>
        <pt x="264" y="140" on="0"/>
        <pt x="277" y="162" on="0"/>
        <pt x="278" y="268" on="1"/>
        <pt x="278" y="374" on="0"/>
      </contour>
      <contour>
        <pt x="406" y="699" on="0"/>
        <pt x="283" y="580" on="0"/>
        <pt x="260" y="580" on="0"/>
        <pt x="182" y="640" on="1"/>
        <pt x="104" y="580" on="0"/>
        <pt x="86" y="580" on="0"/>
        <pt x="48" y="618" on="0"/>
        <pt x="48" y="631" on="0"/>
        <pt x="171" y="750" on="0"/>
        <pt x="194" y="750" on="0"/>
        <pt x="272" y="690" on="1"/>
        <pt x="350" y="750" on="0"/>
        <pt x="368" y="750" on="0"/>
        <pt x="406" y="712" on="0"/>
      </contour>
    </TTGlyph>
    <TTGlyph name="atilde.salt" xMin="10" yMin="-12" xMax="430" yMax="750">
      <contour>
        <pt x="401" y="699" on="0"/>
        <pt x="278" y="580" on="0"/>
        <pt x="255" y="580" on="0"/>
        <pt x="177" y="640" on="1"/>
        <pt x="99" y="580" on="0"/>
        <pt x="81" y="580" on="0"/>
        <pt x="43" y="618" on="0"/>
        <pt x="43" y="631" on="0"/>
        <pt x="166" y="750" on="0"/>
        <pt x="189" y="750" on="0"/>
        <pt x="267" y="690" on="1"/>
        <pt x="345" y="750" on="0"/>
        <pt x="363" y="750" on="0"/>
        <pt x="401" y="712" on="0"/>
      </contour>
      <contour>
        <pt x="158" y="-12" on="1"/>
        <pt x="137" y="-12" on="0"/>
        <pt x="10" y="113" on="0"/>
        <pt x="10" y="186" on="0"/>
        <pt x="165" y="312" on="0"/>
        <pt x="248" y="349" on="1"/>
        <pt x="248" y="377" on="0"/>
        <pt x="210" y="436" on="0"/>
        <pt x="196" y="436" on="1"/>
        <pt x="171" y="436" on="0"/>
        <pt x="123" y="354" on="1"/>
        <pt x="20" y="425" on="1"/>
        <pt x="48" y="474" on="0"/>
        <pt x="158" y="551" on="0"/>
        <pt x="225" y="551" on="0"/>
        <pt x="343" y="451" on="0"/>
        <pt x="357" y="426" on="1"/>
        <pt x="378" y="386" on="0"/>
        <pt x="378" y="161" on="0"/>
        <pt x="389" y="94" on="0"/>
        <pt x="430" y="67" on="1"/>
        <pt x="340" y="-10" on="1"/>
        <pt x="327" y="-1" on="0"/>
        <pt x="289" y="45" on="0"/>
        <pt x="276" y="69" on="1"/>
        <pt x="193" y="-12" on="0"/>
      </contour>
      <contour>
        <pt x="144" y="173" on="0"/>
        <pt x="144" y="151" on="0"/>
        <pt x="171" y="113" on="0"/>
        <pt x="190" y="113" on="0"/>
        <pt x="212" y="127" on="1"/>
        <pt x="249" y="151" on="0"/>
        <pt x="249" y="171" on="1"/>
        <pt x="249" y="176" on="0"/>
        <pt x="251" y="228" on="0"/>
        <pt x="251" y="233" on="1"/>
        <pt x="217" y="221" on="0"/>
      </contour>
    </TTGlyph>
    <TTGlyph name="b" xMin="15" yMin="-12" xMax="438" yMax="750">
      <contour>
        <pt x="65" y="0" on="1"/>
        <pt x="65" y="546" on="1"/>
        <pt x="65" y="597" on="0"/>
        <pt x="41" y="651" on="0"/>
        <pt x="15" y="673" on="1"/>
        <pt x="125" y="750" on="1"/>
        <pt x="197" y="693" on="0"/>
        <pt x="197" y="589" on="1"/>
        <pt x="197" y="498" on="1"/>
        <pt x="257" y="551" on="0"/>
        <pt x="310" y="551" on="0"/>
        <pt x="419" y="444" on="0"/>
        <pt x="427" y="419" on="1"/>
        <pt x="438" y="394" on="0"/>
        <pt x="438" y="145" on="0"/>
        <pt x="427" y="120" on="1"/>
        <pt x="419" y="95" on="0"/>
        <pt x="310" y="-12" on="0"/>
        <pt x="286" y="-12" on="1"/>
        <pt x="251" y="-12" on="0"/>
        <pt x="174" y="61" on="1"/>
        <pt x="163" y="0" on="1"/>
      </contour>
      <contour>
        <pt x="209" y="140" on="0"/>
        <pt x="252" y="113" on="0"/>
        <pt x="274" y="113" on="0"/>
        <pt x="299" y="139" on="0"/>
        <pt x="311" y="167" on="0"/>
        <pt x="311" y="372" on="0"/>
        <pt x="299" y="399" on="0"/>
        <pt x="274" y="426" on="0"/>
        <pt x="253" y="426" on="0"/>
        <pt x="210" y="399" on="0"/>
        <pt x="203" y="389" on="1"/>
        <pt x="195" y="372" on="0"/>
        <pt x="195" y="165" on="0"/>
      </contour>
    </TTGlyph>
    <TTGlyph name="backslash" xMin="55" yMin="-250" xMax="565" yMax="750">
      <contour>
        <pt x="455" y="-250" on="1"/>
        <pt x="55" y="690" on="1"/>
        <pt x="68" y="707" on="0"/>
        <pt x="152" y="750" on="0"/>
        <pt x="165" y="750" on="1"/>
        <pt x="565" y="-190" on="1"/>
        <pt x="552" y="-207" on="0"/>
        <pt x="468" y="-250" on="0"/>
      </contour>
    </TTGlyph>
    <TTGlyph name="bar" xMin="55" yMin="-250" xMax="145" yMax="750">
      <contour>
        <pt x="55" y="-250" on="1"/>
        <pt x="55" y="750" on="1"/>
        <pt x="145" y="750" on="1"/>
        <pt x="145" y="-250" on="1"/>
      </contour>
    </TTGlyph>
    <TTGlyph name="braceleft" xMin="35" yMin="-250" xMax="357" yMax="750">
      <contour>
        <pt x="255" y="88" on="1"/>
        <pt x="255" y="-25" on="1"/>
        <pt x="255" y="-82" on="0"/>
        <pt x="288" y="-129" on="0"/>
        <pt x="357" y="-171" on="1"/>
        <pt x="246" y="-250" on="1"/>
        <pt x="165" y="-186" on="0"/>
        <pt x="105" y="-93" on="0"/>
        <pt x="105" y="-15" on="1"/>
        <pt x="105" y="100" on="1"/>
        <pt x="105" y="151" on="0"/>
        <pt x="77" y="193" on="0"/>
        <pt x="35" y="222" on="1"/>
        <pt x="35" y="278" on="1"/>
        <pt x="77" y="307" on="0"/>
        <pt x="105" y="349" on="0"/>
        <pt x="105" y="400" on="1"/>
        <pt x="105" y="515" on="1"/>
        <pt x="105" y="593" on="0"/>
        <pt x="165" y="686" on="0"/>
        <pt x="246" y="750" on="1"/>
        <pt x="357" y="671" on="1"/>
        <pt x="288" y="629" on="0"/>
        <pt x="255" y="582" on="0"/>
        <pt x="255" y="525" on="1"/>
        <pt x="255" y="412" on="1"/>
        <pt x="255" y="312" on="0"/>
        <pt x="157" y="250" on="1"/>
        <pt x="255" y="188" on="0"/>
      </contour>
    </TTGlyph>
    <TTGlyph name="braceright" xMin="55" yMin="-250" xMax="377" yMax="750">
      <contour>
        <pt x="157" y="412" on="1"/>
        <pt x="157" y="525" on="1"/>
        <pt x="157" y="582" on="0"/>
        <pt x="124" y="629" on="0"/>
        <pt x="55" y="671" on="1"/>
        <pt x="166" y="750" on="1"/>
        <pt x="247" y="686" on="0"/>
        <pt x="307" y="593" on="0"/>
        <pt x="307" y="515" on="1"/>
        <pt x="307" y="400" on="1"/>
        <pt x="307" y="349" on="0"/>
        <pt x="335" y="307" on="0"/>
        <pt x="377" y="278" on="1"/>
        <pt x="377" y="222" on="1"/>
        <pt x="335" y="193" on="0"/>
        <pt x="307" y="151" on="0"/>
        <pt x="307" y="100" on="1"/>
        <pt x="307" y="-15" on="1"/>
        <pt x="307" y="-93" on="0"/>
        <pt x="247" y="-186" on="0"/>
        <pt x="166" y="-250" on="1"/>
        <pt x="55" y="-171" on="1"/>
        <pt x="124" y="-129" on="0"/>
        <pt x="157" y="-82" on="0"/>
        <pt x="157" y="-25" on="1"/>
        <pt x="157" y="88" on="1"/>
        <pt x="157" y="188" on="0"/>
        <pt x="255" y="250" on="1"/>
        <pt x="157" y="312" on="0"/>
      </contour>
    </TTGlyph>
    <TTGlyph name="bracketleft" xMin="55" yMin="-250" xMax="338" yMax="750">
      <contour>
        <pt x="171" y="750" on="1"/>
        <pt x="298" y="750" on="0"/>
        <pt x="338" y="724" on="1"/>
        <pt x="295" y="630" on="1"/>
        <pt x="265" y="640" on="0"/>
        <pt x="195" y="640" on="1"/>
        <pt x="195" y="-140" on="1"/>
        <pt x="265" y="-140" on="0"/>
        <pt x="295" y="-130" on="1"/>
        <pt x="338" y="-224" on="1"/>
        <pt x="298" y="-250" on="0"/>
        <pt x="171" y="-250" on="1"/>
        <pt x="160" y="-250" on="0"/>
        <pt x="59" y="-192" on="0"/>
        <pt x="55" y="-183" on="1"/>
        <pt x="55" y="683" on="1"/>
        <pt x="59" y="692" on="0"/>
        <pt x="160" y="750" on="0"/>
      </contour>
    </TTGlyph>
    <TTGlyph name="bracketright" xMin="55" yMin="-250" xMax="338" yMax="750">
      <contour>
        <pt x="222" y="-250" on="1"/>
        <pt x="95" y="-250" on="0"/>
        <pt x="55" y="-224" on="1"/>
        <pt x="98" y="-130" on="1"/>
        <pt x="128" y="-140" on="0"/>
        <pt x="198" y="-140" on="1"/>
        <pt x="198" y="640" on="1"/>
        <pt x="128" y="640" on="0"/>
        <pt x="98" y="630" on="1"/>
        <pt x="55" y="724" on="1"/>
        <pt x="95" y="750" on="0"/>
        <pt x="222" y="750" on="1"/>
        <pt x="233" y="750" on="0"/>
        <pt x="334" y="692" on="0"/>
        <pt x="338" y="683" on="1"/>
        <pt x="338" y="-183" on="1"/>
        <pt x="334" y="-192" on="0"/>
        <pt x="233" y="-250" on="0"/>
      </contour>
    </TTGlyph>
    <TTGlyph name="brokenbar" xMin="55" yMin="-250" xMax="145" yMax="750">
      <contour>
        <pt x="55" y="750" on="1"/>
        <pt x="145" y="750" on="1"/>
        <pt x="145" y="396" on="1"/>
        <pt x="55" y="333" on="1"/>
      </contour>
      <contour>
        <pt x="145" y="-250" on="1"/>
        <pt x="55" y="-250" on="1"/>
        <pt x="55" y="123" on="1"/>
        <pt x="145" y="186" on="1"/>
      </contour>
    </TTGlyph>
    <TTGlyph name="bullet" xMin="55" yMin="159" xMax="322" yMax="394">
      <contour>
        <pt x="206" y="394" on="0"/>
        <pt x="322" y="296" on="0"/>
        <pt x="322" y="260" on="0"/>
        <pt x="206" y="159" on="0"/>
        <pt x="173" y="159" on="0"/>
        <pt x="55" y="261" on="0"/>
        <pt x="55" y="296" on="0"/>
        <pt x="174" y="394" on="0"/>
      </contour>
    </TTGlyph>
    <TTGlyph name="c" xMin="30" yMin="-12" xMax="388" yMax="551">
      <contour>
        <pt x="51" y="110" on="1"/>
        <pt x="30" y="143" on="0"/>
        <pt x="30" y="395" on="0"/>
        <pt x="51" y="429" on="1"/>
        <pt x="66" y="454" on="0"/>
        <pt x="184" y="551" on="0"/>
        <pt x="249" y="551" on="0"/>
        <pt x="360" y="474" on="0"/>
        <pt x="388" y="425" on="1"/>
        <pt x="285" y="354" on="1"/>
        <pt x="272" y="378" on="0"/>
        <pt x="227" y="436" on="0"/>
        <pt x="216" y="436" on="1"/>
        <pt x="196" y="436" on="0"/>
        <pt x="170" y="394" on="1"/>
        <pt x="157" y="368" on="0"/>
        <pt x="157" y="171" on="0"/>
        <pt x="170" y="145" on="1"/>
        <pt x="178" y="132" on="0"/>
        <pt x="204" y="103" on="0"/>
        <pt x="230" y="103" on="0"/>
        <pt x="272" y="149" on="0"/>
        <pt x="285" y="185" on="1"/>
        <pt x="388" y="113" on="1"/>
        <pt x="361" y="63" on="0"/>
        <pt x="250" y="-12" on="0"/>
        <pt x="184" y="-12" on="0"/>
        <pt x="66" y="85" on="0"/>
      </contour>
    </TTGlyph>
    <TTGlyph name="caron" xMin="55" yMin="580" xMax="323" yMax="750">
      <contour>
        <pt x="189" y="690" on="1"/>
        <pt x="267" y="750" on="0"/>
        <pt x="285" y="750" on="0"/>
        <pt x="323" y="712" on="0"/>
        <pt x="323" y="699" on="0"/>
        <pt x="200" y="580" on="0"/>
        <pt x="178" y="580" on="0"/>
        <pt x="55" y="699" on="0"/>
        <pt x="55" y="712" on="0"/>
        <pt x="93" y="750" on="0"/>
        <pt x="111" y="750" on="0"/>
      </contour>
    </TTGlyph>
    <TTGlyph name="ccedilla" xMin="30" yMin="-250" xMax="388" yMax="551">
      <contour>
        <pt x="127" y="-86" on="1"/>
        <pt x="127" y="-74" on="0"/>
        <pt x="180" y="-2" on="1"/>
        <pt x="147" y="15" on="0"/>
        <pt x="62" y="92" on="0"/>
        <pt x="51" y="110" on="1"/>
        <pt x="30" y="143" on="0"/>
        <pt x="30" y="395" on="0"/>
        <pt x="51" y="429" on="1"/>
        <pt x="66" y="454" on="0"/>
        <pt x="184" y="551" on="0"/>
        <pt x="249" y="551" on="0"/>
        <pt x="360" y="474" on="0"/>
        <pt x="388" y="425" on="1"/>
        <pt x="285" y="354" on="1"/>
        <pt x="272" y="378" on="0"/>
        <pt x="227" y="436" on="0"/>
        <pt x="216" y="436" on="1"/>
        <pt x="196" y="436" on="0"/>
        <pt x="170" y="394" on="1"/>
        <pt x="157" y="368" on="0"/>
        <pt x="157" y="171" on="0"/>
        <pt x="170" y="145" on="1"/>
        <pt x="178" y="132" on="0"/>
        <pt x="204" y="103" on="0"/>
        <pt x="230" y="103" on="0"/>
        <pt x="272" y="149" on="0"/>
        <pt x="285" y="185" on="1"/>
        <pt x="388" y="113" on="1"/>
        <pt x="366" y="73" on="0"/>
        <pt x="287" y="9" on="0"/>
        <pt x="248" y="-4" on="1"/>
        <pt x="231" y="-27" on="0"/>
        <pt x="207" y="-56" on="1"/>
        <pt x="236" y="-83" on="0"/>
        <pt x="268" y="-111" on="0"/>
        <pt x="278" y="-120" on="1"/>
        <pt x="297" y="-139" on="0"/>
        <pt x="297" y="-155" on="0"/>
        <pt x="178" y="-250" on="0"/>
        <pt x="165" y="-250" on="0"/>
        <pt x="127" y="-212" on="0"/>
        <pt x="127" y="-200" on="0"/>
        <pt x="187" y="-146" on="1"/>
        <pt x="127" y="-92" on="0"/>
      </contour>
    </TTGlyph>
    <TTGlyph name="cedilla" xMin="55" yMin="-250" xMax="225" yMax="48">
      <contour>
        <pt x="55" y="-86" on="1"/>
        <pt x="55" y="-75" on="0"/>
        <pt x="145" y="48" on="0"/>
        <pt x="150" y="48" on="1"/>
        <pt x="157" y="48" on="0"/>
        <pt x="195" y="27" on="0"/>
        <pt x="195" y="24" on="1"/>
        <pt x="195" y="14" on="0"/>
        <pt x="135" y="-56" on="1"/>
        <pt x="164" y="-83" on="0"/>
        <pt x="196" y="-111" on="0"/>
        <pt x="206" y="-120" on="1"/>
        <pt x="225" y="-139" on="0"/>
        <pt x="225" y="-155" on="0"/>
        <pt x="106" y="-250" on="0"/>
        <pt x="93" y="-250" on="0"/>
        <pt x="55" y="-212" on="0"/>
        <pt x="55" y="-200" on="0"/>
        <pt x="115" y="-146" on="1"/>
        <pt x="55" y="-92" on="0"/>
      </contour>
    </TTGlyph>
    <TTGlyph name="cent" xMin="35" yMin="0" xMax="413" yMax="700">
      <contour>
        <pt x="271" y="0" on="1"/>
        <pt x="181" y="0" on="1"/>
        <pt x="181" y="114" on="1"/>
        <pt x="141" y="136" on="0"/>
        <pt x="54" y="212" on="0"/>
        <pt x="35" y="250" on="0"/>
        <pt x="35" y="452" on="0"/>
        <pt x="46" y="470" on="1"/>
        <pt x="54" y="487" on="0"/>
        <pt x="141" y="563" on="0"/>
        <pt x="181" y="585" on="1"/>
        <pt x="181" y="700" on="1"/>
        <pt x="271" y="700" on="1"/>
        <pt x="271" y="593" on="1"/>
        <pt x="311" y="578" on="0"/>
        <pt x="392" y="515" on="0"/>
        <pt x="413" y="478" on="1"/>
        <pt x="300" y="400" on="1"/>
        <pt x="292" y="411" on="1"/>
        <pt x="248" y="467" on="0"/>
        <pt x="227" y="467" on="1"/>
        <pt x="217" y="467" on="0"/>
        <pt x="186" y="441" on="0"/>
        <pt x="172" y="415" on="0"/>
        <pt x="172" y="285" on="0"/>
        <pt x="186" y="259" on="0"/>
        <pt x="217" y="233" on="0"/>
        <pt x="233" y="233" on="0"/>
        <pt x="251" y="244" on="0"/>
        <pt x="260" y="254" on="1"/>
        <pt x="276" y="269" on="0"/>
        <pt x="292" y="289" on="1"/>
        <pt x="300" y="300" on="1"/>
        <pt x="413" y="222" on="1"/>
        <pt x="392" y="185" on="0"/>
        <pt x="311" y="122" on="0"/>
        <pt x="271" y="107" on="1"/>
      </contour>
    </TTGlyph>
    <TTGlyph name="circumflex" xMin="35" yMin="580" xMax="303" yMax="750">
      <contour>
        <pt x="169" y="640" on="1"/>
        <pt x="91" y="580" on="0"/>
        <pt x="73" y="580" on="0"/>
        <pt x="35" y="618" on="0"/>
        <pt x="35" y="631" on="0"/>
        <pt x="158" y="750" on="0"/>
        <pt x="180" y="750" on="0"/>
        <pt x="303" y="631" on="0"/>
        <pt x="303" y="618" on="0"/>
        <pt x="265" y="580" on="0"/>
        <pt x="247" y="580" on="0"/>
      </contour>
    </TTGlyph>
    <TTGlyph name="colon" xMin="55" yMin="-12" xMax="244" yMax="456">
      <contour>
        <pt x="166" y="456" on="0"/>
        <pt x="244" y="390" on="0"/>
        <pt x="244" y="367" on="0"/>
        <pt x="166" y="299" on="0"/>
        <pt x="144" y="299" on="0"/>
        <pt x="66" y="367" on="0"/>
        <pt x="66" y="390" on="0"/>
        <pt x="145" y="456" on="0"/>
      </contour>
      <contour>
        <pt x="155" y="145" on="0"/>
        <pt x="233" y="79" on="0"/>
        <pt x="233" y="56" on="0"/>
        <pt x="155" y="-12" on="0"/>
        <pt x="133" y="-12" on="0"/>
        <pt x="55" y="56" on="0"/>
        <pt x="55" y="79" on="0"/>
        <pt x="134" y="145" on="0"/>
      </contour>
    </TTGlyph>
    <TTGlyph name="comma" xMin="45" yMin="-118" xMax="234" yMax="145">
      <contour>
        <pt x="234" y="66" on="1"/>
        <pt x="234" y="41" on="0"/>
        <pt x="77" y="-118" on="0"/>
        <pt x="69" y="-118" on="1"/>
        <pt x="66" y="-118" on="0"/>
        <pt x="45" y="-98" on="0"/>
        <pt x="45" y="-93" on="1"/>
        <pt x="45" y="-77" on="0"/>
        <pt x="101" y="15" on="1"/>
        <pt x="56" y="52" on="0"/>
        <pt x="56" y="78" on="0"/>
        <pt x="135" y="145" on="0"/>
        <pt x="156" y="145" on="0"/>
        <pt x="234" y="78" on="0"/>
      </contour>
    </TTGlyph>
    <TTGlyph name="commaaccent" xMin="55" yMin="-250" xMax="215" yMax="-34">
      <contour>
        <pt x="145" y="-34" on="0"/>
        <pt x="215" y="-94" on="0"/>
        <pt x="215" y="-122" on="0"/>
        <pt x="87" y="-250" on="0"/>
        <pt x="79" y="-250" on="1"/>
        <pt x="76" y="-250" on="0"/>
        <pt x="55" y="-230" on="0"/>
        <pt x="55" y="-222" on="0"/>
        <pt x="95" y="-151" on="1"/>
        <pt x="55" y="-115" on="0"/>
        <pt x="55" y="-94" on="0"/>
        <pt x="126" y="-34" on="0"/>
      </contour>
    </TTGlyph>
    <TTGlyph name="copyright" xMin="55" yMin="-12" xMax="609" yMax="712">
      <contour>
        <pt x="295" y="60" on="0"/>
        <pt x="369" y="60" on="0"/>
        <pt x="514" y="161" on="0"/>
        <pt x="539" y="234" on="0"/>
        <pt x="539" y="473" on="0"/>
        <pt x="513" y="540" on="0"/>
        <pt x="369" y="642" on="0"/>
        <pt x="295" y="642" on="0"/>
        <pt x="151" y="540" on="0"/>
        <pt x="125" y="473" on="0"/>
        <pt x="125" y="234" on="0"/>
        <pt x="150" y="161" on="0"/>
      </contour>
      <contour>
        <pt x="365" y="-12" on="0"/>
        <pt x="299" y="-12" on="0"/>
        <pt x="183" y="52" on="0"/>
        <pt x="86" y="134" on="0"/>
        <pt x="76" y="160" on="1"/>
        <pt x="55" y="216" on="0"/>
        <pt x="55" y="491" on="0"/>
        <pt x="76" y="541" on="1"/>
        <pt x="94" y="583" on="0"/>
        <pt x="282" y="712" on="0"/>
        <pt x="382" y="712" on="0"/>
        <pt x="570" y="583" on="0"/>
        <pt x="588" y="541" on="1"/>
        <pt x="609" y="491" on="0"/>
        <pt x="609" y="216" on="0"/>
        <pt x="588" y="160" on="1"/>
        <pt x="578" y="134" on="0"/>
        <pt x="481" y="52" on="0"/>
      </contour>
      <contour>
        <pt x="361" y="304" on="1"/>
        <pt x="466" y="304" on="1"/>
        <pt x="466" y="249" on="0"/>
        <pt x="460" y="237" on="1"/>
        <pt x="448" y="212" on="0"/>
        <pt x="356" y="134" on="0"/>
        <pt x="308" y="134" on="0"/>
        <pt x="216" y="212" on="0"/>
        <pt x="204" y="237" on="1"/>
        <pt x="198" y="250" on="0"/>
        <pt x="198" y="316" on="1"/>
        <pt x="198" y="386" on="1"/>
        <pt x="198" y="452" on="0"/>
        <pt x="204" y="465" on="1"/>
        <pt x="216" y="490" on="0"/>
        <pt x="308" y="568" on="0"/>
        <pt x="356" y="568" on="0"/>
        <pt x="447" y="490" on="0"/>
        <pt x="460" y="465" on="1"/>
        <pt x="466" y="454" on="0"/>
        <pt x="466" y="398" on="1"/>
        <pt x="361" y="398" on="1"/>
        <pt x="361" y="434" on="0"/>
        <pt x="338" y="465" on="0"/>
        <pt x="332" y="465" on="1"/>
        <pt x="319" y="465" on="0"/>
        <pt x="308" y="437" on="1"/>
        <pt x="303" y="424" on="0"/>
        <pt x="303" y="386" on="1"/>
        <pt x="303" y="316" on="1"/>
        <pt x="303" y="278" on="0"/>
        <pt x="308" y="265" on="1"/>
        <pt x="320" y="237" on="0"/>
        <pt x="332" y="237" on="1"/>
        <pt x="338" y="237" on="0"/>
        <pt x="346" y="247" on="1"/>
        <pt x="361" y="266" on="0"/>
      </contour>
    </TTGlyph>
    <TTGlyph name="currency" xMin="55" yMin="45" xMax="575" yMax="554">
      <contour>
        <pt x="513" y="418" on="1"/>
        <pt x="570" y="348" on="0"/>
        <pt x="570" y="251" on="0"/>
        <pt x="513" y="181" on="1"/>
        <pt x="520" y="176" on="0"/>
        <pt x="535" y="164" on="0"/>
        <pt x="546" y="156" on="0"/>
        <pt x="557" y="147" on="0"/>
        <pt x="565" y="140" on="0"/>
        <pt x="568" y="138" on="1"/>
        <pt x="575" y="133" on="0"/>
        <pt x="575" y="130" on="1"/>
        <pt x="575" y="118" on="0"/>
        <pt x="494" y="46" on="0"/>
        <pt x="471" y="46" on="0"/>
        <pt x="416" y="88" on="1"/>
        <pt x="356" y="45" on="0"/>
        <pt x="273" y="45" on="0"/>
        <pt x="213" y="88" on="1"/>
        <pt x="161" y="46" on="0"/>
        <pt x="136" y="46" on="0"/>
        <pt x="55" y="118" on="0"/>
        <pt x="55" y="130" on="1"/>
        <pt x="55" y="136" on="0"/>
        <pt x="116" y="181" on="1"/>
        <pt x="60" y="252" on="0"/>
        <pt x="60" y="346" on="0"/>
        <pt x="118" y="418" on="1"/>
        <pt x="55" y="467" on="0"/>
        <pt x="55" y="470" on="1"/>
        <pt x="55" y="483" on="0"/>
        <pt x="135" y="554" on="0"/>
        <pt x="159" y="554" on="0"/>
        <pt x="216" y="509" on="1"/>
        <pt x="276" y="552" on="0"/>
        <pt x="357" y="552" on="0"/>
        <pt x="415" y="510" on="1"/>
        <pt x="471" y="554" on="0"/>
        <pt x="495" y="554" on="0"/>
        <pt x="575" y="483" on="0"/>
        <pt x="575" y="470" on="1"/>
        <pt x="575" y="466" on="0"/>
      </contour>
      <contour>
        <pt x="345" y="162" on="0"/>
        <pt x="438" y="263" on="0"/>
        <pt x="438" y="335" on="0"/>
        <pt x="344" y="437" on="0"/>
        <pt x="288" y="437" on="0"/>
        <pt x="192" y="334" on="0"/>
        <pt x="192" y="263" on="0"/>
        <pt x="285" y="162" on="0"/>
      </contour>
    </TTGlyph>
    <TTGlyph name="d" xMin="30" yMin="-12" xMax="405" yMax="750">
      <contour>
        <pt x="49" y="444" on="0"/>
        <pt x="158" y="551" on="0"/>
        <pt x="210" y="551" on="0"/>
        <pt x="273" y="497" on="1"/>
        <pt x="273" y="546" on="1"/>
        <pt x="273" y="597" on="0"/>
        <pt x="249" y="651" on="0"/>
        <pt x="223" y="673" on="1"/>
        <pt x="333" y="750" on="1"/>
        <pt x="405" y="693" on="0"/>
        <pt x="405" y="589" on="1"/>
        <pt x="405" y="0" on="1"/>
        <pt x="303" y="0" on="1"/>
        <pt x="291" y="59" on="1"/>
        <pt x="218" y="-12" on="0"/>
        <pt x="182" y="-12" on="1"/>
        <pt x="158" y="-12" on="0"/>
        <pt x="49" y="95" on="0"/>
        <pt x="41" y="120" on="1"/>
        <pt x="30" y="145" on="0"/>
        <pt x="30" y="394" on="0"/>
        <pt x="41" y="419" on="1"/>
      </contour>
      <contour>
        <pt x="259" y="399" on="0"/>
        <pt x="216" y="426" on="0"/>
        <pt x="194" y="426" on="0"/>
        <pt x="169" y="400" on="0"/>
        <pt x="157" y="372" on="0"/>
        <pt x="157" y="167" on="0"/>
        <pt x="169" y="140" on="0"/>
        <pt x="194" y="113" on="0"/>
        <pt x="215" y="113" on="0"/>
        <pt x="258" y="140" on="0"/>
        <pt x="265" y="150" on="1"/>
        <pt x="271" y="164" on="0"/>
        <pt x="273" y="231" on="1"/>
        <pt x="273" y="268" on="1"/>
        <pt x="273" y="374" on="0"/>
      </contour>
    </TTGlyph>
    <TTGlyph name="degree" xMin="35" yMin="379" xMax="352" yMax="712">
      <contour>
        <pt x="210" y="481" on="0"/>
        <pt x="249" y="527" on="0"/>
        <pt x="249" y="566" on="0"/>
        <pt x="209" y="612" on="0"/>
        <pt x="179" y="612" on="0"/>
        <pt x="139" y="565" on="0"/>
        <pt x="139" y="526" on="0"/>
        <pt x="178" y="481" on="0"/>
      </contour>
      <contour>
        <pt x="352" y="591" on="0"/>
        <pt x="352" y="503" on="0"/>
        <pt x="236" y="379" on="0"/>
        <pt x="150" y="379" on="0"/>
        <pt x="35" y="502" on="0"/>
        <pt x="35" y="591" on="0"/>
        <pt x="152" y="712" on="0"/>
        <pt x="236" y="712" on="0"/>
      </contour>
    </TTGlyph>
    <TTGlyph name="dieresis" xMin="55" yMin="620" xMax="401" yMax="750">
      <contour>
        <pt x="203" y="695" on="0"/>
        <pt x="203" y="675" on="0"/>
        <pt x="138" y="620" on="0"/>
        <pt x="120" y="620" on="0"/>
        <pt x="55" y="675" on="0"/>
        <pt x="55" y="695" on="0"/>
        <pt x="121" y="750" on="0"/>
        <pt x="138" y="750" on="0"/>
      </contour>
      <contour>
        <pt x="401" y="695" on="0"/>
        <pt x="401" y="675" on="0"/>
        <pt x="336" y="620" on="0"/>
        <pt x="318" y="620" on="0"/>
        <pt x="253" y="675" on="0"/>
        <pt x="253" y="695" on="0"/>
        <pt x="319" y="750" on="0"/>
        <pt x="336" y="750" on="0"/>
      </contour>
    </TTGlyph>
    <TTGlyph name="divide" xMin="55" yMin="72" xMax="439" yMax="528">
      <contour>
        <pt x="55" y="241" on="1"/>
        <pt x="55" y="359" on="1"/>
        <pt x="439" y="359" on="1"/>
        <pt x="439" y="241" on="1"/>
      </contour>
      <contour>
        <pt x="250" y="528" on="0"/>
        <pt x="320" y="469" on="0"/>
        <pt x="320" y="448" on="0"/>
        <pt x="250" y="387" on="0"/>
        <pt x="230" y="387" on="0"/>
        <pt x="160" y="448" on="0"/>
        <pt x="160" y="469" on="0"/>
        <pt x="231" y="528" on="0"/>
      </contour>
      <contour>
        <pt x="250" y="213" on="0"/>
        <pt x="320" y="154" on="0"/>
        <pt x="320" y="133" on="0"/>
        <pt x="250" y="72" on="0"/>
        <pt x="230" y="72" on="0"/>
        <pt x="160" y="133" on="0"/>
        <pt x="160" y="154" on="0"/>
        <pt x="231" y="213" on="0"/>
      </contour>
    </TTGlyph>
    <TTGlyph name="dollar" xMin="45" yMin="0" xMax="419" yMax="700">
      <contour>
        <pt x="231" y="203" on="0"/>
        <pt x="248" y="203" on="0"/>
        <pt x="284" y="230" on="0"/>
        <pt x="284" y="245" on="0"/>
        <pt x="258" y="267" on="0"/>
        <pt x="157" y="314" on="0"/>
        <pt x="71" y="368" on="0"/>
        <pt x="45" y="420" on="0"/>
        <pt x="45" y="478" on="0"/>
        <pt x="65" y="520" on="0"/>
        <pt x="156" y="602" on="0"/>
        <pt x="193" y="621" on="1"/>
        <pt x="193" y="700" on="1"/>
        <pt x="283" y="700" on="1"/>
        <pt x="283" y="618" on="1"/>
        <pt x="372" y="578" on="0"/>
        <pt x="413" y="508" on="1"/>
        <pt x="300" y="430" on="1"/>
        <pt x="292" y="441" on="1"/>
        <pt x="248" y="497" on="0"/>
        <pt x="227" y="497" on="1"/>
        <pt x="216" y="497" on="0"/>
        <pt x="180" y="470" on="0"/>
        <pt x="180" y="453" on="0"/>
        <pt x="205" y="433" on="0"/>
        <pt x="304" y="383" on="0"/>
        <pt x="393" y="328" on="0"/>
        <pt x="419" y="283" on="0"/>
        <pt x="419" y="194" on="0"/>
        <pt x="390" y="156" on="0"/>
        <pt x="317" y="100" on="0"/>
        <pt x="283" y="82" on="1"/>
        <pt x="283" y="0" on="1"/>
        <pt x="193" y="0" on="1"/>
        <pt x="193" y="83" on="1"/>
        <pt x="154" y="96" on="0"/>
        <pt x="71" y="157" on="0"/>
        <pt x="51" y="192" on="1"/>
        <pt x="164" y="270" on="1"/>
        <pt x="172" y="259" on="1"/>
        <pt x="202" y="221" on="0"/>
      </contour>
    </TTGlyph>
    <TTGlyph name="dotaccent" xMin="55" yMin="607" xMax="217" yMax="750">
      <contour>
        <pt x="217" y="690" on="0"/>
        <pt x="217" y="668" on="0"/>
        <pt x="146" y="607" on="0"/>
        <pt x="126" y="607" on="0"/>
        <pt x="55" y="668" on="0"/>
        <pt x="55" y="690" on="0"/>
        <pt x="127" y="750" on="0"/>
        <pt x="146" y="750" on="0"/>
      </contour>
    </TTGlyph>
    <TTGlyph name="dotaccentcmb" xMin="55" yMin="607" xMax="217" yMax="750">
      <contour>
        <pt x="217" y="690" on="0"/>
        <pt x="217" y="668" on="0"/>
        <pt x="146" y="607" on="0"/>
        <pt x="126" y="607" on="0"/>
        <pt x="55" y="668" on="0"/>
        <pt x="55" y="690" on="0"/>
        <pt x="127" y="750" on="0"/>
        <pt x="146" y="750" on="0"/>
      </contour>
    </TTGlyph>
    <TTGlyph name="dotlessi" xMin="54" yMin="-12" xMax="236" yMax="539">
      <contour>
        <pt x="54" y="539" on="1"/>
        <pt x="186" y="539" on="1"/>
        <pt x="186" y="193" on="1"/>
        <pt x="186" y="142" on="0"/>
        <pt x="210" y="86" on="0"/>
        <pt x="236" y="65" on="1"/>
        <pt x="126" y="-12" on="1"/>
        <pt x="54" y="45" on="0"/>
        <pt x="54" y="150" on="1"/>
      </contour>
    </TTGlyph>
    <TTGlyph name="dotlessj" xMin="-135" yMin="-250" xMax="218" yMax="550">
      <contour>
        <pt x="218" y="388" on="1"/>
        <pt x="218" y="388" on="0"/>
        <pt x="217" y="33" on="1"/>
        <pt x="217" y="-93" on="0"/>
        <pt x="202" y="-118" on="1"/>
        <pt x="191" y="-144" on="0"/>
        <pt x="61" y="-250" on="0"/>
        <pt x="-5" y="-250" on="0"/>
        <pt x="-109" y="-181" on="0"/>
        <pt x="-135" y="-136" on="1"/>
        <pt x="-32" y="-65" on="1"/>
        <pt x="-22" y="-78" on="1"/>
        <pt x="15" y="-125" on="0"/>
        <pt x="42" y="-125" on="0"/>
        <pt x="73" y="-99" on="0"/>
        <pt x="86" y="-73" on="0"/>
        <pt x="86" y="8" on="1"/>
        <pt x="86" y="345" on="1"/>
        <pt x="86" y="396" on="0"/>
        <pt x="62" y="452" on="0"/>
        <pt x="36" y="473" on="1"/>
        <pt x="146" y="550" on="1"/>
        <pt x="218" y="493" on="0"/>
      </contour>
    </TTGlyph>
    <TTGlyph name="e" xMin="30" yMin="-12" xMax="404" yMax="551">
      <contour>
        <pt x="404" y="271" on="1"/>
        <pt x="404" y="235" on="1"/>
        <pt x="162" y="235" on="1"/>
        <pt x="162" y="175" on="0"/>
        <pt x="177" y="140" on="1"/>
        <pt x="182" y="128" on="0"/>
        <pt x="208" y="103" on="0"/>
        <pt x="236" y="103" on="0"/>
        <pt x="278" y="151" on="0"/>
        <pt x="290" y="185" on="1"/>
        <pt x="393" y="112" on="1"/>
        <pt x="366" y="62" on="0"/>
        <pt x="255" y="-12" on="0"/>
        <pt x="187" y="-12" on="0"/>
        <pt x="58" y="94" on="0"/>
        <pt x="30" y="153" on="0"/>
        <pt x="30" y="386" on="0"/>
        <pt x="58" y="445" on="0"/>
        <pt x="187" y="551" on="0"/>
        <pt x="247" y="551" on="0"/>
        <pt x="376" y="445" on="0"/>
        <pt x="404" y="386" on="0"/>
      </contour>
      <contour>
        <pt x="258" y="410" on="0"/>
        <pt x="227" y="436" on="0"/>
        <pt x="200" y="436" on="0"/>
        <pt x="166" y="383" on="0"/>
        <pt x="162" y="330" on="1"/>
        <pt x="276" y="330" on="1"/>
        <pt x="273" y="383" on="0"/>
      </contour>
    </TTGlyph>
    <TTGlyph name="eacute" xMin="30" yMin="-12" xMax="404" yMax="750">
      <contour>
        <pt x="404" y="271" on="1"/>
        <pt x="404" y="235" on="1"/>
        <pt x="162" y="235" on="1"/>
        <pt x="162" y="175" on="0"/>
        <pt x="177" y="140" on="1"/>
        <pt x="182" y="128" on="0"/>
        <pt x="208" y="103" on="0"/>
        <pt x="236" y="103" on="0"/>
        <pt x="278" y="151" on="0"/>
        <pt x="290" y="185" on="1"/>
        <pt x="393" y="112" on="1"/>
        <pt x="366" y="62" on="0"/>
        <pt x="255" y="-12" on="0"/>
        <pt x="187" y="-12" on="0"/>
        <pt x="58" y="94" on="0"/>
        <pt x="30" y="153" on="0"/>
        <pt x="30" y="386" on="0"/>
        <pt x="58" y="445" on="0"/>
        <pt x="187" y="551" on="0"/>
        <pt x="247" y="551" on="0"/>
        <pt x="376" y="445" on="0"/>
        <pt x="404" y="386" on="0"/>
      </contour>
      <contour>
        <pt x="258" y="410" on="0"/>
        <pt x="227" y="436" on="0"/>
        <pt x="200" y="436" on="0"/>
        <pt x="166" y="383" on="0"/>
        <pt x="162" y="330" on="1"/>
        <pt x="276" y="330" on="1"/>
        <pt x="273" y="383" on="0"/>
      </contour>
      <contour>
        <pt x="331" y="685" on="1"/>
        <pt x="331" y="671" on="0"/>
        <pt x="187" y="580" on="0"/>
        <pt x="173" y="580" on="0"/>
        <pt x="143" y="609" on="0"/>
        <pt x="143" y="622" on="0"/>
        <pt x="247" y="750" on="0"/>
        <pt x="266" y="750" on="0"/>
        <pt x="331" y="695" on="0"/>
      </contour>
    </TTGlyph>
    <TTGlyph name="ecircumflex" xMin="30" yMin="-12" xMax="404" yMax="750">
      <contour>
        <pt x="404" y="271" on="1"/>
        <pt x="404" y="235" on="1"/>
        <pt x="162" y="235" on="1"/>
        <pt x="162" y="175" on="0"/>
        <pt x="177" y="140" on="1"/>
        <pt x="182" y="128" on="0"/>
        <pt x="208" y="103" on="0"/>
        <pt x="236" y="103" on="0"/>
        <pt x="278" y="151" on="0"/>
        <pt x="290" y="185" on="1"/>
        <pt x="393" y="112" on="1"/>
        <pt x="366" y="62" on="0"/>
        <pt x="255" y="-12" on="0"/>
        <pt x="187" y="-12" on="0"/>
        <pt x="58" y="94" on="0"/>
        <pt x="30" y="153" on="0"/>
        <pt x="30" y="386" on="0"/>
        <pt x="58" y="445" on="0"/>
        <pt x="187" y="551" on="0"/>
        <pt x="247" y="551" on="0"/>
        <pt x="376" y="445" on="0"/>
        <pt x="404" y="386" on="0"/>
      </contour>
      <contour>
        <pt x="258" y="410" on="0"/>
        <pt x="227" y="436" on="0"/>
        <pt x="200" y="436" on="0"/>
        <pt x="166" y="383" on="0"/>
        <pt x="162" y="330" on="1"/>
        <pt x="276" y="330" on="1"/>
        <pt x="273" y="383" on="0"/>
      </contour>
      <contour>
        <pt x="217" y="640" on="1"/>
        <pt x="139" y="580" on="0"/>
        <pt x="121" y="580" on="0"/>
        <pt x="83" y="618" on="0"/>
        <pt x="83" y="631" on="0"/>
        <pt x="206" y="750" on="0"/>
        <pt x="228" y="750" on="0"/>
        <pt x="351" y="631" on="0"/>
        <pt x="351" y="618" on="0"/>
        <pt x="313" y="580" on="0"/>
        <pt x="295" y="580" on="0"/>
      </contour>
    </TTGlyph>
    <TTGlyph name="edieresis" xMin="30" yMin="-12" xMax="404" yMax="750">
      <contour>
        <pt x="404" y="271" on="1"/>
        <pt x="404" y="235" on="1"/>
        <pt x="162" y="235" on="1"/>
        <pt x="162" y="175" on="0"/>
        <pt x="177" y="140" on="1"/>
        <pt x="182" y="128" on="0"/>
        <pt x="208" y="103" on="0"/>
        <pt x="236" y="103" on="0"/>
        <pt x="278" y="151" on="0"/>
        <pt x="290" y="185" on="1"/>
        <pt x="393" y="112" on="1"/>
        <pt x="366" y="62" on="0"/>
        <pt x="255" y="-12" on="0"/>
        <pt x="187" y="-12" on="0"/>
        <pt x="58" y="94" on="0"/>
        <pt x="30" y="153" on="0"/>
        <pt x="30" y="386" on="0"/>
        <pt x="58" y="445" on="0"/>
        <pt x="187" y="551" on="0"/>
        <pt x="247" y="551" on="0"/>
        <pt x="376" y="445" on="0"/>
        <pt x="404" y="386" on="0"/>
      </contour>
      <contour>
        <pt x="258" y="410" on="0"/>
        <pt x="227" y="436" on="0"/>
        <pt x="200" y="436" on="0"/>
        <pt x="166" y="383" on="0"/>
        <pt x="162" y="330" on="1"/>
        <pt x="276" y="330" on="1"/>
        <pt x="273" y="383" on="0"/>
      </contour>
      <contour>
        <pt x="192" y="695" on="0"/>
        <pt x="192" y="675" on="0"/>
        <pt x="127" y="620" on="0"/>
        <pt x="109" y="620" on="0"/>
        <pt x="44" y="675" on="0"/>
        <pt x="44" y="695" on="0"/>
        <pt x="110" y="750" on="0"/>
        <pt x="127" y="750" on="0"/>
      </contour>
      <contour>
        <pt x="390" y="695" on="0"/>
        <pt x="390" y="675" on="0"/>
        <pt x="325" y="620" on="0"/>
        <pt x="307" y="620" on="0"/>
        <pt x="242" y="675" on="0"/>
        <pt x="242" y="695" on="0"/>
        <pt x="308" y="750" on="0"/>
        <pt x="325" y="750" on="0"/>
      </contour>
    </TTGlyph>
    <TTGlyph name="edotaccent" xMin="40" yMin="-12" xMax="414" yMax="750">
      <contour>
        <pt x="414" y="271" on="1"/>
        <pt x="414" y="235" on="1"/>
        <pt x="172" y="235" on="1"/>
        <pt x="172" y="175" on="0"/>
        <pt x="187" y="140" on="1"/>
        <pt x="192" y="128" on="0"/>
        <pt x="218" y="103" on="0"/>
        <pt x="246" y="103" on="0"/>
        <pt x="288" y="151" on="0"/>
        <pt x="300" y="185" on="1"/>
        <pt x="403" y="112" on="1"/>
        <pt x="376" y="62" on="0"/>
        <pt x="265" y="-12" on="0"/>
        <pt x="197" y="-12" on="0"/>
        <pt x="68" y="94" on="0"/>
        <pt x="40" y="153" on="0"/>
        <pt x="40" y="386" on="0"/>
        <pt x="68" y="445" on="0"/>
        <pt x="197" y="551" on="0"/>
        <pt x="257" y="551" on="0"/>
        <pt x="386" y="445" on="0"/>
        <pt x="414" y="386" on="0"/>
      </contour>
      <contour>
        <pt x="268" y="410" on="0"/>
        <pt x="237" y="436" on="0"/>
        <pt x="210" y="436" on="0"/>
        <pt x="176" y="383" on="0"/>
        <pt x="172" y="330" on="1"/>
        <pt x="286" y="330" on="1"/>
        <pt x="283" y="383" on="0"/>
      </contour>
      <contour>
        <pt x="308" y="690" on="0"/>
        <pt x="308" y="668" on="0"/>
        <pt x="237" y="607" on="0"/>
        <pt x="217" y="607" on="0"/>
        <pt x="146" y="668" on="0"/>
        <pt x="146" y="690" on="0"/>
        <pt x="218" y="750" on="0"/>
        <pt x="237" y="750" on="0"/>
      </contour>
    </TTGlyph>
    <TTGlyph name="egrave" xMin="30" yMin="-12" xMax="404" yMax="750">
      <contour>
        <pt x="404" y="271" on="1"/>
        <pt x="404" y="235" on="1"/>
        <pt x="162" y="235" on="1"/>
        <pt x="162" y="175" on="0"/>
        <pt x="177" y="140" on="1"/>
        <pt x="182" y="128" on="0"/>
        <pt x="208" y="103" on="0"/>
        <pt x="236" y="103" on="0"/>
        <pt x="278" y="151" on="0"/>
        <pt x="290" y="185" on="1"/>
        <pt x="393" y="112" on="1"/>
        <pt x="366" y="62" on="0"/>
        <pt x="255" y="-12" on="0"/>
        <pt x="187" y="-12" on="0"/>
        <pt x="58" y="94" on="0"/>
        <pt x="30" y="153" on="0"/>
        <pt x="30" y="386" on="0"/>
        <pt x="58" y="445" on="0"/>
        <pt x="187" y="551" on="0"/>
        <pt x="247" y="551" on="0"/>
        <pt x="376" y="445" on="0"/>
        <pt x="404" y="386" on="0"/>
      </contour>
      <contour>
        <pt x="258" y="410" on="0"/>
        <pt x="227" y="436" on="0"/>
        <pt x="200" y="436" on="0"/>
        <pt x="166" y="383" on="0"/>
        <pt x="162" y="330" on="1"/>
        <pt x="276" y="330" on="1"/>
        <pt x="273" y="383" on="0"/>
      </contour>
      <contour>
        <pt x="93" y="685" on="1"/>
        <pt x="93" y="695" on="0"/>
        <pt x="158" y="750" on="0"/>
        <pt x="177" y="750" on="0"/>
        <pt x="281" y="622" on="0"/>
        <pt x="281" y="609" on="0"/>
        <pt x="251" y="580" on="0"/>
        <pt x="237" y="580" on="0"/>
        <pt x="93" y="671" on="0"/>
      </contour>
    </TTGlyph>
    <TTGlyph name="eight" xMin="37" yMin="-12" xMax="427" yMax="676">
      <contour>
        <pt x="264" y="-12" on="0"/>
        <pt x="200" y="-12" on="0"/>
        <pt x="72" y="87" on="0"/>
        <pt x="48" y="120" on="1"/>
        <pt x="37" y="140" on="0"/>
        <pt x="37" y="283" on="0"/>
        <pt x="48" y="302" on="1"/>
        <pt x="65" y="326" on="0"/>
        <pt x="107" y="349" on="1"/>
        <pt x="75" y="367" on="0"/>
        <pt x="58" y="388" on="1"/>
        <pt x="47" y="405" on="0"/>
        <pt x="47" y="528" on="0"/>
        <pt x="53" y="544" on="1"/>
        <pt x="66" y="575" on="0"/>
        <pt x="197" y="676" on="0"/>
        <pt x="264" y="676" on="0"/>
        <pt x="399" y="571" on="0"/>
        <pt x="411" y="544" on="1"/>
        <pt x="417" y="529" on="0"/>
        <pt x="417" y="405" on="0"/>
        <pt x="406" y="388" on="1"/>
        <pt x="389" y="367" on="0"/>
        <pt x="357" y="349" on="1"/>
        <pt x="399" y="326" on="0"/>
        <pt x="416" y="302" on="1"/>
        <pt x="427" y="283" on="0"/>
        <pt x="427" y="140" on="0"/>
        <pt x="416" y="120" on="1"/>
        <pt x="392" y="87" on="0"/>
      </contour>
      <contour>
        <pt x="218" y="98" on="0"/>
        <pt x="246" y="98" on="0"/>
        <pt x="287" y="138" on="0"/>
        <pt x="289" y="150" on="1"/>
        <pt x="293" y="182" on="0"/>
        <pt x="293" y="239" on="0"/>
        <pt x="289" y="262" on="1"/>
        <pt x="287" y="273" on="0"/>
        <pt x="246" y="309" on="0"/>
        <pt x="218" y="309" on="0"/>
        <pt x="177" y="273" on="0"/>
        <pt x="175" y="262" on="1"/>
        <pt x="171" y="239" on="0"/>
        <pt x="171" y="182" on="0"/>
        <pt x="175" y="150" on="1"/>
        <pt x="177" y="138" on="0"/>
      </contour>
      <contour>
        <pt x="220" y="391" on="0"/>
        <pt x="244" y="391" on="0"/>
        <pt x="278" y="426" on="0"/>
        <pt x="280" y="442" on="1"/>
        <pt x="283" y="481" on="0"/>
        <pt x="283" y="490" on="0"/>
        <pt x="280" y="520" on="1"/>
        <pt x="278" y="535" on="0"/>
        <pt x="244" y="566" on="0"/>
        <pt x="220" y="566" on="0"/>
        <pt x="186" y="535" on="0"/>
        <pt x="184" y="520" on="1"/>
        <pt x="181" y="490" on="0"/>
        <pt x="181" y="481" on="0"/>
        <pt x="184" y="442" on="1"/>
        <pt x="186" y="426" on="0"/>
      </contour>
    </TTGlyph>
    <TTGlyph name="emacron" xMin="40" yMin="-12" xMax="414" yMax="701">
      <contour>
        <pt x="414" y="271" on="1"/>
        <pt x="414" y="235" on="1"/>
        <pt x="172" y="235" on="1"/>
        <pt x="172" y="175" on="0"/>
        <pt x="187" y="140" on="1"/>
        <pt x="192" y="128" on="0"/>
        <pt x="218" y="103" on="0"/>
        <pt x="246" y="103" on="0"/>
        <pt x="288" y="151" on="0"/>
        <pt x="300" y="185" on="1"/>
        <pt x="403" y="112" on="1"/>
        <pt x="376" y="62" on="0"/>
        <pt x="265" y="-12" on="0"/>
        <pt x="197" y="-12" on="0"/>
        <pt x="68" y="94" on="0"/>
        <pt x="40" y="153" on="0"/>
        <pt x="40" y="386" on="0"/>
        <pt x="68" y="445" on="0"/>
        <pt x="197" y="551" on="0"/>
        <pt x="257" y="551" on="0"/>
        <pt x="386" y="445" on="0"/>
        <pt x="414" y="386" on="0"/>
      </contour>
      <contour>
        <pt x="268" y="410" on="0"/>
        <pt x="237" y="436" on="0"/>
        <pt x="210" y="436" on="0"/>
        <pt x="176" y="383" on="0"/>
        <pt x="172" y="330" on="1"/>
        <pt x="286" y="330" on="1"/>
        <pt x="283" y="383" on="0"/>
      </contour>
      <contour>
        <pt x="65" y="608" on="1"/>
        <pt x="65" y="701" on="1"/>
        <pt x="390" y="701" on="1"/>
        <pt x="390" y="608" on="1"/>
      </contour>
    </TTGlyph>
    <TTGlyph name="emdash" xMin="55" yMin="260" xMax="628" yMax="340">
      <contour>
        <pt x="55" y="260" on="1"/>
        <pt x="55" y="340" on="1"/>
        <pt x="628" y="340" on="1"/>
        <pt x="628" y="260" on="1"/>
      </contour>
    </TTGlyph>
    <TTGlyph name="endash" xMin="55" yMin="260" xMax="428" yMax="340">
      <contour>
        <pt x="55" y="260" on="1"/>
        <pt x="55" y="340" on="1"/>
        <pt x="428" y="340" on="1"/>
        <pt x="428" y="260" on="1"/>
      </contour>
    </TTGlyph>
    <TTGlyph name="eng" xMin="15" yMin="-250" xMax="438" yMax="551">
      <contour>
        <pt x="411" y="-144" on="0"/>
        <pt x="281" y="-250" on="0"/>
        <pt x="215" y="-250" on="0"/>
        <pt x="111" y="-181" on="0"/>
        <pt x="85" y="-136" on="1"/>
        <pt x="188" y="-65" on="1"/>
        <pt x="198" y="-78" on="1"/>
        <pt x="235" y="-125" on="0"/>
        <pt x="262" y="-125" on="0"/>
        <pt x="293" y="-99" on="0"/>
        <pt x="306" y="-73" on="0"/>
        <pt x="306" y="8" on="1"/>
        <pt x="306" y="372" on="1"/>
        <pt x="306" y="389" on="0"/>
        <pt x="270" y="426" on="0"/>
        <pt x="239" y="426" on="0"/>
        <pt x="197" y="384" on="1"/>
        <pt x="197" y="0" on="1"/>
        <pt x="65" y="0" on="1"/>
        <pt x="65" y="345" on="1"/>
        <pt x="65" y="396" on="0"/>
        <pt x="41" y="452" on="0"/>
        <pt x="15" y="473" on="1"/>
        <pt x="125" y="550" on="1"/>
        <pt x="162" y="520" on="0"/>
        <pt x="180" y="481" on="1"/>
        <pt x="254" y="551" on="0"/>
        <pt x="315" y="551" on="0"/>
        <pt x="438" y="440" on="0"/>
        <pt x="438" y="386" on="1"/>
        <pt x="437" y="33" on="1"/>
        <pt x="437" y="-93" on="0"/>
        <pt x="422" y="-118" on="1"/>
      </contour>
    </TTGlyph>
    <TTGlyph name="equal" xMin="55" yMin="142" xMax="439" yMax="458">
      <contour>
        <pt x="55" y="340" on="1"/>
        <pt x="55" y="458" on="1"/>
        <pt x="439" y="458" on="1"/>
        <pt x="439" y="340" on="1"/>
      </contour>
      <contour>
        <pt x="55" y="142" on="1"/>
        <pt x="55" y="260" on="1"/>
        <pt x="439" y="260" on="1"/>
        <pt x="439" y="142" on="1"/>
      </contour>
    </TTGlyph>
    <TTGlyph name="eth" xMin="33" yMin="-12" xMax="404" yMax="750">
      <contour>
        <pt x="252" y="-12" on="0"/>
        <pt x="192" y="-12" on="0"/>
        <pt x="62" y="94" on="0"/>
        <pt x="40" y="143" on="0"/>
        <pt x="40" y="376" on="0"/>
        <pt x="62" y="425" on="0"/>
        <pt x="192" y="531" on="0"/>
        <pt x="222" y="531" on="1"/>
        <pt x="226" y="531" on="0"/>
        <pt x="228" y="530" on="1"/>
        <pt x="211" y="554" on="0"/>
        <pt x="188" y="576" on="1"/>
        <pt x="115" y="526" on="0"/>
        <pt x="94" y="526" on="0"/>
        <pt x="36" y="575" on="0"/>
        <pt x="36" y="593" on="0"/>
        <pt x="103" y="642" on="1"/>
        <pt x="68" y="663" on="0"/>
        <pt x="33" y="675" on="1"/>
        <pt x="139" y="750" on="1"/>
        <pt x="200" y="711" on="1"/>
        <pt x="258" y="750" on="0"/>
        <pt x="278" y="750" on="0"/>
        <pt x="335" y="701" on="0"/>
        <pt x="335" y="686" on="0"/>
        <pt x="284" y="646" on="1"/>
        <pt x="356" y="594" on="0"/>
        <pt x="404" y="402" on="0"/>
        <pt x="404" y="143" on="0"/>
        <pt x="382" y="94" on="0"/>
      </contour>
      <contour>
        <pt x="211" y="103" on="0"/>
        <pt x="233" y="103" on="0"/>
        <pt x="264" y="129" on="0"/>
        <pt x="277" y="157" on="0"/>
        <pt x="277" y="362" on="0"/>
        <pt x="264" y="389" on="0"/>
        <pt x="232" y="416" on="0"/>
        <pt x="211" y="416" on="0"/>
        <pt x="180" y="390" on="0"/>
        <pt x="167" y="362" on="0"/>
        <pt x="167" y="157" on="0"/>
        <pt x="180" y="129" on="0"/>
      </contour>
    </TTGlyph>
    <TTGlyph name="exclam" xMin="55" yMin="-12" xMax="242" yMax="712">
      <contour>
        <pt x="160" y="153" on="0"/>
        <pt x="242" y="84" on="0"/>
        <pt x="242" y="59" on="0"/>
        <pt x="160" y="-12" on="0"/>
        <pt x="137" y="-12" on="0"/>
        <pt x="55" y="59" on="0"/>
        <pt x="55" y="84" on="0"/>
        <pt x="138" y="153" on="0"/>
      </contour>
      <contour>
        <pt x="215" y="712" on="1"/>
        <pt x="207" y="411" on="0"/>
        <pt x="207" y="294" on="0"/>
        <pt x="222" y="256" on="1"/>
        <pt x="127" y="189" on="1"/>
        <pt x="96" y="227" on="0"/>
        <pt x="90" y="352" on="1"/>
        <pt x="77" y="712" on="1"/>
      </contour>
    </TTGlyph>
    <TTGlyph name="exclamdown" xMin="55" yMin="-174" xMax="242" yMax="551">
      <contour>
        <pt x="137" y="386" on="0"/>
        <pt x="55" y="455" on="0"/>
        <pt x="55" y="480" on="0"/>
        <pt x="137" y="551" on="0"/>
        <pt x="160" y="551" on="0"/>
        <pt x="242" y="480" on="0"/>
        <pt x="242" y="455" on="0"/>
        <pt x="159" y="386" on="0"/>
      </contour>
      <contour>
        <pt x="82" y="-174" on="1"/>
        <pt x="90" y="127" on="0"/>
        <pt x="90" y="245" on="0"/>
        <pt x="75" y="283" on="1"/>
        <pt x="170" y="350" on="1"/>
        <pt x="201" y="312" on="0"/>
        <pt x="207" y="187" on="1"/>
        <pt x="220" y="-174" on="1"/>
      </contour>
    </TTGlyph>
    <TTGlyph name="f" xMin="15" yMin="0" xMax="393" yMax="750">
      <contour>
        <pt x="15" y="395" on="1"/>
        <pt x="15" y="470" on="1"/>
        <pt x="65" y="482" on="1"/>
        <pt x="65" y="594" on="0"/>
        <pt x="87" y="644" on="0"/>
        <pt x="217" y="750" on="0"/>
        <pt x="278" y="750" on="0"/>
        <pt x="370" y="693" on="0"/>
        <pt x="393" y="656" on="1"/>
        <pt x="295" y="590" on="1"/>
        <pt x="267" y="635" on="0"/>
        <pt x="247" y="635" on="1"/>
        <pt x="237" y="635" on="0"/>
        <pt x="211" y="609" on="0"/>
        <pt x="197" y="581" on="0"/>
        <pt x="197" y="500" on="1"/>
        <pt x="339" y="500" on="1"/>
        <pt x="339" y="395" on="1"/>
        <pt x="197" y="395" on="1"/>
        <pt x="197" y="0" on="1"/>
        <pt x="65" y="0" on="1"/>
        <pt x="65" y="395" on="1"/>
      </contour>
    </TTGlyph>
    <TTGlyph name="ff" xMin="15" yMin="0" xMax="642" yMax="750">
      <contour>
        <pt x="197" y="395" on="1"/>
        <pt x="197" y="0" on="1"/>
        <pt x="65" y="0" on="1"/>
        <pt x="65" y="395" on="1"/>
        <pt x="15" y="395" on="1"/>
        <pt x="15" y="470" on="1"/>
        <pt x="65" y="482" on="1"/>
        <pt x="65" y="584" on="0"/>
        <pt x="88" y="632" on="0"/>
        <pt x="225" y="738" on="0"/>
        <pt x="280" y="738" on="0"/>
        <pt x="351" y="705" on="0"/>
        <pt x="380" y="680" on="1"/>
        <pt x="460" y="750" on="0"/>
        <pt x="527" y="750" on="0"/>
        <pt x="619" y="693" on="0"/>
        <pt x="642" y="656" on="1"/>
        <pt x="544" y="590" on="1"/>
        <pt x="516" y="635" on="0"/>
        <pt x="496" y="635" on="1"/>
        <pt x="486" y="635" on="0"/>
        <pt x="460" y="609" on="0"/>
        <pt x="446" y="581" on="0"/>
        <pt x="446" y="500" on="1"/>
        <pt x="588" y="500" on="1"/>
        <pt x="588" y="395" on="1"/>
        <pt x="446" y="395" on="1"/>
        <pt x="446" y="0" on="1"/>
        <pt x="314" y="0" on="1"/>
        <pt x="314" y="395" on="1"/>
      </contour>
      <contour>
        <pt x="197" y="500" on="1"/>
        <pt x="314" y="500" on="1"/>
        <pt x="314" y="558" on="0"/>
        <pt x="315" y="578" on="1"/>
        <pt x="305" y="592" on="0"/>
        <pt x="270" y="623" on="0"/>
        <pt x="244" y="623" on="0"/>
        <pt x="211" y="597" on="0"/>
        <pt x="197" y="571" on="0"/>
      </contour>
    </TTGlyph>
</ttFont>
